<svg width="389" height="389" viewBox="0 0 389 389" fill="none" xmlns="http://www.w3.org/2000/svg">
<g clip-path="url(#clip0_4107_4706)">
<path d="M299.14 247.963C301.147 247.454 303.259 247.535 305.222 248.197C306.812 248.63 308.259 249.479 309.413 250.656C310.128 251.484 310.693 252.43 311.085 253.451C312.305 256.198 312.475 259.297 311.565 262.162C311.022 263.536 310.146 264.755 309.017 265.708C307.888 266.661 306.541 267.32 305.095 267.626C302.674 268.291 300.1 268.123 297.786 267.149C295.717 266.226 294.078 264.549 293.202 262.459C292.398 260.289 292.152 257.952 292.485 255.662C292.613 253.798 293.447 252.054 294.818 250.785C295.789 249.727 296.962 248.873 298.268 248.276C298.552 248.154 298.843 248.05 299.14 247.963Z" fill="white"/>
<path d="M292.689 254.471C292.805 253.936 292.983 253.417 293.22 252.924C293.637 252.131 294.176 251.407 294.817 250.779C295.788 249.721 296.962 248.868 298.268 248.271C298.551 248.151 298.84 248.048 299.135 247.963C301.143 247.454 303.254 247.535 305.217 248.197C306.508 248.566 307.713 249.19 308.759 250.032C308.036 254.873 297.921 258.69 292.598 260.39C292.308 258.83 292.269 257.234 292.481 255.662C292.535 255.262 292.6 254.86 292.689 254.471Z" fill="#A98A75"/>
<path d="M359.79 323.471C358.191 324.68 356.886 326.234 355.971 328.017C355.072 330.708 354.369 333.461 353.866 336.253L350.653 336.193C350.01 334.128 347.293 333.681 345.797 334.423L343.514 333.191C343.046 331.081 340.377 330.408 338.823 331.023L338.349 330.098C338.738 327.379 339.615 324.754 340.936 322.346C341.537 321.411 342.203 320.519 342.93 319.677C344.105 318.649 345.353 317.707 346.664 316.859L359.79 323.471Z" fill="white"/>
<path d="M296.095 330.784C295.909 330.587 295.743 330.372 295.6 330.141C294.532 328.592 294.716 325.755 295.793 323.045C297.749 323.171 299.713 323.07 301.645 322.745L302.286 322.602L302.667 324.7C302.983 326.191 302.826 327.744 302.22 329.143C301.171 331.589 297.99 332.775 296.095 330.784Z" fill="white"/>
<path d="M303.903 321.183C305.936 321.355 307.983 321.188 309.961 320.688C311.453 321.02 312.797 321.827 313.791 322.987C313.976 323.365 314.082 323.777 314.102 324.198C314.123 324.618 314.058 325.038 313.911 325.432C313.765 325.827 313.539 326.188 313.249 326.492C312.959 326.797 312.61 327.04 312.223 327.205C310.564 327.748 308.788 327.826 307.087 327.433C306.149 327.285 305.273 326.872 304.561 326.244C303.85 325.615 303.332 324.797 303.068 323.885L303.903 321.183Z" fill="white"/>
<path d="M294.431 321.301C294.267 316.966 294.116 312.178 294.105 308.34C299.249 308.703 304.416 308.499 309.514 307.734C309.525 308.152 309.535 308.411 309.535 308.411C309.667 312.298 309.797 317.27 309.923 320.715C307.956 321.196 305.925 321.356 303.907 321.189L301.65 322.746C299.286 323.157 296.873 323.2 294.497 322.875C294.471 322.359 294.451 321.836 294.431 321.301Z" fill="white"/>
<path d="M288.629 286.777C287.94 284.867 287.794 282.804 288.207 280.816C288.715 278.002 289.789 275.321 291.362 272.933C292.935 270.545 294.976 268.501 297.362 266.924C297.498 267.006 297.641 267.079 297.786 267.149C300.099 268.123 302.674 268.291 305.094 267.626C305.946 267.445 306.767 267.139 307.53 266.719C308.62 266.901 309.437 267.044 309.437 267.044C310.161 267.236 310.826 267.602 311.376 268.11C311.925 268.618 312.342 269.253 312.59 269.959C313.178 271.331 313.395 272.833 313.899 274.238C314.24 275.186 315.44 275.755 316.838 276.229C316.71 276.478 316.612 276.741 316.547 277.013C316.207 278.43 316.38 279.921 317.034 281.222C317.445 281.941 318.027 282.546 318.729 282.985C317.254 284.159 313.783 284.316 311.381 283.734L310.948 283.614C310.935 289.466 311.042 305.356 310.925 307.391C308.347 308.294 298.001 308.971 292.554 308.165C292.409 303.477 292.229 295.531 292.038 291.212C292.038 291.212 292.038 290.678 292.038 289.975C291.491 289.814 290.974 289.562 290.51 289.23C289.665 288.605 289.013 287.755 288.629 286.777Z" fill="white"/>
<path d="M166.179 65.5339L183.845 55.3292C184.503 54.9485 185.249 54.7481 186.009 54.7481C186.769 54.7481 187.516 54.9485 188.173 55.3292C214.786 70.697 241.395 86.0608 268.003 101.421C268.657 101.797 269.201 102.34 269.58 102.994C269.958 103.647 270.157 104.389 270.157 105.145V218.668C270.158 219.428 269.959 220.175 269.58 220.833C269.2 221.492 268.654 222.039 267.996 222.419C193.746 265.291 103.541 317.369 88.4352 326.086C87.7831 326.463 87.0432 326.661 86.2899 326.661C85.5367 326.661 84.7967 326.463 84.1446 326.086C57.5417 310.729 30.9439 295.368 4.35113 280.003C3.69213 279.622 3.14489 279.075 2.76441 278.416C2.38393 277.757 2.18361 277.01 2.18359 276.249V162.715C2.18399 161.955 2.38449 161.208 2.76495 160.549C3.14541 159.891 3.69245 159.344 4.35113 158.963C11.5506 154.807 35.6092 140.919 59.6601 127.038V86.158C59.6608 85.3865 59.8644 84.6287 60.2506 83.9608C60.6367 83.2929 61.1919 82.7384 61.8602 82.3529C86.9884 67.8499 110.451 54.2985 126.434 45.0713C127.091 44.6919 127.836 44.4922 128.594 44.4922C129.352 44.4922 130.097 44.6919 130.753 45.0713L166.185 65.5274" fill="white"/>
<path d="M300.977 324.465C301.218 325.379 301.648 326.232 302.24 326.969C302.831 327.706 303.571 328.311 304.411 328.744C306.104 329.568 307.981 329.944 309.861 329.836C310.898 329.877 311.931 329.676 312.876 329.248C313.822 328.821 314.655 328.179 315.309 327.373C315.878 326.58 316.211 325.642 316.27 324.667C316.33 323.693 316.113 322.721 315.644 321.865C315.101 321.066 314.387 320.4 313.552 319.914C312.631 319.311 311.615 318.868 310.547 318.601C310.273 318.526 309.986 318.505 309.704 318.54C309.421 318.575 309.148 318.666 308.901 318.806C308.653 318.947 308.436 319.135 308.261 319.359C308.086 319.584 307.957 319.841 307.881 320.115C307.805 320.39 307.785 320.677 307.82 320.959C307.855 321.242 307.945 321.514 308.086 321.762C308.227 322.01 308.415 322.227 308.639 322.402C308.864 322.577 309.121 322.706 309.395 322.781C309.612 322.835 309.834 322.895 310.045 322.969C310.154 323.007 310.262 323.048 310.371 323.091C310.121 322.984 310.108 322.981 310.332 323.083C310.68 323.267 311.027 323.441 311.359 323.657C311.446 323.714 311.532 323.772 311.618 323.832C311.811 323.974 311.782 323.948 311.528 323.756C311.528 323.756 311.878 324.06 311.908 324.092C312.051 324.235 312.18 324.512 311.833 323.955C312.061 324.321 311.754 323.543 311.863 323.974C311.892 324.064 311.918 324.156 311.94 324.248C311.984 324.485 311.98 324.432 311.927 324.088C311.927 324.088 311.927 324.485 311.933 324.505C311.913 324.745 311.922 324.69 311.961 324.34C311.944 324.43 311.924 324.52 311.899 324.608C311.874 324.695 311.846 324.783 311.813 324.869C311.947 324.565 311.964 324.518 311.862 324.727C311.853 324.74 311.645 325.08 311.645 325.078C311.847 324.824 311.873 324.785 311.721 324.96C311.657 325.027 311.591 325.092 311.521 325.153C311.782 324.964 311.817 324.936 311.63 325.07C311.551 325.123 311.469 325.171 311.386 325.217C311.08 325.417 311.778 325.095 311.251 325.267C311.061 325.327 310.868 325.375 310.674 325.42C310.56 325.444 310.447 325.466 310.334 325.484C310.623 325.448 310.641 325.444 310.389 325.471C309.973 325.494 309.564 325.517 309.147 325.503C308.912 325.494 308.676 325.479 308.44 325.457C308.317 325.446 307.573 325.432 308.156 325.431C307.796 325.407 307.44 325.332 307.101 325.208C307.008 325.179 306.915 325.148 306.823 325.115C306.607 325.03 306.643 325.048 306.932 325.168C306.804 325.092 306.67 325.025 306.532 324.97C306.355 324.874 306.193 324.763 306.022 324.657C305.833 324.52 305.86 324.549 306.104 324.727C306.027 324.664 305.952 324.599 305.879 324.531C305.771 324.43 305.672 324.314 305.565 324.213C305.414 324.033 305.434 324.065 305.624 324.304C305.565 324.224 305.509 324.142 305.456 324.057C305.403 323.973 305.353 323.887 305.306 323.798C305.198 323.581 305.213 323.62 305.335 323.906C305.239 323.723 305.178 323.523 305.157 323.317C305 322.765 304.633 322.296 304.134 322.012C303.635 321.729 303.045 321.652 302.49 321.8C301.942 321.962 301.478 322.33 301.195 322.827C300.912 323.324 300.833 323.911 300.973 324.466L300.977 324.465Z" fill="#211715"/>
<path d="M300.5 324.697C300.631 325.584 300.658 326.484 300.582 327.378L300.66 326.801C300.596 327.284 300.472 327.758 300.292 328.21L300.508 327.693C300.382 328.003 300.234 328.304 300.066 328.593C299.991 328.716 299.904 328.83 299.825 328.95C300.239 328.321 299.959 328.775 299.804 328.936C299.706 329.038 299.602 329.133 299.497 329.228C299.372 329.336 299.141 329.462 299.708 329.074C299.65 329.113 299.599 329.156 299.537 329.195C299.299 329.358 299.044 329.498 298.779 329.612L299.297 329.395C298.975 329.529 298.637 329.622 298.292 329.671L298.869 329.594C298.581 329.628 298.29 329.628 298.002 329.594L298.577 329.671C298.289 329.632 298.007 329.556 297.738 329.445L298.255 329.661C298.08 329.584 297.911 329.493 297.751 329.387C297.338 329.111 298.102 329.706 297.85 329.464C297.775 329.393 297.697 329.323 297.625 329.247C297.552 329.172 297.485 329.082 297.408 329.004C297.866 329.492 297.601 329.252 297.49 329.084C297.362 328.89 297.248 328.686 297.151 328.475L297.368 328.992C297.2 328.585 297.085 328.158 297.027 327.723L297.104 328.299C297.018 327.559 297.028 326.812 297.133 326.074L297.056 326.651C297.177 325.817 297.377 324.997 297.654 324.201C297.803 323.647 297.727 323.056 297.443 322.557C297.159 322.058 296.689 321.691 296.137 321.535C295.582 321.396 294.996 321.477 294.499 321.759C294.003 322.042 293.634 322.505 293.47 323.053C292.791 324.933 292.579 326.951 292.852 328.932C292.989 329.795 293.308 330.62 293.785 331.352C294.263 332.084 294.89 332.707 295.625 333.18C298.456 334.968 302.171 333.467 303.798 330.78C304.324 329.915 304.674 328.955 304.826 327.954C304.969 326.875 304.969 325.782 304.826 324.703C304.807 324.132 304.581 323.587 304.191 323.17C303.785 322.763 303.233 322.535 302.659 322.535C302.084 322.535 301.533 322.763 301.126 323.17C300.921 323.368 300.759 323.607 300.65 323.871C300.541 324.134 300.487 324.418 300.491 324.703L300.5 324.697Z" fill="#211715"/>
<path d="M86.2422 327.352V208.98L143.708 175.799V132.39L212.679 92.5703V135.978L270.158 102.793V218.665C270.159 219.425 269.96 220.171 269.58 220.83C269.201 221.489 268.655 222.035 267.997 222.415L86.2422 327.352Z" fill="white"/>
<path d="M144.201 270.864V252.359L175.835 270.609C175.835 272.287 175.835 273.969 175.835 275.634C164.672 282.075 154.014 288.229 144.202 293.899L144.201 270.864Z" fill="#95CBEB"/>
<path d="M86.2422 255.867V228.249L235.632 141.998L270.163 122.062V149.68L86.2422 255.867Z" fill="#95CBEB"/>
<path d="M86.2422 309.557V284.489L143.719 251.305C143.719 266.609 143.719 276.373 143.719 276.373L98.4248 302.525L86.2422 309.557Z" fill="#95CBEB"/>
<path d="M223.785 205.081L245.496 217.615C253.976 212.72 262.403 207.854 270.163 203.373C270.163 203.373 270.163 193.609 270.163 178.305L223.785 205.081Z" fill="#95CBEB"/>
<path d="M260.79 105.707C244.389 115.177 227.988 124.644 211.587 134.108L214.848 135.98V92.5748C214.842 92.1958 214.738 91.8248 214.545 91.4983C214.352 91.1718 214.078 90.9009 213.75 90.7122C213.421 90.5235 213.049 90.4235 212.67 90.4219C212.291 90.4203 211.918 90.5172 211.587 90.7031C194.491 100.572 177.395 110.443 160.3 120.316L142.624 130.521C142.296 130.712 142.023 130.985 141.833 131.314C141.643 131.642 141.542 132.015 141.54 132.395V175.81L142.614 173.939C124.086 184.628 105.56 195.321 87.0363 206.018C86.4608 206.351 85.8647 206.663 85.3022 207.02C83.4804 208.174 84.0678 210.837 84.0678 212.708V316.818C84.0678 319.608 88.4029 319.612 88.4029 316.818V208.983L87.33 210.855C100.263 203.387 113.196 195.92 126.129 188.455L144.8 177.681C145.126 177.489 145.396 177.215 145.584 176.887C145.772 176.559 145.872 176.188 145.873 175.809V132.395L144.8 134.266C163.743 123.335 182.685 112.399 201.625 101.461L213.771 94.4486L210.509 92.577V135.982C210.515 136.361 210.619 136.732 210.812 137.059C211.005 137.385 211.279 137.656 211.608 137.845C211.937 138.034 212.309 138.134 212.688 138.135C213.067 138.137 213.441 138.04 213.771 137.854C230.172 128.389 246.573 118.921 262.974 109.451C265.389 108.058 263.208 104.31 260.786 105.709L260.79 105.707Z" fill="#211715"/>
<path d="M87.3354 230.116L156.887 189.96L225.707 150.23L265.299 127.371C267.714 125.976 265.534 122.229 263.112 123.628L193.209 163.986L124.498 203.66L85.157 226.372C82.7424 227.767 84.9229 231.515 87.3452 230.116H87.3354Z" fill="#211715"/>
<path d="M108.841 244.064V216.453C108.841 213.664 104.506 213.659 104.506 216.453V244.064C104.506 246.854 108.841 246.858 108.841 244.064Z" fill="#211715"/>
<path d="M269.07 147.804L200.056 187.648L130.96 227.545L92.2984 249.871C89.8827 251.265 92.0632 255.013 94.4854 253.614L163.482 213.779L232.585 173.883L271.258 151.558C273.672 150.164 271.492 146.416 269.07 147.815V147.804Z" fill="#211715"/>
<path d="M129.278 232.266V204.648C129.278 201.86 124.943 201.854 124.943 204.648V232.266C124.943 235.055 129.278 235.06 129.278 232.266Z" fill="#211715"/>
<path d="M165.092 147.629V141.073C165.092 140.883 165.142 140.696 165.237 140.531C165.332 140.367 165.469 140.23 165.634 140.135L174.277 135.149V125.167C174.277 124.977 174.327 124.79 174.422 124.625C174.517 124.46 174.654 124.323 174.819 124.228L180.495 120.95C180.66 120.855 180.847 120.805 181.038 120.805C181.228 120.805 181.415 120.855 181.58 120.95C181.745 121.046 181.882 121.183 181.977 121.348C182.072 121.513 182.121 121.7 182.121 121.891C182.121 124.851 182.121 127.791 182.121 130.617L189.68 126.253C189.845 126.158 190.032 126.108 190.222 126.108C190.412 126.108 190.599 126.158 190.764 126.253C190.929 126.348 191.066 126.485 191.161 126.649C191.256 126.814 191.306 127.001 191.306 127.191V133.744C191.307 133.934 191.257 134.12 191.162 134.285C191.066 134.449 190.929 134.585 190.764 134.679L182.115 139.673V149.66C182.114 149.849 182.064 150.035 181.969 150.199C181.874 150.363 181.737 150.499 181.573 150.593L175.898 153.869C175.733 153.964 175.546 154.015 175.356 154.015C175.166 154.015 174.979 153.964 174.814 153.869C174.65 153.774 174.513 153.637 174.418 153.473C174.322 153.308 174.272 153.121 174.272 152.931V144.203L166.714 148.568C166.55 148.662 166.363 148.711 166.173 148.711C165.983 148.71 165.797 148.66 165.633 148.565C165.469 148.47 165.332 148.334 165.237 148.169C165.142 148.005 165.092 147.819 165.092 147.629Z" fill="#BDBDBD"/>
<path d="M87.3356 286.36C102.331 277.701 117.329 269.044 132.328 260.387C136.262 258.115 140.196 255.841 144.129 253.567C146.544 252.171 144.364 248.423 141.941 249.824C126.909 258.517 111.872 267.202 96.8295 275.877L85.1519 282.618C82.7361 284.013 84.9167 287.761 87.34 286.362L87.3356 286.36Z" fill="#211715"/>
<path d="M149.713 213.985V193.242C149.713 190.453 145.378 190.448 145.378 193.242V213.985C145.378 216.774 149.713 216.779 149.713 213.985Z" fill="#211715"/>
<path d="M108.841 297.765V272.695C108.841 269.906 104.506 269.901 104.506 272.695V297.765C104.506 300.554 108.841 300.559 108.841 297.765Z" fill="#211715"/>
<path d="M135.13 278.831L95.4507 301.739C93.035 303.134 95.2155 306.882 97.6388 305.483L137.313 282.574C139.729 281.179 137.549 277.433 135.125 278.831H135.13Z" fill="#211715"/>
<path d="M170.151 208.683V181.055C170.151 178.265 165.816 178.261 165.816 181.055V208.68C165.816 211.47 170.151 211.474 170.151 208.68V208.683Z" fill="#211715"/>
<path d="M129.277 285.965V260.899C129.277 258.109 124.942 258.104 124.942 260.899V285.965C124.942 288.755 129.277 288.759 129.277 285.965Z" fill="#211715"/>
<path d="M190.584 196.87V169.257C190.584 166.469 186.249 166.464 186.249 169.257V196.87C186.249 199.659 190.584 199.664 190.584 196.87Z" fill="#211715"/>
<path d="M211.02 185.072V157.461C211.02 154.671 206.685 154.667 206.685 157.461V185.072C206.685 187.862 211.02 187.866 211.02 185.072Z" fill="#211715"/>
<path d="M231.455 173.276V145.664C231.455 142.875 227.12 142.87 227.12 145.664V173.276C227.12 176.065 231.455 176.07 231.455 173.276Z" fill="#211715"/>
<path d="M251.892 161.471V133.859C251.892 131.071 247.557 131.065 247.557 133.859V161.471C247.557 164.261 251.892 164.265 251.892 161.471Z" fill="#211715"/>
<path d="M225.32 206.688C240.608 197.874 255.893 189.052 271.175 180.223C273.589 178.828 271.409 175.08 268.987 176.479C253.705 185.309 238.421 194.13 223.132 202.945C220.717 204.339 222.897 208.086 225.32 206.688Z" fill="#211715"/>
<path d="M231.455 207.743V201.902C231.455 201.327 231.227 200.776 230.82 200.369C230.414 199.963 229.863 199.734 229.288 199.734C228.713 199.734 228.161 199.963 227.755 200.369C227.348 200.776 227.12 201.327 227.12 201.902V207.743C227.12 208.318 227.348 208.87 227.755 209.276C228.161 209.683 228.713 209.911 229.288 209.911C229.863 209.911 230.414 209.683 230.82 209.276C231.227 208.87 231.455 208.318 231.455 207.743Z" fill="#211715"/>
<path d="M269.073 201.51C260.993 206.165 252.915 210.826 244.84 215.49C242.425 216.885 244.605 220.633 247.028 219.233C255.105 214.571 263.182 209.911 271.262 205.253C273.678 203.86 271.498 200.114 269.073 201.51Z" fill="#211715"/>
<path d="M251.892 214.776V190.101C251.892 187.313 247.557 187.307 247.557 190.101V214.776C247.557 217.566 251.892 217.572 251.892 214.776Z" fill="#211715"/>
<path d="M135.284 125.287C118.117 115.376 100.951 105.465 83.7837 95.5528L69.2612 87.1742C66.8411 85.7772 64.6552 89.5216 67.0731 90.9175C84.2428 100.827 101.412 110.738 118.579 120.652L133.096 129.031C135.517 130.429 137.702 126.685 135.284 125.289V125.287Z" fill="#211715"/>
<path d="M213.356 90.2672C197.996 81.3962 182.636 72.5266 167.275 63.6585C164.855 62.2616 162.669 66.006 165.087 67.4019C180.448 76.2707 195.808 85.1403 211.167 94.0105C213.588 95.4086 215.773 91.6642 213.356 90.2672Z" fill="#211715"/>
<path d="M79.5039 202.053C62.3377 192.144 45.1733 182.234 28.0108 172.322L13.4948 163.94C11.0737 162.543 8.8888 166.287 11.3067 167.683L62.8041 197.416L77.3157 205.794C79.7369 207.191 81.9228 203.446 79.5039 202.05V202.053Z" fill="#211715"/>
<path d="M167.274 67.4013L178.654 60.8272L182.712 58.484C183.724 57.8999 185.097 56.7338 186.328 56.931C187.385 57.2693 188.377 57.7857 189.261 58.458L192.647 60.4088L199.421 64.3201L212.725 72.0041C230.383 82.2016 248.042 92.3962 265.702 102.588C267.056 103.37 267.99 103.882 267.993 105.547C267.993 106.096 267.993 106.646 267.993 107.195V217.624C267.993 217.963 268.016 218.309 267.993 218.646C267.901 220.02 266.998 220.489 265.903 221.122L260.458 224.265L215.025 250.492L170.885 275.976L131.851 298.516L102.463 315.482L92.5831 321.182L89.0977 323.193C88.6545 323.449 88.2134 323.709 87.7691 323.961C86.1933 324.851 85.259 324.214 83.7808 323.361C66.0186 313.109 48.2585 302.853 30.5006 292.594L17.1236 284.876L10.3122 280.943L7.15299 279.113C6.30331 278.623 5.15127 278.206 4.64515 277.318C4.13903 276.431 4.35578 274.934 4.35578 273.935V173.653C4.35578 170.046 4.12819 166.357 4.35578 162.756C4.47175 160.929 6.41494 160.273 7.80542 159.468L14.8672 155.392L35.8414 143.282L60.7507 128.905C61.0765 128.713 61.3468 128.439 61.5349 128.111C61.723 127.783 61.8225 127.412 61.8236 127.033V89.5806C61.8236 88.1858 61.3901 85.679 62.4739 84.5844C63.14 84.0454 63.8715 83.5927 64.6512 83.2373L67.3118 81.7027L72.8206 78.5262L83.3559 72.4451C95.6654 65.3364 107.975 58.2279 120.284 51.1198L124.34 48.7789C125.498 48.1102 127.203 46.6558 128.59 46.658C129.512 46.8145 130.38 47.2019 131.112 47.784L134.51 49.7456L140.334 53.1053L165.087 67.3959C167.508 68.7939 169.693 65.0495 167.275 63.6525L144.466 50.4858L133.304 44.0407C131.678 43.1011 130.096 42.1896 128.147 42.3457C126.454 42.6271 124.848 43.2914 123.451 44.2878C111.323 51.2904 99.1967 58.2908 87.0722 65.289L65.1226 77.9604C61.9797 79.7725 58.0359 81.3104 57.5579 85.381C57.4989 85.9885 57.4761 86.5991 57.4897 87.2093V127.033L58.5637 125.162L11.4772 152.34L4.73835 156.232C2.13731 157.737 0.135591 159.484 0.0163769 162.727C-0.0204712 163.756 0.0163769 164.793 0.0163769 165.821V274.656C0.0163769 277.271 0.341507 279.749 2.6857 281.477C4.83031 282.9 7.0514 284.205 9.33895 285.385L16.1483 289.319L29.7712 297.186C38.8532 302.431 47.9355 307.677 57.0182 312.921L70.8904 320.929L77.703 324.862C79.8196 326.084 82.0565 327.815 84.4029 328.539C88.0292 329.657 91.6218 326.75 94.6293 325.014L118.239 311.38L153.879 290.805L197.078 265.865L243.372 239.141L266.282 225.91C268.108 224.855 270.19 223.952 271.35 222.098C271.975 221.047 272.312 219.848 272.325 218.625C272.339 218.237 272.325 217.846 272.325 217.456V105.712C272.394 104.249 272.011 102.8 271.228 101.562C269.891 99.5946 267.466 98.6084 265.467 97.4542C256.435 92.242 247.404 87.0287 238.373 81.8143L211.287 66.1712L197.74 58.3486L190.966 54.4373C188.846 53.2126 186.848 52.1386 184.329 52.8062C182.984 53.2846 181.705 53.9352 180.527 54.7418L176.469 57.0849L165.089 63.659C162.675 65.0549 164.855 68.8015 167.277 67.4024L167.274 67.4013Z" fill="#211715"/>
<path d="M182.976 317.535L190.555 313.16V268.725L183.411 264.602L175.832 268.977V313.417L182.976 317.54" fill="white"/>
<path d="M244.871 281.897L252.45 277.521V233.078L245.305 228.953L237.727 233.328V277.773L244.871 281.897Z" fill="white"/>
<path d="M173.665 270.611V312.336C173.587 312.79 173.603 313.255 173.712 313.703C173.821 314.15 174.022 314.57 174.301 314.937C174.94 315.452 175.641 315.886 176.387 316.229C178.273 317.319 180.101 318.604 182.328 318.822C184.685 319.052 186.591 317.948 188.537 316.823L191.048 315.371C191.57 315.133 192.009 314.744 192.307 314.253C192.605 313.762 192.748 313.193 192.718 312.62C192.862 308.348 192.718 304.045 192.718 299.77V270.86C192.718 268.07 188.383 268.066 188.383 270.86V313.165L189.457 311.293L186.685 312.895C185.715 313.613 184.629 314.158 183.474 314.506C182.12 314.715 181.034 313.917 179.929 313.278L176.928 311.544L178.001 313.415V270.617C178.001 267.828 173.665 267.823 173.665 270.617V270.611Z" fill="#211715"/>
<path d="M235.559 243.624V275.378C235.559 276.152 235.514 276.941 235.559 277.714C235.676 279.681 238.259 280.57 239.742 281.428C240.695 282.051 241.721 282.554 242.797 282.927C244.797 283.465 246.929 283.192 248.729 282.168C250.355 281.291 251.945 280.311 253.55 279.386C253.876 279.194 254.146 278.92 254.334 278.592C254.522 278.264 254.622 277.892 254.623 277.514V235.117C254.623 232.328 250.288 232.323 250.288 235.117V277.514L251.362 275.643L248.582 277.247C247.611 277.965 246.524 278.509 245.367 278.856C244.014 279.065 242.929 278.266 241.823 277.628L238.821 275.894L239.894 277.766V243.627C239.894 240.837 235.559 240.833 235.559 243.627V243.624Z" fill="#211715"/>
<path d="M142.911 251.621L142.18 251.2C142.18 248.328 142.18 244.757 142.18 241.974C166.424 227.977 190.67 213.975 214.92 199.969L254.672 222.919V233.843C230.915 247.553 207.159 261.266 183.403 274.983L182.686 274.569C173.467 269.245 147.837 254.461 142.911 251.621Z" fill="white"/>
<path d="M144.349 249.942C144.349 248.816 144.349 247.69 144.349 246.564V244.861C144.274 244.32 144.274 243.77 144.349 243.229C144.54 242.939 145.244 242.708 145.534 242.54L147.169 241.596L150.672 239.576L164.458 231.613L192.035 215.687L205.823 207.725L212.598 203.812C213.308 203.263 214.087 202.809 214.915 202.463C215.27 202.434 216.451 203.35 216.771 203.535L218.627 204.606L246.003 220.411L249.255 222.286L250.88 223.224C251.304 223.469 252.267 223.775 252.512 224.17C252.593 224.691 252.593 225.222 252.512 225.743V229.572C252.634 230.516 252.634 231.472 252.512 232.416C252.39 232.809 252.935 232.34 252.033 232.865C250.862 233.546 249.687 234.219 248.514 234.896L241.712 238.822L227.87 246.812L200.186 262.79L186.345 270.779C185.534 271.409 184.605 271.872 183.614 272.141C182.871 272.124 182.153 271.868 181.567 271.411L178.265 269.506C167.529 263.312 156.792 257.119 146.054 250.926C145.837 250.799 144.365 250.127 144.349 249.942C144.109 247.185 139.771 247.159 140.014 249.942C140.295 253.164 143.133 254.245 145.592 255.664L153.504 260.226L172.637 271.263C175.142 272.709 177.615 274.254 180.171 275.61C181.251 276.186 182.464 276.464 183.687 276.416C184.91 276.367 186.098 275.994 187.129 275.335C189.643 273.914 192.134 272.446 194.635 270.999C204.567 265.267 214.497 259.534 224.428 253.8C234.356 248.069 244.369 242.466 254.222 236.603C255.014 236.203 255.679 235.59 256.143 234.833C256.607 234.076 256.851 233.205 256.847 232.318C256.872 231.227 256.847 230.133 256.847 229.041C256.847 226.821 257.389 223.61 256.047 221.672C255.229 220.726 254.211 219.974 253.066 219.471L249.122 217.195L241.931 213.042L227.083 204.47L219.891 200.317C217.591 198.99 215.431 197.341 212.752 198.71C210.2 200.011 207.756 201.595 205.274 203.028L197.796 207.345L168.116 224.486L153.16 233.123L145.682 237.442C143.623 238.634 140.714 239.669 140.131 242.254C139.958 243.517 139.921 244.796 140.023 246.067C140.023 247.357 140.023 248.646 140.023 249.935C140.011 252.731 144.346 252.736 144.349 249.942Z" fill="#211715"/>
<path d="M156.304 249.98L173.918 260.149C176.85 261.842 179.751 263.617 182.725 265.233C183.063 265.486 183.457 265.652 183.874 265.718C184.291 265.783 184.718 265.747 185.117 265.61C185.855 265.274 186.565 264.878 187.239 264.426L191.899 261.737L226.832 241.569L246.863 230.004C249.279 228.609 247.099 224.862 244.675 226.261L196.927 253.829L183.186 261.761H185.374L158.49 246.24C156.07 244.842 153.884 248.587 156.302 249.983L156.304 249.98Z" fill="#211715"/>
<path d="M146.368 293.906V252.367C146.368 249.578 142.033 249.573 142.033 252.367V293.908C142.033 296.698 146.368 296.702 146.368 293.908V293.906Z" fill="#211715"/>
<path d="M293.681 219.648C293.681 223.738 293.708 229.111 293.708 232.359C293.708 234.248 291.084 235.827 287.812 235.827C284.54 235.827 281.863 234.245 281.863 232.359C281.863 229.083 281.837 223.673 281.837 219.57" fill="white"/>
<path d="M291.514 219.65C291.514 222.408 291.52 225.166 291.532 227.924C291.532 229.129 291.535 230.335 291.541 231.542C291.541 231.812 291.526 232.09 291.541 232.36C291.55 232.53 291.442 232.671 291.561 232.262C291.505 232.457 291.476 232.355 291.561 232.311C291.724 232.232 291.58 232.279 291.488 232.425C291.362 232.627 291.557 232.361 291.573 232.342C291.496 232.437 291.402 232.516 291.324 232.61C290.992 233.013 291.48 232.53 291.235 232.707C290.388 233.292 289.39 233.619 288.361 233.649C288.036 233.665 287.711 233.665 287.386 233.649C287.132 233.64 286.878 233.617 286.627 233.579C286.334 233.528 286.045 233.461 285.76 233.378C285.604 233.333 285.451 233.281 285.298 233.229C284.993 233.121 285.231 233.214 285.073 233.134C284.847 233.019 284.639 232.891 284.423 232.76C284.349 232.714 284.123 232.497 284.382 232.735C284.29 232.649 284.204 232.557 284.11 232.473C284.076 232.441 283.909 232.207 284.052 232.414C284.208 232.64 284.01 232.333 283.986 232.272C283.888 232.03 284.041 232.412 284.041 232.412C284.06 231.87 283.986 232.907 284.016 232.355C284.08 231.219 284.016 230.06 284.016 228.923C284.009 225.805 284.002 222.687 283.996 219.57C283.996 216.781 279.661 216.776 279.661 219.57C279.661 222.729 279.667 225.889 279.681 229.05C279.578 230.45 279.615 231.858 279.789 233.251C279.979 233.959 280.309 234.621 280.76 235.198C281.211 235.775 281.774 236.256 282.415 236.61C283.887 237.433 285.528 237.906 287.211 237.995C288.895 238.084 290.576 237.786 292.126 237.123C293.485 236.61 294.624 235.641 295.349 234.381C295.853 233.039 296.03 231.597 295.864 230.173C295.856 226.661 295.84 223.15 295.839 219.639C295.839 216.849 291.504 216.845 291.504 219.639L291.514 219.65Z" fill="#211715"/>
<path d="M291.443 179.276C290.47 178.525 289.276 178.117 288.047 178.117C286.818 178.117 285.624 178.525 284.652 179.276C279.952 182.955 276.315 187.817 274.115 193.365C273.427 195.038 272.908 196.776 272.565 198.552C272.287 200.25 272.11 201.963 272.036 203.682C271.844 206.709 271.668 209.846 272.761 212.677C273.735 215.146 275.574 217.177 277.936 218.389C280.274 219.582 285.43 220.222 288.049 220.222C290.025 220.222 295.824 219.587 298.163 218.389C300.524 217.176 302.364 215.146 303.339 212.677C304.43 209.848 304.255 206.716 304.063 203.682C303.988 201.963 303.812 200.25 303.534 198.552C303.191 196.776 302.671 195.038 301.983 193.365C299.782 187.817 296.144 182.954 291.443 179.276Z" fill="#74C66D"/>
<path d="M292.536 177.404C291.64 176.767 290.62 176.327 289.542 176.112C288.464 175.897 287.353 175.912 286.282 176.156C284.114 176.657 282.386 178.229 280.807 179.711C277.664 182.68 275.09 186.198 273.21 190.092C272.187 192.153 271.376 194.313 270.79 196.537C270.237 199.045 269.918 201.599 269.838 204.166C269.556 208.869 269.864 213.477 273.022 217.225C275.603 220.29 279.248 221.417 283.075 221.964C286.369 222.437 289.714 222.425 293.005 221.929C296.718 221.396 300.191 220.412 302.804 217.538C306.08 213.933 306.552 209.318 306.289 204.641C306.222 201.748 305.852 198.87 305.184 196.055C303.124 188.826 298.856 182.422 292.975 177.739C292.56 177.35 292.012 177.132 291.442 177.132C290.873 177.132 290.325 177.35 289.91 177.739C289.507 178.148 289.281 178.699 289.281 179.272C289.281 179.846 289.507 180.397 289.91 180.805C295.905 185.38 300.022 191.987 301.487 199.384C301.792 201.445 301.964 203.524 302.003 205.606C302.168 207.562 301.991 209.531 301.481 211.425C301.018 212.834 300.197 214.099 299.098 215.096C298 216.093 296.661 216.787 295.214 217.112C292.74 217.753 290.192 218.068 287.636 218.049C284.786 218.097 281.951 217.619 279.273 216.64C277.736 215.902 276.436 214.747 275.521 213.308C274.606 211.869 274.113 210.203 274.096 208.498C273.802 204.378 274.234 200.239 275.373 196.269C276.624 192.303 278.65 188.625 281.334 185.449C283.464 182.94 286.82 178.637 290.348 181.148C290.845 181.434 291.435 181.512 291.99 181.367C292.545 181.221 293.021 180.864 293.314 180.371C293.592 179.871 293.667 179.284 293.522 178.731C293.377 178.178 293.024 177.702 292.536 177.404Z" fill="#211715"/>
<path d="M114.446 322.773C114.446 326.863 114.473 332.236 114.473 335.484C114.473 337.372 111.848 338.952 108.576 338.952C105.304 338.952 102.628 337.368 102.628 335.484C102.628 332.208 102.602 326.798 102.602 322.695" fill="white"/>
<path d="M112.278 322.776C112.278 325.533 112.284 328.291 112.296 331.049C112.296 332.255 112.299 333.461 112.305 334.667C112.305 334.938 112.289 335.215 112.305 335.486C112.315 335.656 112.206 335.797 112.326 335.387C112.269 335.583 112.24 335.481 112.326 335.436C112.488 335.358 112.344 335.404 112.252 335.551C112.126 335.752 112.321 335.487 112.337 335.468C112.261 335.563 112.166 335.642 112.088 335.736C111.757 336.138 112.244 335.655 111.999 335.832C111.152 336.417 110.154 336.744 109.125 336.775C108.8 336.792 108.475 336.793 108.15 336.775C107.896 336.766 107.643 336.743 107.391 336.705C107.099 336.654 106.809 336.587 106.524 336.504C106.368 336.458 106.215 336.407 106.062 336.355C105.757 336.247 105.995 336.34 105.837 336.259C105.612 336.15 105.398 336.017 105.187 335.885C105.113 335.839 104.888 335.623 105.147 335.86C105.055 335.775 104.968 335.682 104.875 335.598C104.84 335.567 104.673 335.333 104.816 335.54C104.972 335.766 104.774 335.459 104.75 335.398C104.652 335.155 104.805 335.538 104.805 335.538C104.824 334.996 104.749 336.033 104.78 335.481C104.844 334.345 104.78 333.186 104.775 332.049C104.768 328.932 104.761 325.814 104.754 322.695C104.754 319.906 100.419 319.901 100.419 322.695C100.419 325.856 100.426 329.016 100.44 332.176C100.337 333.577 100.373 334.984 100.548 336.377C100.738 337.085 101.068 337.747 101.52 338.324C101.971 338.901 102.534 339.382 103.175 339.737C104.647 340.559 106.287 341.033 107.971 341.122C109.654 341.211 111.336 340.913 112.886 340.25C114.245 339.737 115.384 338.768 116.109 337.508C116.613 336.166 116.79 334.723 116.624 333.299C116.616 329.788 116.6 326.277 116.599 322.766C116.599 319.976 112.264 319.972 112.264 322.766L112.278 322.776Z" fill="#211715"/>
<path d="M112.209 282.401C111.237 281.65 110.043 281.242 108.814 281.242C107.585 281.242 106.391 281.65 105.418 282.401C100.718 286.08 97.082 290.942 94.8819 296.49C94.1937 298.163 93.6742 299.901 93.331 301.677C93.0533 303.375 92.8767 305.088 92.8021 306.807C92.6103 309.832 92.4347 312.971 93.5272 315.802C94.5011 318.271 96.3406 320.301 98.7022 321.513C101.041 322.712 106.196 323.347 108.816 323.347C110.792 323.347 116.591 322.712 118.93 321.513C121.291 320.301 123.131 318.271 124.105 315.802C125.197 312.973 125.021 309.835 124.83 306.807C124.755 305.088 124.578 303.375 124.301 301.677C123.958 299.901 123.438 298.163 122.75 296.49C120.549 290.942 116.911 286.079 112.209 282.401Z" fill="#74C66D"/>
<path d="M113.303 280.529C112.407 279.892 111.387 279.452 110.309 279.237C109.231 279.022 108.12 279.037 107.048 279.281C104.881 279.782 103.153 281.355 101.574 282.837C98.4311 285.806 95.8565 289.323 93.9768 293.217C92.9536 295.278 92.1427 297.438 91.5568 299.663C91.0033 302.171 90.6844 304.725 90.6041 307.292C90.3224 311.994 90.6302 316.603 93.7883 320.351C96.3698 323.415 100.015 324.543 103.841 325.09C107.135 325.562 110.481 325.55 113.772 325.054C117.485 324.522 120.957 323.536 123.57 320.663C126.846 317.059 127.319 312.443 127.056 307.772C126.988 304.879 126.618 302.002 125.95 299.186C123.892 291.957 119.623 285.552 113.741 280.871C113.327 280.481 112.779 280.263 112.209 280.263C111.64 280.263 111.091 280.481 110.677 280.871C110.273 281.279 110.047 281.829 110.047 282.403C110.047 282.977 110.273 283.528 110.677 283.936C116.669 288.511 120.784 295.118 122.249 302.514C122.554 304.574 122.727 306.653 122.765 308.735C122.93 310.69 122.754 312.659 122.244 314.553C121.781 315.962 120.959 317.227 119.861 318.224C118.762 319.221 117.424 319.915 115.976 320.24C113.502 320.882 110.955 321.198 108.399 321.178C105.547 321.225 102.712 320.745 100.035 319.764C98.498 319.026 97.1984 317.872 96.2834 316.433C95.3684 314.994 94.8746 313.328 94.8579 311.623C94.5643 307.502 94.9968 303.363 96.1357 299.392C97.3863 295.427 99.4124 291.75 102.096 288.574C104.226 286.065 107.582 281.76 111.11 284.273C111.608 284.558 112.198 284.637 112.753 284.491C113.308 284.346 113.783 283.988 114.076 283.495C114.355 282.996 114.43 282.409 114.285 281.856C114.141 281.304 113.789 280.828 113.303 280.529Z" fill="#211715"/>
<path d="M308.862 269.125C309.027 269.158 309.187 269.211 309.345 269.25C309.527 269.293 308.912 269.025 309.345 269.259C309.402 269.29 309.766 269.465 309.764 269.524L309.547 269.363C309.62 269.424 309.691 269.488 309.764 269.554C309.872 269.655 309.963 269.766 310.064 269.87C310.399 270.219 309.821 269.485 310.084 269.894C310.248 270.139 310.399 270.392 310.536 270.652C310.58 270.739 310.623 270.827 310.663 270.916C310.561 270.668 310.542 270.622 310.604 270.779C310.664 270.947 310.73 271.113 310.788 271.283C310.912 271.65 311.018 272.023 311.12 272.397C311.314 273.119 311.488 273.846 311.725 274.556C311.951 275.243 312.322 275.874 312.813 276.405C313.303 276.937 313.902 277.357 314.569 277.638C315.886 278.187 317.235 278.658 318.608 279.047C319.163 279.195 319.753 279.119 320.252 278.835C320.751 278.551 321.118 278.082 321.274 277.53C321.414 276.976 321.335 276.388 321.052 275.891C320.769 275.395 320.305 275.026 319.757 274.864C319.114 274.658 318.465 274.469 317.822 274.262C317.534 274.169 317.247 274.073 316.963 273.967C316.902 273.945 316.591 273.876 316.558 273.809C316.858 273.938 316.902 273.954 316.691 273.86L316.568 273.802C316.318 273.68 316.097 273.512 315.852 273.387C315.717 273.289 315.786 273.342 316.058 273.546C316.001 273.497 315.95 273.447 315.892 273.394L315.816 273.314C315.672 273.146 315.719 273.206 315.958 273.501C315.929 273.459 315.902 273.414 315.878 273.368C315.798 273.217 315.834 273.311 315.986 273.651C315.944 273.477 315.887 273.306 315.816 273.141C315.699 272.77 315.6 272.395 315.5 272.019C315.198 270.518 314.644 269.079 313.862 267.763C312.998 266.354 311.615 265.342 310.011 264.945C309.736 264.869 309.449 264.849 309.167 264.884C308.884 264.919 308.612 265.009 308.364 265.15C308.116 265.291 307.899 265.479 307.724 265.703C307.549 265.928 307.42 266.185 307.345 266.459C307.269 266.734 307.248 267.02 307.283 267.303C307.318 267.585 307.409 267.858 307.549 268.106C307.69 268.353 307.878 268.571 308.103 268.746C308.327 268.921 308.584 269.05 308.859 269.125H308.862Z" fill="#211715"/>
<path d="M293.619 267.057C289.337 270.828 286.593 276.043 285.91 281.707C285.532 284.271 286.069 286.885 287.427 289.092C288.271 290.314 289.458 291.257 290.839 291.803C292.22 292.349 293.732 292.472 295.183 292.157C295.735 292 296.203 291.633 296.487 291.134C296.77 290.636 296.847 290.046 296.7 289.491C296.538 288.943 296.169 288.478 295.672 288.195C295.175 287.913 294.588 287.833 294.034 287.974C290.046 288.725 289.896 283.236 290.432 280.719C291.32 276.604 293.514 272.885 296.687 270.119C297.082 269.71 297.3 269.162 297.295 268.594C297.29 268.026 297.062 267.482 296.66 267.08C296.259 266.678 295.715 266.45 295.147 266.445C294.578 266.44 294.031 266.659 293.622 267.054L293.619 267.057Z" fill="#211715"/>
<path d="M295.002 280.988C294.954 282.046 295.011 283.107 295.174 284.154C295.162 284.443 295.226 284.731 295.362 284.988C295.448 285.256 295.602 285.496 295.809 285.686C296.011 285.887 296.25 286.047 296.513 286.156C296.776 286.265 297.058 286.321 297.342 286.321C297.627 286.321 297.909 286.265 298.172 286.156C298.435 286.047 298.674 285.887 298.875 285.686L299.213 285.247C299.408 284.916 299.51 284.538 299.509 284.154C299.346 283.107 299.289 282.046 299.337 280.988C299.312 280.418 299.087 279.876 298.702 279.455C298.501 279.254 298.262 279.094 297.999 278.985C297.735 278.876 297.454 278.82 297.169 278.82C296.884 278.82 296.602 278.876 296.339 278.985C296.076 279.094 295.837 279.254 295.636 279.455L295.298 279.894C295.103 280.226 295.001 280.604 295.002 280.988Z" fill="#211715"/>
<path d="M308.795 282.085C308.743 286.491 308.795 290.898 308.809 295.307C308.82 299.317 308.974 303.378 308.762 307.39L310.354 305.3C307.897 305.95 305.363 306.27 302.82 306.25C299.593 306.493 296.35 306.434 293.134 306.073L294.727 308.164C294.553 302.513 294.459 296.858 294.211 291.211C294.088 288.432 289.753 288.417 289.876 291.211C290.124 296.858 290.218 302.513 290.391 308.164C290.396 308.637 290.553 309.096 290.84 309.473C291.126 309.85 291.527 310.123 291.982 310.253C295.576 310.708 299.205 310.819 302.82 310.585C305.751 310.598 308.672 310.227 311.506 309.481C311.957 309.343 312.354 309.067 312.639 308.692C312.925 308.317 313.085 307.861 313.097 307.39C313.309 303.38 313.155 299.323 313.144 295.307C313.133 290.902 313.078 286.494 313.13 282.085C313.164 279.296 308.829 279.293 308.795 282.085Z" fill="#211715"/>
<path d="M291.936 308.335C291.956 313.183 292.134 318.028 292.324 322.872C292.33 323.344 292.489 323.802 292.775 324.179C293.061 324.555 293.461 324.83 293.914 324.962C295.253 325.218 296.617 325.316 297.978 325.253C299.402 325.245 300.823 325.105 302.222 324.833C302.496 324.758 302.753 324.628 302.978 324.453C303.202 324.278 303.39 324.061 303.531 323.813C303.672 323.566 303.762 323.293 303.797 323.01C303.832 322.727 303.811 322.441 303.736 322.166C303.66 321.892 303.531 321.635 303.356 321.41C303.181 321.185 302.963 320.997 302.716 320.857C302.468 320.716 302.195 320.626 301.912 320.591C301.63 320.555 301.343 320.576 301.068 320.652C300.828 320.703 300.586 320.744 300.343 320.781C300.64 320.736 300.587 320.752 300.323 320.781L299.863 320.825C299.236 320.879 298.606 320.909 297.978 320.922C297.349 320.935 296.745 320.931 296.13 320.899C295.849 320.885 295.569 320.859 295.29 320.835C294.959 320.807 295.353 320.883 295.433 320.857C295.308 320.85 295.186 320.827 295.068 320.786L296.659 322.876C296.469 318.033 296.291 313.187 296.271 308.339C296.271 307.765 296.042 307.213 295.636 306.807C295.229 306.4 294.678 306.172 294.103 306.172C293.528 306.172 292.977 306.4 292.57 306.807C292.164 307.213 291.936 307.765 291.936 308.339V308.335Z" fill="#211715"/>
<path d="M304.879 322.312C304.787 318.015 304.58 313.722 304.493 309.425C304.493 308.85 304.265 308.299 303.858 307.893C303.452 307.486 302.901 307.258 302.326 307.258C301.751 307.258 301.2 307.486 300.793 307.893C300.387 308.299 300.158 308.85 300.158 309.425C300.245 313.722 300.452 318.015 300.544 322.312C300.544 322.887 300.772 323.439 301.179 323.845C301.585 324.252 302.137 324.48 302.712 324.48C303.286 324.48 303.838 324.252 304.244 323.845C304.651 323.439 304.879 322.887 304.879 322.312Z" fill="#211715"/>
<path d="M307.363 308.406C307.501 312.507 307.602 316.611 307.751 320.71L308.825 318.839C309.604 318.514 309.098 318.712 308.878 318.764C308.658 318.816 308.452 318.852 308.237 318.887C308.122 318.886 308.006 318.903 307.896 318.937C308.144 318.773 308.251 318.895 307.951 318.926C307.651 318.956 307.367 318.986 307.074 319.01C306.533 319.053 305.996 319.083 305.456 319.09C305.191 319.09 304.925 319.09 304.66 319.083C304.45 319.075 303.678 318.98 304.478 319.095C303.924 318.958 303.338 319.039 302.842 319.321C302.346 319.603 301.977 320.065 301.812 320.612C301.665 321.166 301.742 321.756 302.026 322.255C302.31 322.753 302.778 323.12 303.329 323.278C304.626 323.448 305.939 323.467 307.24 323.335C308.531 323.287 309.805 323.034 311.016 322.585C311.347 322.399 311.622 322.127 311.811 321.798C312 321.468 312.096 321.094 312.089 320.714C311.941 316.614 311.84 312.511 311.701 308.41C311.701 307.835 311.473 307.284 311.066 306.877C310.66 306.471 310.108 306.242 309.534 306.242C308.959 306.242 308.407 306.471 308.001 306.877C307.594 307.284 307.366 307.835 307.366 308.41L307.363 308.406Z" fill="#211715"/>
<path d="M358.257 321.939C355.986 323.678 354.296 326.065 353.411 328.785C352.748 331.053 352.202 333.354 351.775 335.678C351.622 336.232 351.696 336.824 351.98 337.324C352.264 337.825 352.735 338.191 353.289 338.344C353.843 338.497 354.436 338.424 354.936 338.14C355.436 337.856 355.803 337.385 355.955 336.831C356.379 334.608 356.881 332.387 357.51 330.213C357.628 329.807 357.759 329.406 357.894 329.005C358.057 328.523 357.641 329.519 357.92 328.945C358.058 328.664 358.211 328.389 358.379 328.124C358.487 327.956 358.595 327.799 358.704 327.631C358.782 327.516 358.869 327.399 358.732 327.577C358.972 327.264 359.236 326.967 359.505 326.68C360.072 326.082 360.679 325.523 361.32 325.005C361.725 324.597 361.952 324.046 361.952 323.472C361.952 322.897 361.725 322.346 361.32 321.939C360.906 321.547 360.358 321.328 359.788 321.328C359.218 321.328 358.669 321.547 358.255 321.939H358.257Z" fill="#211715"/>
<path d="M299.716 250.055C302.699 249.264 306.864 250.272 308.495 253.074C310.126 255.877 310.781 260.075 308.771 262.85C306.985 265.317 303.578 266.164 300.666 265.776C299.111 265.54 297.678 264.798 296.587 263.665C295.496 262.532 294.809 261.071 294.633 259.509C294.225 257.507 294.471 255.428 295.333 253.576C296.339 251.928 297.889 250.681 299.714 250.051C302.372 249.229 301.238 245.042 298.562 245.87C296.115 246.682 293.967 248.211 292.399 250.258C290.76 252.521 289.977 255.291 290.188 258.077C290.164 260.607 290.875 263.09 292.234 265.224C293.611 267.162 295.536 268.643 297.761 269.478C300.039 270.272 302.49 270.431 304.851 269.938C307.213 269.445 309.395 268.319 311.165 266.68C314.968 262.887 314.959 257.034 312.958 252.356C311.94 249.837 309.971 247.82 307.477 246.742C304.689 245.458 301.549 245.153 298.566 245.875C295.869 246.59 297.012 250.773 299.716 250.055Z" fill="#211715"/>
<path d="M306.191 250.726C306.114 250.826 306.044 250.931 305.98 251.039C305.872 251.256 306.249 250.734 305.987 251.032C305.807 251.237 305.631 251.442 305.445 251.636C305.259 251.83 305.035 252.033 304.82 252.222C304.711 252.319 304.595 252.415 304.48 252.509C304.336 252.627 304.176 252.746 304.417 252.565C303.357 253.347 302.238 254.045 301.069 254.651C300.454 254.976 299.831 255.284 299.2 255.575C298.884 255.72 298.566 255.864 298.246 256.009L297.863 256.174C297.253 256.438 298.063 256.093 297.712 256.238C296.474 256.75 295.22 257.22 293.954 257.661C293.679 257.737 293.423 257.866 293.198 258.041C292.973 258.216 292.785 258.434 292.645 258.681C292.504 258.929 292.414 259.202 292.379 259.484C292.344 259.767 292.365 260.053 292.44 260.328C292.516 260.602 292.645 260.859 292.82 261.084C292.995 261.308 293.213 261.496 293.46 261.637C293.708 261.777 293.981 261.868 294.263 261.903C294.546 261.938 294.833 261.917 295.107 261.841C297.973 260.881 300.759 259.696 303.439 258.299C306.023 257.077 308.259 255.227 309.942 252.917C310.227 252.419 310.305 251.829 310.16 251.275C310.014 250.72 309.656 250.245 309.163 249.951C308.664 249.674 308.077 249.599 307.525 249.744C306.972 249.889 306.497 250.242 306.198 250.728L306.191 250.726Z" fill="#211715"/>
<path d="M310.805 285.822C313.606 286.573 316.579 286.359 319.244 285.216C319.738 284.923 320.097 284.448 320.242 283.893C320.388 283.338 320.308 282.747 320.021 282.25C319.722 281.765 319.246 281.413 318.694 281.268C318.142 281.123 317.556 281.196 317.056 281.472C316.981 281.509 316.906 281.544 316.829 281.581L317.348 281.364C316.706 281.622 316.032 281.794 315.345 281.874L315.921 281.797C314.805 281.933 313.677 281.929 312.562 281.784L313.137 281.861C312.743 281.808 312.351 281.738 311.962 281.645C311.688 281.569 311.401 281.548 311.118 281.583C310.836 281.619 310.563 281.709 310.315 281.85C309.815 282.134 309.448 282.605 309.296 283.159C309.143 283.714 309.217 284.306 309.501 284.806C309.785 285.306 310.256 285.673 310.81 285.826L310.805 285.822Z" fill="#211715"/>
<path d="M301.153 292.707C300.612 293.062 300.017 293.327 299.391 293.492C298.576 293.661 297.729 293.578 296.963 293.253C296.265 293.046 295.616 292.701 295.054 292.237C294.492 291.774 294.029 291.202 293.693 290.556C293.399 289.826 293.347 289.021 293.544 288.259C293.74 287.497 294.175 286.818 294.785 286.32C296.379 285.541 298.188 285.314 299.925 285.675C300.709 285.803 301.429 286.188 301.97 286.77C302.511 287.352 302.843 288.097 302.913 288.889C302.926 289.943 302.627 290.977 302.055 291.862C301.803 292.192 301.498 292.477 301.153 292.707Z" fill="white"/>
<path d="M325.914 281.252C326.095 280.025 325.927 278.772 325.429 277.636C324.93 276.501 324.122 275.529 323.096 274.832C320.495 273.448 317.198 274.348 316.546 277.007C316.206 278.423 316.379 279.914 317.034 281.215C318.7 284.307 325.007 285.652 325.914 281.252Z" fill="white"/>
<path d="M300.059 290.842C299.878 290.961 299.691 291.069 299.498 291.167C299.404 291.22 299.305 291.267 299.203 291.306C299.672 291.153 299.368 291.234 299.27 291.264C299.171 291.295 298.743 291.497 298.655 291.444C298.721 291.486 299.067 291.43 298.744 291.424C298.724 291.424 298.249 291.415 298.252 291.404C298.265 291.361 298.787 291.528 298.338 291.404C298.229 291.374 298.121 291.352 298.012 291.323C297.808 291.266 297.609 291.193 297.409 291.122C297.129 291.025 297.488 291.065 297.545 291.186C297.466 291.14 297.382 291.102 297.295 291.071C297.109 290.983 296.926 290.884 296.753 290.779C296.595 290.685 296.446 290.579 296.294 290.478C296.057 290.323 296.619 290.758 296.409 290.565C296.344 290.505 296.273 290.448 296.207 290.387C296.076 290.232 295.937 290.085 295.792 289.944C295.84 289.981 296.067 290.365 295.89 290.06C295.834 289.964 295.77 289.872 295.716 289.773C295.466 289.318 295.824 290.165 295.665 289.665C295.641 289.59 295.496 288.974 295.576 289.366C295.645 289.702 295.59 289.422 295.587 289.323C295.584 289.225 295.587 289.147 295.587 289.059C295.587 288.971 295.612 288.664 295.58 289.018C295.547 289.391 295.593 289.003 295.615 288.915C295.637 288.827 295.668 288.745 295.689 288.659C295.771 288.322 295.651 288.75 295.615 288.804C295.713 288.659 295.772 288.479 295.866 288.332C295.92 288.26 295.97 288.185 296.016 288.108C296.054 288.208 295.715 288.455 295.932 288.232C295.994 288.168 296.058 288.103 296.119 288.037C296.255 287.913 296.253 287.913 296.113 288.037C295.972 288.161 295.979 288.171 296.132 288.069L296.197 288.041C296.342 287.974 296.278 288.001 296.007 288.121C296.096 288.082 296.187 288.049 296.281 288.022C296.468 287.958 296.659 287.903 296.851 287.854C297.042 287.805 297.246 287.766 297.444 287.726C297.643 287.686 297.627 287.593 297.325 287.737C297.451 287.704 297.581 287.692 297.711 287.7C298.123 287.668 298.537 287.668 298.95 287.7C299.032 287.706 299.371 287.717 299.043 287.7C298.715 287.683 299.043 287.7 299.131 287.718C299.333 287.754 299.532 287.802 299.728 287.864C299.806 287.901 299.888 287.931 299.973 287.951C299.756 287.977 299.58 287.764 299.814 287.892C299.968 287.974 300.115 288.066 300.268 288.152C300.573 288.325 300.168 288.098 300.144 288.043C300.174 288.113 300.328 288.201 300.388 288.26C300.448 288.32 300.509 288.379 300.568 288.442C300.812 288.707 300.56 288.492 300.509 288.348C300.549 288.422 300.595 288.492 300.647 288.558C300.68 288.612 300.71 288.667 300.737 288.723C300.812 288.871 300.782 288.793 300.647 288.488C300.647 288.562 300.816 289.213 300.761 288.801C300.714 288.443 300.746 288.734 300.748 288.827C300.748 288.935 300.748 289.054 300.738 289.165C300.738 289.259 300.723 289.353 300.715 289.447C300.681 289.938 300.824 288.959 300.715 289.447C300.663 289.664 300.622 289.88 300.557 290.087C300.528 290.181 300.492 290.271 300.463 290.364C300.384 290.616 300.674 289.964 300.481 290.303C300.436 290.381 300.385 290.465 300.344 290.546C300.157 290.919 300.669 290.247 300.335 290.569C300.261 290.64 300.187 290.715 300.118 290.785C299.816 291.096 300.454 290.56 300.065 290.833C299.819 290.977 299.604 291.167 299.432 291.394C299.26 291.621 299.134 291.88 299.062 292.155C298.99 292.43 298.973 292.717 299.011 292.999C299.05 293.281 299.144 293.553 299.287 293.799C299.431 294.045 299.622 294.26 299.849 294.432C300.075 294.604 300.334 294.73 300.609 294.802C300.885 294.874 301.172 294.891 301.454 294.853C301.736 294.814 302.007 294.72 302.253 294.576C303.507 293.744 304.413 292.481 304.799 291.026C305.175 289.825 305.187 288.54 304.834 287.333C303.858 284.685 301.266 283.422 298.571 283.342C297.355 283.299 296.142 283.483 294.994 283.884C294.233 284.11 293.536 284.513 292.961 285.06C292.517 285.513 292.151 286.036 291.877 286.609C291.274 287.79 291.102 289.145 291.39 290.44C291.677 291.735 292.407 292.889 293.453 293.705C294.557 294.63 295.866 295.276 297.272 295.589C298.128 295.757 299.009 295.754 299.864 295.58C300.719 295.405 301.53 295.063 302.252 294.573C302.498 294.429 302.713 294.239 302.885 294.012C303.057 293.785 303.183 293.527 303.255 293.251C303.327 292.976 303.345 292.689 303.306 292.407C303.267 292.125 303.173 291.853 303.03 291.607C302.886 291.362 302.695 291.147 302.469 290.974C302.242 290.802 301.983 290.677 301.708 290.604C301.432 290.532 301.146 290.515 300.863 290.554C300.581 290.592 300.31 290.686 300.064 290.83L300.059 290.842Z" fill="#211715"/>
<path d="M328.003 281.833C328.294 280.089 328.068 278.298 327.353 276.68C326.699 275.176 325.617 273.898 324.243 273.004C322.944 272.236 321.433 271.906 319.933 272.061C318.382 272.17 316.923 272.838 315.828 273.941C313.486 276.485 313.797 280.734 315.874 283.328C316.625 284.185 317.54 284.883 318.566 285.38C319.591 285.877 320.706 286.164 321.844 286.222C323.228 286.363 324.616 285.996 325.749 285.188C326.881 284.38 327.681 283.188 327.998 281.833C328.074 281.559 328.094 281.272 328.059 280.99C328.024 280.707 327.934 280.434 327.793 280.187C327.652 279.939 327.464 279.722 327.24 279.547C327.015 279.372 326.758 279.243 326.484 279.167C326.209 279.092 325.923 279.071 325.64 279.106C325.358 279.141 325.085 279.231 324.837 279.372C324.59 279.513 324.372 279.701 324.197 279.925C324.022 280.15 323.893 280.407 323.818 280.681C323.773 280.885 323.709 281.081 323.65 281.279C323.531 281.652 323.916 280.793 323.717 281.118C323.669 281.196 323.632 281.283 323.585 281.362C323.528 281.432 323.479 281.508 323.437 281.588C323.558 281.199 323.763 281.212 323.558 281.421C323.497 281.482 323.435 281.544 323.378 281.606C323.043 281.96 323.768 281.366 323.486 281.533C323.342 281.62 323.201 281.71 323.053 281.791C322.825 281.918 322.758 281.783 323.262 281.709C323.179 281.731 323.099 281.759 323.02 281.792C322.881 281.834 322.742 281.862 322.602 281.9C322.372 281.955 322.216 281.852 322.832 281.877C322.716 281.877 322.592 281.898 322.476 281.904C322.296 281.913 322.115 281.913 321.934 281.904C321.842 281.904 321.751 281.886 321.659 281.881C321.271 281.859 322.25 281.982 321.867 281.908C321.464 281.835 321.067 281.729 320.68 281.593C320.591 281.56 320.504 281.522 320.415 281.484C321.079 281.728 320.74 281.623 320.585 281.548C320.43 281.473 320.302 281.407 320.164 281.331C320.002 281.24 319.843 281.14 319.688 281.033C319.615 280.975 319.54 280.921 319.462 280.871C320.03 281.182 319.721 281.074 319.548 280.919C319.413 280.799 319.285 280.673 319.164 280.539C319.111 280.469 319.053 280.402 318.992 280.339C319.395 280.67 319.254 280.708 319.122 280.498C319.013 280.335 318.925 280.173 318.831 280.006C318.592 279.572 318.968 280.466 318.819 279.986C318.761 279.796 318.695 279.609 318.646 279.415C318.616 279.293 318.598 279.167 318.567 279.046C318.488 278.734 318.603 279.598 318.567 279.096C318.542 278.793 318.533 278.49 318.541 278.186C318.531 278.036 318.543 277.886 318.576 277.739L318.539 278.023C318.554 277.926 318.572 277.831 318.593 277.737C318.62 277.611 318.652 277.487 318.691 277.366C318.864 276.815 318.508 277.657 318.691 277.349C318.747 277.251 318.799 277.151 318.857 277.056C319 276.832 319.148 276.852 318.779 277.138C318.949 276.998 319.105 276.843 319.248 276.676C318.916 277.065 318.96 276.887 319.164 276.756C319.257 276.696 319.353 276.64 319.45 276.589C319.519 276.56 319.586 276.526 319.651 276.489C319.303 276.631 319.235 276.66 319.444 276.579C319.515 276.553 319.587 276.528 319.66 276.505C319.877 276.437 320.113 276.415 320.332 276.349C319.767 276.521 320 276.391 320.224 276.376C320.342 276.37 320.461 276.367 320.581 276.368C320.7 276.369 320.821 276.38 320.942 276.383C321.392 276.396 320.4 276.275 320.849 276.366C321.135 276.42 321.416 276.492 321.693 276.582L321.812 276.624C322.029 276.707 321.974 276.682 321.648 276.549C321.795 276.644 321.949 276.727 322.11 276.797C321.758 276.472 322.521 277.028 322.11 276.797C322.211 276.89 322.316 276.977 322.415 277.072C322.515 277.168 322.611 277.265 322.703 277.367C322.764 277.434 322.825 277.502 322.884 277.573C323.029 277.752 323.002 277.713 322.8 277.456C322.781 277.488 323.269 278.181 323.315 278.265C323.381 278.386 323.437 278.51 323.5 278.633C323.595 278.85 323.576 278.799 323.443 278.492C323.476 278.578 323.509 278.663 323.538 278.749C323.644 279.05 323.727 279.359 323.786 279.672L323.811 279.807C323.848 280.044 323.841 279.986 323.79 279.636C323.776 279.818 323.787 280 323.822 280.178C323.822 280.315 323.82 280.451 323.816 280.588C323.808 280.742 323.713 281.378 323.816 280.696C323.681 281.261 323.758 281.855 324.032 282.366C324.248 282.735 324.567 283.031 324.949 283.219C325.332 283.407 325.762 283.477 326.185 283.422C326.608 283.367 327.005 283.188 327.327 282.908C327.648 282.628 327.88 282.26 327.994 281.848L328.003 281.833Z" fill="#211715"/>
<path d="M338.1 328.13C336.565 329.016 334.976 329.844 333.481 330.797C332.261 331.576 332.217 332.811 332.289 334.107C332.322 334.573 332.483 335.021 332.755 335.402C333.026 335.782 333.398 336.08 333.828 336.263L344.578 342.47L348.202 344.562C348.535 344.754 348.912 344.854 349.296 344.854C349.68 344.854 350.057 344.754 350.39 344.562L355.13 341.825C357.546 340.43 355.366 336.684 352.942 338.082L348.202 340.82H350.39L337.443 333.342L335.55 332.249L336.624 334.121V332.737L335.55 334.608L340.29 331.871C342.706 330.476 340.526 326.73 338.102 328.128L338.1 328.13Z" fill="#211715"/>
<path d="M380.665 302.476C380.674 302.052 380.685 301.627 380.695 301.201L368.963 299.305L368.245 325.8L370.97 326.543C374.002 326.943 377.059 327.124 380.117 327.085C380.319 318.69 380.467 310.819 380.665 302.476Z" fill="#7ABEE6"/>
<path d="M366.783 299.756L366.133 323.893C366.057 326.684 370.392 326.681 370.468 323.893L371.118 299.756C371.193 296.966 366.858 296.968 366.783 299.756Z" fill="#211715"/>
<path d="M355.702 281.606C356.578 279.736 357.85 278.079 359.43 276.75C360.821 275.56 362.514 274.779 364.321 274.492L378.003 276.134C382.859 278.871 386.758 285.505 386.781 290.64C386.797 293.892 386.541 297.069 384.289 299.068C383.024 300.074 381.624 300.898 380.131 301.517L354.825 291.204L355.702 281.606Z" fill="white"/>
<path d="M352.364 300.438C351.16 300.784 350.041 301.377 349.08 302.181C348.118 302.985 347.335 303.98 346.781 305.104C346.065 306.848 345.789 308.74 345.975 310.615L345.649 313.65L364.794 321.964L368.286 315.197C368.963 312.591 368.745 309.833 367.666 307.366C366.587 304.899 364.71 302.867 362.337 301.595L352.364 300.438Z" fill="#A095C1"/>
<path d="M364.321 272.328C359.674 272.762 355.779 276.455 353.83 280.516C353.687 280.762 353.593 281.033 353.554 281.316C353.516 281.598 353.533 281.885 353.605 282.16C353.677 282.435 353.803 282.694 353.975 282.921C354.147 283.147 354.362 283.338 354.608 283.482C354.854 283.625 355.126 283.719 355.408 283.758C355.69 283.797 355.977 283.779 356.252 283.707C356.527 283.635 356.786 283.509 357.013 283.337C357.239 283.165 357.43 282.95 357.574 282.704C357.982 281.855 358.464 281.044 359.015 280.28C359.287 279.903 358.69 280.668 358.992 280.312C359.062 280.23 359.128 280.146 359.198 280.064C359.352 279.882 359.511 279.704 359.675 279.529C360 279.18 360.344 278.847 360.696 278.525C360.847 278.389 361.004 278.259 361.156 278.123C361.342 277.955 360.722 278.439 361.019 278.231C361.114 278.163 361.21 278.094 361.307 278.028C361.682 277.772 362.072 277.539 362.475 277.33C362.691 277.216 362.942 277.131 363.153 277.005C363.066 277.057 362.743 277.167 363.015 277.065C363.142 277.018 363.269 276.969 363.398 276.924C363.607 276.853 363.82 276.789 364.034 276.736C364.16 276.705 364.284 276.681 364.41 276.655C364.814 276.571 363.891 276.708 364.321 276.668C364.893 276.651 365.438 276.425 365.854 276.032C366.157 275.729 366.363 275.343 366.447 274.923C366.53 274.502 366.487 274.067 366.323 273.671C366.159 273.275 365.882 272.936 365.525 272.698C365.169 272.46 364.75 272.333 364.321 272.332V272.328Z" fill="#211715"/>
<path d="M378.527 301.202C378.319 309.829 378.157 318.458 377.949 327.085L380.116 324.917C377.058 324.958 374.001 324.776 370.969 324.375C370.396 324.379 369.847 324.609 369.441 325.014C369.035 325.42 368.806 325.969 368.802 326.543C368.814 327.114 369.047 327.657 369.451 328.061C369.854 328.465 370.398 328.697 370.969 328.71C374.001 329.112 377.058 329.293 380.116 329.252C380.688 329.241 381.233 329.009 381.637 328.605C382.041 328.201 382.273 327.656 382.284 327.085C382.492 318.458 382.654 309.829 382.863 301.202C382.93 298.411 378.595 298.412 378.527 301.202Z" fill="#211715"/>
<path d="M376.91 278.008C378.8 279.186 380.436 280.731 381.72 282.551C383.005 284.372 383.912 286.431 384.388 288.607C384.82 290.698 384.774 292.86 384.254 294.931C383.576 297.566 381.334 298.568 379.038 299.647C378.546 299.941 378.188 300.417 378.043 300.972C377.897 301.526 377.976 302.116 378.261 302.614C378.56 303.101 379.035 303.453 379.588 303.598C380.14 303.743 380.727 303.669 381.226 303.391C384.28 301.955 386.97 300.268 388.162 296.96C389.07 294.104 389.253 291.067 388.695 288.123C388.149 285.271 387.013 282.565 385.36 280.179C383.707 277.792 381.572 275.777 379.095 274.265C376.679 272.856 374.494 276.603 376.907 278.008H376.91Z" fill="#211715"/>
<path d="M372.321 302.962C371.788 302.451 371.361 301.839 371.067 301.162C370.772 300.485 370.615 299.756 370.604 299.018C370.651 298.109 370.988 297.24 371.565 296.538C372.143 295.835 372.931 295.337 373.814 295.116C374.645 294.92 375.513 294.931 376.339 295.147C377.166 295.363 377.928 295.778 378.557 296.356C379.88 297.528 379.904 300.38 379.277 301.588C378.035 303.979 374.334 304.884 372.321 302.962Z" fill="white"/>
<path d="M373.853 301.426C373.759 301.333 373.664 301.239 373.576 301.141L373.488 301.043C373.342 300.867 373.373 300.913 373.582 301.18C373.476 300.996 373.358 300.818 373.23 300.649C373.188 300.576 373.148 300.503 373.109 300.432L373.051 300.318C372.956 300.11 372.976 300.168 373.116 300.49C373.078 300.252 372.939 299.999 372.879 299.76C372.847 299.633 372.826 299.505 372.796 299.378C372.75 299.174 372.864 299.161 372.815 299.561C372.843 299.332 372.764 299.071 372.775 298.835C372.788 298.527 372.911 298.693 372.744 298.984C372.784 298.867 372.813 298.746 372.831 298.623C372.853 298.548 372.896 298.462 372.909 298.387C372.766 298.712 372.742 298.766 372.838 298.557C372.874 298.481 372.913 298.405 372.955 298.332C372.996 298.258 373.04 298.184 373.086 298.115L373.156 298.007C373.288 297.822 373.252 297.865 373.048 298.136C373.187 298.065 373.373 297.777 373.487 297.666C373.623 297.538 373.93 297.395 373.443 297.677C373.515 297.636 373.582 297.577 373.653 297.532C373.761 297.463 373.869 297.398 373.978 297.339C374.051 297.299 374.126 297.262 374.203 297.231C373.895 297.356 373.818 297.39 373.973 297.334C374.065 297.308 374.629 297.089 374.685 297.157C374.691 297.165 374.117 297.2 374.547 297.178C374.689 297.17 374.83 297.158 374.973 297.156C375.2 297.182 375.429 297.194 375.659 297.193L375.346 297.155C375.435 297.17 375.521 297.187 375.607 297.207C375.734 297.236 375.86 297.271 375.986 297.31C376.103 297.365 376.226 297.409 376.352 297.44C376.027 297.419 375.989 297.269 376.187 297.377C376.386 297.485 376.601 297.594 376.799 297.727C376.879 297.798 376.968 297.86 377.062 297.911L376.826 297.729C376.892 297.783 376.958 297.838 377.022 297.896C377.086 297.955 377.116 297.984 377.161 298.03C377.526 298.412 376.953 297.673 377.126 297.98C377.209 298.126 377.283 298.286 377.37 298.43C377.064 297.925 377.238 298.105 377.306 298.307C377.329 298.375 377.349 298.444 377.369 298.514C377.424 298.708 377.45 298.908 377.5 299.103C377.569 299.381 377.444 298.5 377.473 298.91C377.483 299.039 377.495 299.167 377.5 299.296C377.509 299.495 377.508 299.694 377.5 299.892C377.489 300.109 377.336 300.679 377.514 299.931C377.477 300.086 377.459 300.245 377.418 300.398C377.395 300.484 377.369 300.569 377.342 300.652C377.267 300.881 377.135 300.912 377.439 300.435C377.35 300.573 377.284 300.725 377.192 300.862C377.066 301.052 376.876 301.124 377.282 300.754C377.207 300.821 377.144 300.914 377.074 300.987C376.953 301.113 376.806 301.217 376.689 301.344C377.052 300.951 377.006 301.116 376.833 301.226C376.725 301.293 376.629 301.364 376.522 301.427C376.332 301.535 375.674 301.758 376.374 301.535C376.171 301.6 375.976 301.684 375.769 301.739C375.667 301.766 375.563 301.791 375.459 301.812C375.27 301.851 374.943 301.819 375.617 301.801C375.406 301.801 375.198 301.836 374.987 301.832C374.878 301.832 374.778 301.82 374.673 301.816C374.271 301.801 375.226 301.924 374.836 301.839C374.633 301.791 374.435 301.738 374.235 301.681C373.847 301.572 374.727 301.93 374.369 301.742C374.277 301.695 374.183 301.649 374.093 301.597C374.003 301.545 373.918 301.468 373.828 301.427C374.123 301.662 374.186 301.711 374.015 301.571C373.959 301.525 373.906 301.477 373.854 301.427C373.445 301.032 372.898 300.814 372.33 300.819C371.761 300.824 371.218 301.052 370.816 301.453C370.414 301.855 370.186 302.399 370.181 302.967C370.176 303.536 370.394 304.083 370.789 304.492C371.526 305.113 372.385 305.573 373.31 305.84C374.236 306.107 375.208 306.177 376.162 306.044C377.116 305.911 378.032 305.579 378.849 305.069C379.667 304.558 380.368 303.882 380.906 303.083C381.512 302.107 381.835 300.981 381.837 299.832C381.894 298.557 381.633 297.289 381.079 296.14C380.442 294.977 379.431 294.062 378.209 293.546C376.703 292.855 375.016 292.662 373.394 292.995C371.929 293.326 370.632 294.172 369.739 295.38C369.221 296.029 368.842 296.778 368.624 297.58C368.415 298.504 368.407 299.462 368.6 300.39C368.884 301.951 369.651 303.384 370.795 304.484C370.995 304.691 371.234 304.856 371.498 304.97C371.763 305.084 372.047 305.143 372.335 305.146C372.623 305.148 372.908 305.094 373.175 304.985C373.441 304.876 373.683 304.715 373.886 304.511C374.09 304.308 374.251 304.066 374.36 303.799C374.469 303.533 374.524 303.247 374.521 302.96C374.519 302.672 374.459 302.387 374.345 302.123C374.232 301.859 374.067 301.619 373.86 301.419L373.853 301.426Z" fill="#211715"/>
<path d="M378.628 333.429C378.597 333.654 378.551 333.876 378.49 334.095C378.462 334.196 378.429 334.297 378.394 334.395C378.368 334.471 378.214 334.77 378.352 334.512C378.518 334.204 378.256 334.682 378.244 334.7C378.192 334.797 378.136 334.895 378.078 334.989C378.021 335.084 377.956 335.177 377.896 335.272C377.661 335.646 378.157 335.014 377.831 335.364C377.683 335.525 377.541 335.689 377.38 335.838C377.351 335.865 377.14 336.046 377.14 336.048C377.11 335.978 377.49 335.817 377.205 335.984C377.121 336.033 377.03 336.084 376.948 336.137C376.579 336.378 377.07 336.057 377.072 336.099C376.962 336.148 376.846 336.185 376.727 336.207C376.33 336.304 376.655 336.15 376.781 336.217C376.543 336.192 376.303 336.197 376.067 336.23C375.988 336.23 375.633 336.217 375.95 336.23C376.266 336.243 375.918 336.223 375.835 336.206C375.597 336.16 375.363 336.099 375.134 336.023C375.039 335.978 374.941 335.941 374.84 335.915L375.079 336.013C374.992 335.971 374.905 335.927 374.82 335.879C374.736 335.831 374.663 335.779 374.583 335.734C374.312 335.579 374.67 335.819 374.685 335.818C374.577 335.826 374.335 335.514 374.257 335.437C374.212 335.394 373.852 335.059 373.871 335.019C373.857 335.047 374.145 335.427 373.91 335.062C373.845 334.962 373.778 334.866 373.717 334.764C373.656 334.662 373.392 334.073 373.5 334.383C373.609 334.693 373.414 334.096 373.392 334.025C373.359 333.904 373.338 333.782 373.305 333.663C373.241 333.421 373.187 333.578 373.312 333.787C373.251 333.528 373.24 333.26 373.278 332.996C373.278 332.888 373.29 332.779 373.294 332.666C373.304 332.449 373.211 332.455 373.277 332.732C373.283 332.489 373.333 332.25 373.425 332.025C373.49 331.781 373.575 331.545 373.661 331.309C373.699 331.2 373.737 331.102 373.777 330.999C373.869 330.759 373.847 330.712 373.777 330.977C373.861 330.741 373.973 330.516 374.112 330.307C374.165 330.212 374.22 330.119 374.28 330.027C374.366 329.892 374.455 329.593 374.272 330.006C374.41 329.846 374.557 329.693 374.713 329.55C374.736 329.578 374.261 329.826 374.655 329.606C374.83 329.508 374.999 329.407 375.179 329.317C375.095 329.359 374.804 329.433 375.179 329.326L375.527 329.227C375.983 329.095 375.494 329.206 375.477 329.217C375.593 329.193 375.712 329.186 375.83 329.197C375.951 329.197 376.069 329.206 376.188 329.205C376.738 329.205 375.926 329.12 376.249 329.205C376.505 329.276 376.772 329.341 377.03 329.404C377.531 329.525 376.776 329.252 377.054 329.404C377.179 329.47 377.308 329.527 377.429 329.599C377.528 329.657 377.62 329.72 377.715 329.783C377.307 329.512 377.715 329.809 377.804 329.891C378.075 330.127 377.876 329.944 377.804 329.858C377.911 330.001 378.008 330.152 378.097 330.307C378.156 330.41 378.205 330.515 378.264 330.621C378.52 331.103 378.155 330.233 378.316 330.757C378.401 331.044 378.477 331.328 378.545 331.624C378.568 331.721 378.608 332.047 378.552 331.585C378.575 331.767 378.59 331.95 378.6 332.134C378.628 332.76 378.605 333.387 378.529 334.01C378.529 334.584 378.757 335.136 379.164 335.542C379.57 335.949 380.122 336.177 380.697 336.177C381.266 336.161 381.809 335.928 382.212 335.525C382.615 335.122 382.848 334.579 382.864 334.01C383.204 330.949 382.391 327.351 379.463 325.778C378.002 324.933 376.275 324.668 374.627 325.038C372.979 325.408 371.531 326.384 370.571 327.774C369.823 328.93 369.317 330.226 369.084 331.583C368.805 332.992 368.918 334.45 369.409 335.8C369.893 337.042 370.694 338.136 371.733 338.971C372.951 339.93 374.438 340.484 375.987 340.556C379.338 340.782 382.358 337.819 382.807 334.58C382.94 334.015 382.863 333.421 382.59 332.91C382.375 332.541 382.056 332.244 381.673 332.056C381.29 331.868 380.86 331.797 380.437 331.853C380.014 331.908 379.616 332.087 379.295 332.367C378.973 332.647 378.741 333.016 378.628 333.428V333.429Z" fill="#211715"/>
<path d="M359.798 343.745C357.739 342.558 356.47 340.011 356.47 336.389C356.47 329.143 361.557 320.331 367.833 316.708C370.976 314.896 373.811 314.726 375.868 315.912C377.925 317.099 379.195 319.645 379.195 323.268C379.195 330.514 374.108 339.326 367.833 342.949C364.694 344.761 361.854 344.931 359.798 343.745Z" fill="white"/>
<path d="M360.895 341.873C357.295 339.661 358.647 333.612 359.765 330.392C361.246 325.939 364.068 322.053 367.845 319.266C369.611 318.054 372.18 316.684 374.367 317.578C376.01 318.248 376.721 320.078 376.947 321.722C377.573 326.26 375.58 331.061 373.136 334.772C371.773 336.913 370.025 338.782 367.98 340.285C366.039 341.649 363.232 343.127 360.895 341.873C358.437 340.555 356.244 344.296 358.706 345.616C364.728 348.843 371.408 343.99 375.104 339.379C378.882 334.669 381.799 328.343 381.324 322.173C381.298 320.76 380.981 319.367 380.392 318.081C379.803 316.796 378.955 315.647 377.901 314.705C376.633 313.782 375.144 313.209 373.584 313.042C372.024 312.876 370.448 313.123 369.014 313.759C363.123 316.025 358.756 321.628 356.349 327.284C353.952 332.92 352.514 341.806 358.703 345.616C361.086 347.081 363.267 343.332 360.895 341.873Z" fill="#211715"/>
<path d="M375.363 289.728L374.397 292.569C374.306 292.85 374.293 293.149 374.358 293.436C374.37 293.723 374.459 294.002 374.616 294.243C374.919 294.714 375.377 295.066 375.911 295.239C376.19 295.314 376.481 295.334 376.767 295.297C377.054 295.259 377.33 295.166 377.581 295.022L378.014 294.683C378.28 294.418 378.472 294.088 378.571 293.727L379.538 290.886C379.629 290.606 379.642 290.306 379.577 290.019C379.565 289.733 379.476 289.455 379.32 289.214C379.017 288.741 378.559 288.389 378.025 288.217C377.746 288.141 377.455 288.122 377.168 288.159C376.881 288.196 376.605 288.289 376.354 288.434L375.92 288.773C375.654 289.038 375.462 289.367 375.362 289.729L375.363 289.728Z" fill="#211715"/>
<path d="M351.791 298.347C349.199 299.076 346.96 300.722 345.492 302.979C344.023 305.236 343.426 307.949 343.81 310.614C343.823 311.185 344.055 311.729 344.459 312.132C344.863 312.536 345.407 312.769 345.977 312.782C346.551 312.776 347.099 312.546 347.504 312.141C347.909 311.735 348.139 311.187 348.145 310.614C348.093 310.095 348.078 309.572 348.101 309.05C348.111 308.792 348.13 308.533 348.156 308.276C348.163 308.198 348.172 308.119 348.181 308.041C348.202 307.875 348.193 307.937 348.155 308.227C348.16 308.096 348.182 307.966 348.219 307.84C348.309 307.319 348.441 306.807 348.613 306.308C348.636 306.242 348.661 306.176 348.687 306.111C348.748 305.956 348.718 306.024 348.599 306.316C348.612 306.316 348.746 306.012 348.759 305.991C348.884 305.747 349.02 305.509 349.166 305.277C349.217 305.194 349.48 304.695 349.571 304.69C349.387 304.925 349.346 304.982 349.449 304.857C349.492 304.803 349.537 304.749 349.582 304.699C349.657 304.614 349.734 304.53 349.812 304.449C349.983 304.27 350.162 304.099 350.354 303.937C350.432 303.87 350.737 303.713 350.446 303.851C350.154 303.99 350.474 303.832 350.554 303.779C350.968 303.488 351.402 303.229 351.855 303.004C351.998 302.931 352.347 302.684 352.505 302.699L352.325 302.774L352.532 302.691C352.673 302.635 352.815 302.582 352.957 302.529C353.505 302.367 353.969 301.998 354.252 301.501C354.534 301.004 354.614 300.418 354.474 299.863C354.317 299.312 353.949 298.844 353.451 298.56C352.952 298.277 352.363 298.2 351.808 298.346L351.791 298.347Z" fill="#211715"/>
<path d="M361.246 303.463C361.492 303.599 361.736 303.737 361.974 303.888C362.092 303.96 362.209 304.037 362.325 304.119C362.313 304.111 362.779 304.444 362.616 304.322C362.454 304.199 362.781 304.456 362.809 304.479C362.916 304.569 363.022 304.661 363.128 304.755C363.337 304.941 363.54 305.137 363.735 305.338C363.952 305.565 364.168 305.801 364.369 306.041C364.449 306.135 364.56 306.282 364.421 306.099C364.505 306.207 364.588 306.325 364.668 306.44C365.008 306.93 365.311 307.445 365.575 307.98C365.637 308.107 365.699 308.233 365.754 308.362C365.894 308.682 365.668 308.128 365.8 308.485C365.909 308.78 366.011 309.076 366.098 309.377C366.186 309.679 366.261 309.983 366.325 310.291C366.365 310.483 366.402 310.676 366.433 310.87C366.399 310.637 366.433 310.912 366.445 310.993C366.505 311.618 366.518 312.247 366.485 312.874C366.475 313.07 366.458 313.265 366.438 313.46C366.397 313.846 366.484 313.201 366.42 313.583C366.362 313.932 366.287 314.276 366.204 314.619C366.128 314.894 366.107 315.181 366.142 315.463C366.177 315.746 366.268 316.019 366.408 316.266C366.549 316.514 366.737 316.731 366.962 316.906C367.186 317.081 367.443 317.21 367.718 317.286C367.992 317.361 368.279 317.382 368.561 317.347C368.844 317.312 369.117 317.221 369.364 317.081C369.612 316.94 369.829 316.752 370.004 316.528C370.179 316.303 370.308 316.046 370.384 315.772C371.153 312.705 370.889 309.47 369.633 306.568C368.377 303.667 366.2 301.26 363.438 299.721C363.192 299.572 362.919 299.473 362.634 299.43C362.35 299.388 362.06 299.402 361.781 299.473C361.502 299.543 361.24 299.669 361.01 299.842C360.78 300.015 360.587 300.232 360.442 300.48C360.296 300.729 360.202 301.003 360.164 301.288C360.126 301.574 360.146 301.864 360.221 302.141C360.296 302.419 360.426 302.679 360.603 302.906C360.78 303.133 361 303.322 361.251 303.463H361.246Z" fill="#211715"/>
<path d="M363.582 282.76C361.574 282.251 359.462 282.332 357.5 282.994C355.909 283.427 354.462 284.275 353.309 285.453C352.593 286.28 352.027 287.226 351.636 288.248C350.416 290.995 350.245 294.094 351.156 296.959C351.699 298.333 352.575 299.552 353.704 300.505C354.833 301.458 356.181 302.117 357.626 302.422C360.047 303.088 362.621 302.92 364.934 301.946C367.004 301.023 368.643 299.346 369.519 297.256C370.322 295.086 370.569 292.749 370.236 290.459C370.107 288.595 369.273 286.851 367.903 285.582C366.932 284.523 365.758 283.67 364.452 283.073C364.168 282.951 363.878 282.847 363.582 282.76Z" fill="white"/>
<path d="M353.782 284.982C353.617 285.131 353.457 285.288 353.309 285.453C352.624 286.243 352.077 287.144 351.691 288.117L354.097 288.767C357.835 289.669 365.764 292.957 368.278 295.084L369.904 296.097C370.383 294.258 370.495 292.343 370.235 290.461C370.106 288.598 369.271 286.854 367.901 285.584C366.93 284.526 365.757 283.672 364.451 283.075C364.168 282.955 363.878 282.853 363.584 282.767C361.576 282.258 359.464 282.34 357.501 283.002C356.133 283.386 354.865 284.061 353.782 284.982Z" fill="#B3B3B3"/>
<path d="M364.158 280.672C359.3 279.382 353.096 281.19 350.482 285.685C348.035 289.89 347.395 295.959 350.374 300.068C353.3 304.114 358.558 305.596 363.358 304.729C365.63 304.266 367.708 303.125 369.319 301.458C371.063 299.567 372.141 297.157 372.387 294.596C372.746 291.807 372.577 288.487 371.043 286.044C369.441 283.508 367.007 281.608 364.157 280.67C361.486 279.844 360.343 284.03 363.004 284.85C364.624 285.423 366.032 286.472 367.045 287.86C367.98 289.356 368.385 291.123 368.196 292.876C368.116 296.099 366.679 299.029 363.526 300.203C362.04 300.716 360.445 300.83 358.9 300.534C357.356 300.238 355.916 299.542 354.724 298.516C352.181 296.063 352.381 292.162 353.617 289.093C353.92 288.263 354.393 287.506 355.005 286.869C355.618 286.233 356.357 285.731 357.174 285.397C359.006 284.586 361.054 284.396 363.004 284.855C365.705 285.569 366.856 281.389 364.158 280.672Z" fill="#211715"/>
<path d="M353.525 290.852C354.645 291.137 355.75 291.478 356.836 291.875C357.491 292.107 358.141 292.35 358.787 292.605C359.153 292.75 359.519 292.897 359.884 293.047C359.929 293.066 360.416 293.27 360.175 293.168C359.968 293.081 360.494 293.305 360.557 293.333C361.832 293.887 363.095 294.477 364.322 295.132C364.846 295.411 365.365 295.703 365.87 296.017C366.087 296.154 366.304 296.293 366.521 296.441C366.633 296.502 366.737 296.577 366.831 296.664C366.722 296.51 366.462 296.369 366.754 296.612C367.167 297.004 367.716 297.223 368.286 297.223C368.856 297.223 369.405 297.004 369.819 296.612C370.221 296.203 370.447 295.653 370.447 295.079C370.447 294.505 370.221 293.955 369.819 293.546C367.66 291.901 365.28 290.569 362.749 289.589C360.146 288.392 357.447 287.416 354.681 286.672C354.406 286.596 354.119 286.575 353.837 286.61C353.554 286.645 353.281 286.736 353.034 286.877C352.786 287.017 352.569 287.205 352.394 287.43C352.219 287.654 352.09 287.911 352.014 288.186C351.939 288.46 351.918 288.747 351.953 289.029C351.988 289.312 352.079 289.585 352.219 289.832C352.36 290.08 352.548 290.297 352.773 290.472C352.997 290.647 353.254 290.776 353.528 290.852H353.525Z" fill="#211715"/>
<path d="M340.17 338.204C337.172 339.596 333.975 338.006 335.245 334.545C335.541 333.728 336.016 332.988 336.634 332.379C337.253 331.769 338 331.306 338.821 331.023C340.376 330.408 343.048 331.081 343.512 333.19C343.771 335.657 342.187 337.337 340.17 338.204Z" fill="white"/>
<path d="M347.738 341.465C344.865 343.101 341.548 341.783 342.525 338.228C342.753 337.389 343.165 336.612 343.731 335.954C344.297 335.295 345.003 334.772 345.798 334.421C347.297 333.679 350.011 334.127 350.653 336.191C351.112 338.626 349.675 340.435 347.738 341.465Z" fill="white"/>
<path d="M374.471 256.212C372.464 255.704 370.352 255.785 368.389 256.447C366.799 256.88 365.352 257.729 364.198 258.907C363.483 259.734 362.917 260.68 362.527 261.702C361.306 264.449 361.135 267.548 362.047 270.413C362.59 271.787 363.465 273.005 364.594 273.959C365.723 274.912 367.071 275.57 368.517 275.875C370.938 276.54 373.511 276.372 375.825 275.398C377.894 274.476 379.534 272.799 380.409 270.709C381.213 268.539 381.459 266.202 381.127 263.911C380.998 262.048 380.163 260.304 378.793 259.034C377.822 257.976 376.649 257.123 375.343 256.526C375.059 256.404 374.768 256.3 374.471 256.212Z" fill="white"/>
<path d="M366.482 257.207C365.624 257.63 364.85 258.205 364.198 258.905C363.482 259.732 362.917 260.678 362.526 261.7C362.42 261.955 362.322 262.215 362.23 262.478L364.674 262.938C367.817 263.53 376.813 266.561 380.633 270.091C381.25 268.094 381.419 265.984 381.126 263.914C380.997 262.05 380.163 260.306 378.793 259.037C377.822 257.978 376.648 257.125 375.342 256.528C375.059 256.409 374.77 256.306 374.475 256.22C372.467 255.711 370.355 255.793 368.393 256.455C367.735 256.651 367.096 256.902 366.482 257.207Z" fill="#B3B3B3"/>
<path d="M375.047 254.125C370.189 252.836 363.985 254.643 361.371 259.138C358.924 263.343 358.284 269.413 361.263 273.523C364.189 277.567 369.447 279.05 374.247 278.183C376.519 277.72 378.598 276.58 380.208 274.912C381.952 273.021 383.03 270.612 383.276 268.052C383.635 265.261 383.466 261.941 381.932 259.499C380.33 256.963 377.896 255.063 375.046 254.124C372.375 253.298 371.232 257.484 373.893 258.305C375.513 258.877 376.922 259.926 377.934 261.314C378.869 262.81 379.274 264.577 379.085 266.331C379.005 269.554 377.568 272.483 374.415 273.657C372.929 274.17 371.334 274.284 369.789 273.988C368.245 273.692 366.805 272.997 365.613 271.971C363.071 269.517 363.27 265.616 364.507 262.547C364.809 261.717 365.282 260.96 365.894 260.324C366.507 259.688 367.246 259.186 368.063 258.853C369.895 258.041 371.943 257.85 373.893 258.311C376.594 259.023 377.745 254.842 375.047 254.125Z" fill="#211715"/>
<path d="M364.1 265.027C366.472 265.536 368.794 266.26 371.036 267.188C371.372 267.319 371.707 267.454 372.04 267.592C372.18 267.65 372.175 267.648 372.027 267.585L372.229 267.671C372.432 267.759 372.634 267.847 372.834 267.936C373.533 268.248 374.224 268.577 374.906 268.924C376.204 269.572 377.445 270.331 378.613 271.19C379.11 271.477 379.701 271.556 380.256 271.411C380.811 271.265 381.286 270.907 381.579 270.413C381.855 269.914 381.929 269.327 381.784 268.775C381.639 268.222 381.287 267.747 380.802 267.447C378.204 265.626 375.374 264.159 372.388 263.087C370.082 262.122 367.692 261.372 365.247 260.847C364.693 260.709 364.107 260.79 363.611 261.072C363.114 261.355 362.746 261.817 362.581 262.364C362.434 262.919 362.51 263.509 362.794 264.008C363.078 264.507 363.546 264.874 364.099 265.03L364.1 265.027Z" fill="#211715"/>
<path d="M345.57 314.987C344.26 315.855 342.997 316.794 341.787 317.797C340.902 318.644 340.126 319.597 339.476 320.635C337.784 323.334 336.687 326.364 336.258 329.521C336.119 330.076 336.199 330.662 336.482 331.159C336.764 331.656 337.228 332.024 337.776 332.188C338.33 332.333 338.92 332.256 339.418 331.972C339.916 331.688 340.284 331.221 340.442 330.67C340.714 329.053 341.118 327.46 341.649 325.908C341.708 325.743 341.767 325.583 341.83 325.416C341.839 325.394 342.093 324.781 341.922 325.176C342.054 324.872 342.195 324.573 342.345 324.277C342.582 323.812 342.849 323.362 343.145 322.931C343.451 322.487 343.775 322.055 344.095 321.62C344.263 321.391 343.814 321.945 344.068 321.659C344.145 321.57 344.215 321.475 344.295 321.387C344.431 321.24 344.576 321.102 344.728 320.972C344.957 320.77 345.202 320.585 345.43 320.383C345.624 320.211 345.119 320.611 345.45 320.366C345.59 320.257 345.727 320.159 345.867 320.057C346.491 319.603 347.129 319.167 347.763 318.727C348.008 318.583 348.223 318.393 348.396 318.166C348.568 317.939 348.693 317.681 348.766 317.405C348.838 317.13 348.855 316.843 348.816 316.561C348.778 316.279 348.684 316.007 348.54 315.761C348.397 315.516 348.206 315.301 347.979 315.128C347.752 314.956 347.494 314.831 347.218 314.758C346.943 314.686 346.656 314.669 346.374 314.708C346.092 314.746 345.82 314.84 345.574 314.984L345.57 314.987Z" fill="#211715"/>
<path d="M346.881 335.338C347.174 333.948 347.493 332.564 347.846 331.189C348.025 330.492 348.213 329.797 348.426 329.107C348.512 328.825 348.603 328.545 348.703 328.266C348.75 328.136 348.804 328.009 348.849 327.878C348.92 327.679 348.585 328.459 348.722 328.182C348.748 328.129 348.771 328.073 348.797 328.02C349.076 327.51 349.154 326.914 349.014 326.349C348.901 325.938 348.669 325.569 348.347 325.29C348.025 325.01 347.628 324.831 347.205 324.776C346.782 324.721 346.353 324.792 345.97 324.979C345.587 325.167 345.268 325.464 345.053 325.832C344.467 327.15 344.011 328.522 343.692 329.929C343.327 331.338 343 332.76 342.7 334.185C342.547 334.739 342.621 335.331 342.905 335.831C343.188 336.332 343.659 336.698 344.214 336.851C344.768 337.004 345.36 336.931 345.86 336.647C346.36 336.363 346.727 335.892 346.88 335.338H346.881Z" fill="#211715"/>
<path d="M358.247 316.401C356.53 316.038 353.895 316.691 353.412 318.48C352.738 320.973 355.05 322.588 357.255 322.565C359.516 322.543 361.345 321.392 361.357 319.436C361.365 318.117 359.883 316.745 358.247 316.401Z" fill="white"/>
<path d="M348.336 312.417C346.619 312.055 343.984 312.707 343.501 314.495C342.827 316.988 345.138 318.603 347.344 318.581C349.605 318.558 351.434 317.407 351.446 315.452C351.454 314.133 349.972 312.762 348.336 312.417Z" fill="white"/>
<path d="M358.822 314.308C357.749 314.068 356.636 314.075 355.565 314.328C354.495 314.581 353.497 315.074 352.645 315.769C351.792 316.583 351.26 317.677 351.145 318.85C351.031 320.024 351.341 321.199 352.021 322.163C352.703 323.064 353.61 323.77 354.65 324.212C355.69 324.654 356.828 324.816 357.95 324.682C360.312 324.421 362.634 323.221 363.335 320.78C364.213 317.722 361.682 314.954 358.819 314.304C358.545 314.228 358.258 314.207 357.975 314.242C357.693 314.278 357.42 314.368 357.172 314.509C356.925 314.649 356.707 314.837 356.532 315.062C356.358 315.286 356.229 315.543 356.153 315.818C356.077 316.092 356.056 316.379 356.092 316.661C356.127 316.944 356.217 317.217 356.358 317.464C356.498 317.712 356.686 317.929 356.911 318.104C357.136 318.279 357.393 318.408 357.667 318.484C357.866 318.531 358.063 318.587 358.257 318.654C358.593 318.762 358.104 318.603 358.08 318.577C358.181 318.645 358.291 318.701 358.405 318.744C358.547 318.824 358.679 318.916 358.816 319.004C359.183 319.241 358.445 318.655 358.751 318.961C358.833 319.043 358.922 319.118 359.003 319.202C359.054 319.255 359.102 319.322 359.155 319.371C358.785 319.032 358.938 319.068 359.047 319.242C359.137 319.376 359.195 319.525 359.281 319.659C359.005 319.225 359.125 319.26 359.183 319.474C359.248 319.712 359.141 319.736 359.171 319.236C359.162 319.395 359.162 319.571 359.164 319.731C359.155 319.124 359.245 319.291 359.184 319.49C359.161 319.564 359.14 319.642 359.121 319.718C359.05 320.018 359.206 319.457 359.241 319.46C359.233 319.46 359.15 319.643 359.132 319.666C359.095 319.732 359.052 319.795 359.013 319.861C358.857 320.13 359.166 319.626 359.187 319.645C359.187 319.645 358.829 320.062 358.792 320.04C358.774 320.029 359.279 319.702 359.003 319.876C358.948 319.91 358.895 319.949 358.841 319.985C358.7 320.074 358.541 320.133 358.402 320.221C358.835 319.947 358.808 320.063 358.635 320.122C358.535 320.157 358.436 320.194 358.336 320.231C358.163 320.284 357.987 320.328 357.809 320.362C357.732 320.377 357.354 320.432 357.765 320.378C358.175 320.324 357.787 320.372 357.711 320.378C357.538 320.392 357.365 320.4 357.191 320.399C357.038 320.399 356.885 320.374 356.733 320.376C357.325 320.367 357.159 320.448 356.95 320.403C356.85 320.38 356.749 320.363 356.649 320.338C356.501 320.301 356.355 320.258 356.216 320.207C355.692 320.02 356.668 320.439 356.179 320.184C356.046 320.115 355.923 320.034 355.794 319.957C355.631 319.859 355.536 319.677 355.956 320.093C355.887 320.025 355.807 319.967 355.739 319.901C355.692 319.857 355.647 319.811 355.604 319.764C355.454 319.604 355.412 319.4 355.698 319.908C355.636 319.8 355.555 319.699 355.493 319.583C355.385 319.373 355.429 319.214 355.551 319.753C355.537 319.693 355.507 319.629 355.489 319.571C355.47 319.512 355.458 319.444 355.439 319.381C355.33 319.021 355.452 319.987 355.454 319.511C355.454 319.353 355.463 319.194 355.464 319.037C355.464 319.619 355.404 319.427 355.449 319.224C355.468 319.137 355.495 319.053 355.516 318.966C355.554 318.801 355.717 318.699 355.393 319.234C355.431 319.171 355.458 319.102 355.496 319.038C355.542 318.98 355.582 318.919 355.617 318.853C355.636 318.917 355.202 319.335 355.508 319.02C355.549 318.977 355.593 318.935 355.637 318.895C355.976 318.585 355.492 319.019 355.482 319.003C355.637 318.897 355.798 318.8 355.964 318.713C356.021 318.684 356.083 318.66 356.138 318.63C355.57 318.955 355.797 318.768 355.981 318.704C356.167 318.638 356.356 318.582 356.549 318.538C356.765 318.488 357.323 318.456 356.557 318.512C356.736 318.499 356.913 318.476 357.099 318.471C357.285 318.465 357.447 318.471 357.62 318.481C357.681 318.481 357.744 318.495 357.805 318.496C357.072 318.475 357.451 318.444 357.667 318.487C357.941 318.563 358.228 318.584 358.511 318.548C358.793 318.513 359.066 318.423 359.314 318.282C359.561 318.142 359.779 317.954 359.954 317.729C360.128 317.504 360.257 317.248 360.333 316.973C360.409 316.699 360.43 316.412 360.394 316.129C360.359 315.847 360.269 315.574 360.128 315.326C359.988 315.079 359.8 314.861 359.575 314.687C359.35 314.512 359.093 314.383 358.819 314.307L358.822 314.308Z" fill="#211715"/>
<path d="M348.912 310.324C347.839 310.084 346.725 310.09 345.655 310.343C344.585 310.596 343.586 311.089 342.734 311.785C341.882 312.599 341.349 313.692 341.235 314.866C341.121 316.04 341.432 317.215 342.111 318.179C342.794 319.079 343.7 319.786 344.74 320.227C345.78 320.669 346.917 320.831 348.039 320.696C350.402 320.435 352.723 319.236 353.425 316.795C354.304 313.736 351.772 310.969 348.909 310.319C348.634 310.244 348.347 310.223 348.065 310.258C347.782 310.293 347.51 310.384 347.262 310.524C347.014 310.665 346.797 310.853 346.622 311.077C346.447 311.302 346.318 311.559 346.243 311.833C346.167 312.108 346.146 312.395 346.181 312.677C346.216 312.96 346.307 313.232 346.447 313.48C346.588 313.728 346.776 313.945 347.001 314.12C347.225 314.295 347.482 314.424 347.757 314.499C347.956 314.546 348.153 314.603 348.346 314.67C348.682 314.778 348.193 314.618 348.169 314.592C348.271 314.66 348.38 314.716 348.495 314.76C348.637 314.839 348.769 314.931 348.905 315.019C349.274 315.256 348.535 314.67 348.84 314.975C348.923 315.058 349.012 315.132 349.093 315.217C349.144 315.271 349.191 315.337 349.245 315.386C348.875 315.048 349.028 315.083 349.136 315.257C349.226 315.39 349.285 315.54 349.37 315.673C349.095 315.245 349.215 315.275 349.273 315.489C349.338 315.726 349.23 315.75 349.261 315.251C349.251 315.411 349.251 315.585 349.253 315.746C349.245 315.139 349.335 315.306 349.274 315.505C349.252 315.579 349.229 315.658 349.211 315.733C349.139 316.033 349.295 315.472 349.33 315.475C349.323 315.475 349.239 315.659 349.227 315.681C349.189 315.748 349.146 315.811 349.107 315.877C348.951 316.146 349.26 315.641 349.281 315.66C349.281 315.66 348.923 316.077 348.886 316.056C348.867 316.045 349.372 315.717 349.097 315.891C349.042 315.926 348.989 315.964 348.935 315.999C348.794 316.087 348.634 316.147 348.501 316.236C348.935 315.961 348.907 316.076 348.734 316.136C348.634 316.171 348.536 316.207 348.435 316.239C348.262 316.292 348.086 316.335 347.908 316.371C347.831 316.386 347.453 316.44 347.864 316.386C348.275 316.332 347.887 316.38 347.811 316.386C347.637 316.4 347.464 316.408 347.291 316.408C347.138 316.408 346.984 316.382 346.832 316.384C347.424 316.375 347.258 316.456 347.054 316.411C346.955 316.39 346.854 316.372 346.754 316.347C346.606 316.31 346.459 316.266 346.321 316.215C345.797 316.029 346.774 316.447 346.284 316.192C346.15 316.124 346.028 316.042 345.899 315.966C345.735 315.868 345.641 315.686 346.06 316.101C345.992 316.034 345.912 315.976 345.844 315.909C345.797 315.865 345.752 315.819 345.708 315.773C345.559 315.612 345.516 315.409 345.803 315.917C345.741 315.809 345.659 315.707 345.599 315.592C345.484 315.383 345.534 315.223 345.656 315.763C345.642 315.702 345.612 315.638 345.593 315.58C345.575 315.521 345.563 315.453 345.543 315.391C345.435 315.032 345.556 315.996 345.559 315.52C345.559 315.362 345.567 315.204 345.568 315.046C345.568 315.629 345.509 315.437 345.553 315.234C345.573 315.148 345.6 315.062 345.62 314.976C345.658 314.81 345.822 314.709 345.498 315.244C345.536 315.181 345.563 315.111 345.601 315.048C345.647 314.99 345.687 314.928 345.721 314.863C345.741 314.928 345.307 315.344 345.613 315.029C345.654 314.986 345.697 314.945 345.742 314.904C346.081 314.594 345.597 315.028 345.587 315.012C345.742 314.906 345.903 314.808 346.069 314.721C346.125 314.692 346.187 314.67 346.243 314.638C345.675 314.963 345.902 314.777 346.085 314.712C346.271 314.646 346.461 314.591 346.653 314.547C346.87 314.496 347.428 314.464 346.662 314.52C346.841 314.507 347.017 314.484 347.204 314.48C347.39 314.476 347.552 314.48 347.725 314.489C347.786 314.489 347.849 314.503 347.909 314.505C347.177 314.484 347.556 314.453 347.772 314.496C348.046 314.572 348.333 314.593 348.615 314.558C348.898 314.522 349.171 314.432 349.418 314.291C349.666 314.151 349.883 313.963 350.058 313.738C350.233 313.514 350.362 313.257 350.438 312.982C350.513 312.708 350.534 312.421 350.499 312.138C350.464 311.856 350.374 311.583 350.233 311.336C350.092 311.088 349.904 310.871 349.68 310.696C349.455 310.521 349.198 310.392 348.924 310.316L348.912 310.324Z" fill="#211715"/>
<path d="M339.076 336.328C338.679 336.508 339.581 336.15 339.175 336.284C339.066 336.319 338.967 336.359 338.86 336.393C338.689 336.445 338.515 336.489 338.339 336.524C338.134 336.564 337.853 336.524 338.506 336.509C338.44 336.509 338.37 336.523 338.305 336.527C338.092 336.538 337.88 336.538 337.667 336.527C337.468 336.519 337.292 336.406 337.915 336.565C337.827 336.542 337.734 336.531 337.644 336.51C337.499 336.475 337.362 336.419 337.219 336.377C337.906 336.575 337.481 336.495 337.273 336.369C337.2 336.325 337.134 336.272 337.063 336.228C337.627 336.579 337.37 336.475 337.217 336.324C337.174 336.271 337.127 336.221 337.078 336.173C337.457 336.48 337.359 336.565 337.22 336.344C337.183 336.284 337.151 336.221 337.111 336.162C337.003 335.982 337.077 335.842 337.21 336.406C337.183 336.291 337.059 335.717 337.118 336.174C337.172 336.607 337.131 336.269 337.126 336.18C337.119 336.046 337.126 335.914 337.126 335.78C337.126 335.605 337.235 335.482 337.084 336.038C337.113 335.93 337.123 335.815 337.149 335.707C337.196 335.508 337.256 335.313 337.327 335.122C337.398 334.925 337.588 334.723 337.28 335.217C337.328 335.14 337.359 335.046 337.402 334.963C337.51 334.749 337.631 334.543 337.765 334.344C337.804 334.288 337.858 334.226 337.892 334.165C337.614 334.668 337.69 334.419 337.828 334.262C337.949 334.123 338.077 333.991 338.211 333.865C338.294 333.788 338.379 333.717 338.464 333.642C338.789 333.36 338.03 333.938 338.388 333.704C338.588 333.574 338.784 333.442 338.992 333.326C339.186 333.25 339.373 333.157 339.55 333.047L339.269 333.163C339.334 333.136 339.4 333.11 339.467 333.086C339.518 333.068 339.576 333.05 339.623 333.034C339.874 332.96 340.416 332.974 339.64 332.995C339.822 332.995 340.001 332.97 340.182 332.976C340.421 332.983 340.881 333.137 340.164 332.953C340.332 332.996 340.505 333.02 340.673 333.07C340.749 333.091 340.824 333.12 340.9 333.144C341.269 333.259 340.391 332.892 340.734 333.071C340.903 333.159 341.066 333.252 341.227 333.354C341.553 333.556 340.816 332.98 341.088 333.245C341.132 333.29 341.181 333.33 341.225 333.374C341.292 333.442 341.349 333.521 341.416 333.585C341 333.186 341.179 333.241 341.273 333.417C341.311 333.486 341.353 333.558 341.393 333.626C341.592 333.959 341.225 333.093 341.33 333.472C341.354 333.558 341.414 333.876 341.368 333.492C341.316 333.059 341.368 333.601 341.368 333.691C341.368 333.81 341.357 333.929 341.355 334.05C341.349 334.478 341.464 333.524 341.375 333.932C341.325 334.149 341.266 334.366 341.205 334.583C341.089 334.984 341.449 334.099 341.258 334.468C341.192 334.596 341.129 334.724 341.055 334.848C341.018 334.909 340.979 334.97 340.94 335.029C340.63 335.494 341.202 334.751 340.955 335.021C340.809 335.181 340.666 335.346 340.506 335.489C340.433 335.572 340.35 335.645 340.257 335.706L340.524 335.502C340.464 335.546 340.406 335.59 340.345 335.632C339.945 335.909 339.518 336.145 339.071 336.336C338.581 336.623 338.224 337.09 338.075 337.637C337.924 338.2 338.002 338.8 338.292 339.307C338.58 339.795 339.046 340.152 339.592 340.303C340.157 340.424 340.747 340.348 341.262 340.086C342.32 339.637 343.264 338.956 344.025 338.094C344.962 337.01 345.54 335.661 345.677 334.235C345.774 332.944 345.379 331.665 344.572 330.654C343.765 329.643 342.605 328.974 341.325 328.782C340.759 328.667 340.179 328.63 339.603 328.674C338.869 328.751 338.154 328.95 337.485 329.261C336.38 329.732 335.401 330.455 334.627 331.374C333.055 333.308 331.975 336.374 333.544 338.644C333.917 339.197 334.399 339.67 334.959 340.034C335.52 340.397 336.148 340.644 336.806 340.76C338.325 340.995 339.88 340.759 341.261 340.085C341.749 339.799 342.106 339.335 342.257 338.79C342.372 338.374 342.36 337.934 342.223 337.525C342.087 337.116 341.831 336.757 341.489 336.494C341.147 336.231 340.735 336.076 340.304 336.049C339.874 336.022 339.445 336.124 339.073 336.342L339.076 336.328Z" fill="#211715"/>
<path d="M346.643 339.593C346.449 339.701 345.776 339.93 346.485 339.701C346.321 339.753 346.16 339.823 345.999 339.872C345.809 339.928 345.617 339.966 345.422 340.006C345.107 340.07 345.707 339.957 345.714 339.967C345.59 339.965 345.466 339.973 345.342 339.991C345.176 339.991 345.017 339.976 344.848 339.969C344.582 339.957 345.473 340.084 345.122 340.001C345.04 339.981 344.957 339.966 344.874 339.943C344.792 339.92 344.716 339.891 344.636 339.866C344.338 339.774 344.961 339.988 344.926 339.992C344.71 340.017 344.179 339.349 344.818 339.992C344.728 339.901 344.625 339.81 344.531 339.722C344.281 339.487 344.837 340.212 344.673 339.911C344.634 339.84 344.585 339.775 344.546 339.704C344.315 339.281 344.719 340.245 344.57 339.759C344.544 339.675 344.526 339.59 344.504 339.504C344.409 339.144 344.544 340.074 344.528 339.715C344.519 339.514 344.521 339.318 344.528 339.116C344.544 338.699 344.413 339.679 344.508 339.258C344.524 339.183 344.537 339.106 344.554 339.032C344.605 338.808 344.669 338.587 344.746 338.371C344.769 338.307 344.806 338.232 344.822 338.165C344.671 338.514 344.641 338.586 344.732 338.381C344.762 338.316 344.793 338.251 344.826 338.187C344.914 338.012 345.013 337.841 345.12 337.676C345.168 337.6 345.221 337.528 345.271 337.459C345.503 337.118 344.918 337.864 345.198 337.559C345.322 337.424 345.441 337.287 345.573 337.16C345.654 337.082 345.737 337.007 345.822 336.935C346.255 336.561 345.52 337.129 345.835 336.918C346.001 336.81 346.16 336.694 346.336 336.593C346.405 336.553 346.91 336.22 346.962 336.259C346.985 336.277 346.383 336.476 346.671 336.385C346.751 336.361 346.83 336.332 346.912 336.309C346.993 336.286 347.08 336.267 347.164 336.251C347.582 336.168 347.011 336.315 346.939 336.276C347.034 336.328 347.366 336.253 347.481 336.256C347.734 336.264 348.171 336.406 347.46 336.231C347.643 336.277 347.828 336.303 348.009 336.358C348.068 336.376 348.127 336.399 348.186 336.418C348.527 336.526 347.63 336.144 348.097 336.385C348.206 336.438 348.692 336.78 348.351 336.512C348.01 336.244 348.459 336.639 348.544 336.719C348.811 336.985 348.243 336.251 348.436 336.578C348.468 336.632 348.505 336.686 348.536 336.741C348.65 336.939 348.626 337.13 348.488 336.577C348.54 336.784 348.554 337.194 348.534 336.565C348.542 336.804 348.57 337.04 348.559 337.28C348.55 337.487 348.437 337.771 348.594 337.158C348.567 337.266 348.556 337.375 348.531 337.483C348.506 337.591 348.478 337.7 348.445 337.8C348.423 337.869 348.4 337.938 348.374 338.005C348.292 338.213 348.324 338.141 348.468 337.789C348.351 337.965 348.273 338.173 348.157 338.353C348.1 338.443 348.027 338.527 347.973 338.619C348.298 338.077 348.136 338.402 348.002 338.556C347.843 338.732 347.673 338.898 347.493 339.053C347.439 339.1 347.143 339.334 347.455 339.095C347.767 338.855 347.378 339.144 347.313 339.188C347.096 339.335 346.867 339.469 346.635 339.594C346.143 339.888 345.786 340.364 345.64 340.918C345.495 341.473 345.573 342.063 345.858 342.56C346.157 343.048 346.632 343.401 347.185 343.545C347.737 343.69 348.325 343.616 348.824 343.337C350.009 342.758 351.015 341.867 351.733 340.76C352.451 339.653 352.854 338.371 352.899 337.052C352.915 336.352 352.778 335.656 352.498 335.015C352.217 334.373 351.799 333.801 351.273 333.339C350.241 332.485 348.959 331.991 347.622 331.93C346.362 331.941 345.127 332.275 344.033 332.9C342.94 333.524 342.024 334.419 341.375 335.497C339.966 337.665 339.641 340.692 341.411 342.737C343.268 344.879 346.573 344.597 348.827 343.34C349.319 343.046 349.676 342.57 349.821 342.016C349.967 341.461 349.889 340.872 349.604 340.374C349.307 339.887 348.832 339.534 348.281 339.388C347.729 339.242 347.142 339.316 346.643 339.593Z" fill="#211715"/>
</g>
<defs>
<clipPath id="clip0_4107_4706">
<rect width="389" height="389" fill="white"/>
</clipPath>
</defs>
</svg>
