<svg width="231" height="249" viewBox="0 0 231 249" fill="none" xmlns="http://www.w3.org/2000/svg">
<path d="M117.923 61.012C118.518 60.4955 119.218 60.1137 119.975 59.8925C120.731 59.6714 121.526 59.6161 122.306 59.7305C123.072 59.8386 123.803 60.1167 124.447 60.5445C125.091 60.9723 125.631 61.5389 126.027 62.2026C126.485 63.1191 126.746 64.1218 126.792 65.1456C127.126 69.1491 126.353 73.1675 124.557 76.7611C123.711 78.5779 122.482 80.1906 120.955 81.4894C120.336 82.0908 119.547 82.4884 118.695 82.629C117.844 82.7696 116.969 82.6464 116.189 82.276C115.602 84.0297 114.839 85.6054 114.587 86.3705C113.439 89.4852 107.438 99.8975 99.6497 104.963C99.6648 107.718 99.454 111.139 100.463 113.644C101.123 115.278 104.43 117.684 107.993 119.891C107.993 119.891 102.942 141.294 80.4323 141.294C57.9221 141.294 54.2039 120.058 54.2039 120.058C57.5408 117.802 60.7149 115.32 61.3916 113.648C62.4017 111.163 62.2022 107.748 62.2136 105.003C59.0331 102.874 56.1854 100.286 53.7633 97.3232C50.2288 93.0576 47.5519 88.1493 45.8799 82.8681L45.4127 82.9944C44.5591 83.1583 43.6781 83.107 42.8493 82.8451C42.0205 82.5832 41.27 82.119 40.6655 81.4945C39.1382 80.195 37.9091 78.5814 37.0621 76.7637C35.2675 73.1696 34.4945 69.1516 34.8274 65.1481C34.8732 64.1242 35.1344 63.1214 35.5938 62.2051C35.9899 61.5415 36.5296 60.9751 37.1732 60.5473C37.8169 60.1195 38.5481 59.8413 39.3133 59.733C40.0931 59.6186 40.8885 59.6739 41.645 59.8951C42.4016 60.1162 43.1015 60.4981 43.6969 61.0145C43.6969 61.0145 38.2073 26.125 79.7316 26.125C121.256 26.125 117.923 61.012 117.923 61.012Z" fill="white"/>
<path d="M63.5064 243.699L27.3391 242.253L2.52734 225.746C4.42118 189.738 6.40339 160.358 10.0396 148.25C11.0522 144.684 13.0577 141.479 15.8221 139.008C18.0745 137.185 20.5119 135.602 23.0944 134.287C29.7355 131.08 45.5553 124.199 52.6256 120.903L56.4714 119.112C59.0117 146.309 70.5173 168.698 79.9638 190.206C83.5295 183.799 86.7453 177.202 89.5971 170.446C93.3848 161.445 98.9476 145.7 100.644 141.079C103.174 133.557 105.047 125.83 106.24 117.984C108.027 118.584 109.424 119.044 109.424 119.044C116.684 122.411 131.772 128.582 138.99 132.067C141.46 133.152 143.722 134.66 145.672 136.525C147.559 138.466 149.046 140.757 150.051 143.27C155.133 156.526 155.924 163.291 160.807 176.251C162.269 171.369 163.668 166.537 165.151 161.444C172.776 163.986 187.386 168.739 193.028 170.229C190.537 182.572 188.128 195.821 184.111 208.341C181.319 217.037 177.12 225.311 168.574 228.542C165.379 229.807 161.936 230.325 158.51 230.057C155.084 229.789 151.764 228.742 148.805 226.995C143.045 223.639 136.202 215.821 132.713 212.406C132.352 215.7 134.407 234.501 135.346 246.576L63.5064 243.699Z" fill="white"/>
<path d="M55.0434 43.2969C54.5063 44.1064 53.862 44.8394 53.1281 45.4761C51.7734 46.6124 49.8935 47.4154 48.4074 48.4734C47.3443 49.1916 46.447 50.1288 45.7757 51.2221C45.1043 52.3154 44.6745 53.5397 44.515 54.8127C44.2625 56.5462 44.0705 58.6812 43.914 61.2214C43.3145 60.6342 42.5871 60.194 41.7888 59.9353C40.9906 59.6766 40.1432 59.6064 39.3132 59.7304C38.9933 59.7774 38.6786 59.8557 38.3739 59.9639C36.9103 55.0829 36.2364 49.9992 36.3778 44.9054C36.7756 33.4317 41.6528 22.5705 49.9638 14.6502C58.2747 6.72981 69.3579 2.38073 80.8375 2.53523C90.8823 2.41113 100.669 5.71517 108.583 11.9021C116.644 18.0963 124.6 28.5578 125.3 44.9054C125.476 49.5345 124.936 54.163 123.698 58.6269L123.355 59.998C123.016 59.8731 122.664 59.7834 122.306 59.7304C121.468 59.6041 120.611 59.6774 119.807 59.9444C119.002 60.2114 118.272 60.6645 117.675 61.2669C116.887 57.6825 116.413 54.9036 115.849 52.9189C115.007 49.9733 114.534 47.8686 113.422 44.7122C112.438 41.9195 112.317 39.9802 106.057 39.3249C104.36 39.1481 101.704 39.1279 99.9867 39.1267C96.4414 39.1267 92.8962 39.1267 89.3534 39.1986C86.9772 39.3379 84.5931 39.2534 82.2326 38.9461C78.479 38.3149 75.4868 36.5069 72.0993 35.2721C68.7119 34.0373 64.0935 33.4692 61.2274 35.1812C60.1831 35.8705 59.3134 36.7934 58.6872 37.8767L55.5308 42.576C55.3742 42.8133 55.2114 43.0532 55.0434 43.2969Z" fill="#85807F"/>
<path d="M227.407 128.614C227.307 128.467 227.247 128.298 227.233 128.121C227.25 127.948 227.304 127.781 227.392 127.63C227.661 127.086 227.814 126.492 227.842 125.886C227.869 125.279 227.771 124.674 227.553 124.107C227.196 123.084 226.67 122.363 224.858 121.672C223.335 121.094 222.002 121.07 219.555 122.253C218.924 120.532 215.757 119.292 213.964 119.555C212.254 119.938 210.622 120.614 209.141 121.553C202.702 124.962 190.631 130.687 184.609 131.497C185.646 128.127 186.178 124.622 186.188 121.096C186.182 120.59 186.075 120.091 185.871 119.627C185.668 119.164 185.374 118.746 185.005 118.399C184.634 118.023 184.168 117.755 183.657 117.623C183.145 117.491 182.608 117.501 182.101 117.652C181.058 118.162 180.19 118.97 179.605 119.973C176.993 124.754 174.652 129.678 172.593 134.722C170.346 140.305 170.873 146.171 172.006 152.066C171.949 152.747 171.88 153.626 171.88 153.626C171.753 155.084 170.409 160.161 169.656 162.937C176.095 165.052 184.416 167.735 189.818 169.322C190.637 166.389 191.88 161.583 192.577 159.674C192.755 159.045 193.079 158.466 193.521 157.984C193.952 157.632 194.448 157.369 194.981 157.208C204.497 153.539 221.151 143.825 225.812 138.522C226.236 138.041 226.494 137.438 226.551 136.8C226.607 136.162 226.459 135.522 226.127 134.974C226.99 134.189 227.58 133.148 227.81 132.004C228.04 130.86 227.899 129.672 227.407 128.614Z" fill="white"/>
<path d="M171.721 164.957C172.486 162.152 173.261 159.345 173.9 156.507C174.169 155.321 174.357 154.119 174.462 152.907C174.663 150.529 173.8 148.001 173.637 145.603C173.43 143.224 173.573 140.827 174.062 138.489C174.677 136.171 175.515 133.918 176.564 131.761C177.401 129.885 178.299 128.036 179.228 126.206C180.011 124.367 180.94 122.594 182.006 120.903C182.329 120.465 182.708 119.905 183.215 120.186C183.945 120.588 183.643 121.997 183.613 122.611C183.481 125.4 182.996 128.161 182.171 130.828C181.54 132.857 183.493 134.192 185.277 133.934C191.23 133.07 197.062 130.193 202.459 127.678C205.141 126.428 207.792 125.113 210.413 123.735C211.73 123.037 213.378 121.826 214.958 122.069C215.447 122.109 215.919 122.261 216.339 122.514C216.758 122.767 217.114 123.114 217.376 123.528C217.723 124.096 218.276 124.508 218.921 124.677C219.565 124.846 220.249 124.759 220.83 124.434C222.378 123.72 225.619 123.408 225.306 125.963C225.199 126.847 224.648 127.515 224.753 128.458C224.828 129.123 225.239 129.67 225.356 130.32C225.445 130.847 225.398 131.387 225.22 131.89C225.042 132.394 224.738 132.843 224.338 133.196C223.953 133.597 223.707 134.11 223.636 134.661C223.565 135.212 223.672 135.772 223.943 136.257C224.321 137.014 222.68 138.1 222.216 138.514C221.169 139.435 220.069 140.282 218.933 141.096C215.802 143.352 212.518 145.398 209.182 147.332C205.81 149.288 202.364 151.13 198.843 152.796C197.401 153.479 195.939 154.123 194.462 154.713C193.433 155.04 192.499 155.612 191.739 156.379C190.979 157.146 190.415 158.086 190.097 159.118C188.825 162.653 188.066 166.38 186.999 169.976C186.074 173.099 190.947 174.433 191.869 171.319C192.879 167.924 193.655 164.462 194.751 161.093C194.842 160.535 195.13 160.03 195.563 159.667C196.41 159.234 197.292 158.873 198.199 158.588C199.848 157.883 201.474 157.124 203.083 156.331C210.384 152.841 217.313 148.621 223.763 143.735C225.015 142.806 226.189 141.776 227.273 140.657C228.18 139.768 228.771 138.607 228.957 137.351C229.143 136.095 228.914 134.812 228.304 133.699L227.91 136.759C230.591 134.163 230.854 130.785 229.668 127.443V128.785C230.687 125.629 230.532 122.086 227.445 120.121C224.449 118.215 221.348 118.648 218.281 120.064L221.737 120.971C220.336 117.866 215.894 116.499 212.779 117.205C210.835 117.793 208.975 118.629 207.244 119.692C205.759 120.467 204.263 121.221 202.756 121.953C196.877 124.815 190.477 128.107 183.935 129.056L187.041 132.162C187.906 129.308 188.435 126.362 188.618 123.385C188.793 120.764 188.657 118.364 186.618 116.457C185.618 115.547 184.316 115.042 182.965 115.039C181.613 115.037 180.309 115.537 179.306 116.443C177.555 117.931 176.676 120.117 175.645 122.11C173.246 126.772 170.496 131.739 169.246 136.858C168.579 139.72 168.353 142.668 168.577 145.598C168.755 148.238 169.549 150.891 169.348 153.522C169.326 153.832 169.388 153.304 169.389 153.298C169.362 153.487 169.328 153.676 169.292 153.863C169.208 154.296 169.116 154.729 169.02 155.16C168.79 156.18 168.537 157.195 168.278 158.209C167.817 160.013 167.331 161.812 166.841 163.61C165.984 166.749 170.855 168.088 171.711 164.952L171.721 164.957Z" fill="#211715"/>
<path d="M59.6926 105.965C59.731 107.451 59.6935 108.938 59.5803 110.419C59.5714 110.515 59.5033 111.062 59.5727 110.576C59.55 110.73 59.526 110.884 59.4982 111.038C59.4376 111.375 59.3631 111.711 59.2722 112.041C59.223 112.22 59.1611 112.394 59.1106 112.572C58.9755 113.039 59.1636 112.49 59.1636 112.49C59.204 112.533 58.8429 113.039 58.8139 113.086C58.6144 113.403 58.9225 112.998 58.92 112.96C58.92 113.035 58.6839 113.239 58.6371 113.29C58.4465 113.505 58.247 113.711 58.0425 113.912C57.5728 114.373 57.0754 114.807 56.5666 115.226C56.4125 115.353 56.2572 115.479 56.1007 115.605C56.0476 115.646 55.6259 115.973 55.9277 115.744C55.6209 115.978 55.3116 116.207 54.9997 116.434C54.3192 116.93 53.6273 117.411 52.9304 117.884C52.3524 118.222 51.9327 118.777 51.7635 119.425C51.5943 120.073 51.6896 120.762 52.0283 121.34C52.367 121.918 52.9214 122.338 53.5696 122.507C54.2178 122.676 54.9066 122.581 55.4845 122.242C58.2243 120.384 61.2645 118.401 63.1798 115.635C64.002 114.226 64.478 112.642 64.5686 111.013C64.7385 109.335 64.798 107.648 64.7467 105.963C64.7467 105.293 64.4806 104.651 64.0071 104.177C63.5335 103.704 62.8912 103.438 62.2215 103.438C61.5518 103.438 60.9096 103.704 60.436 104.177C59.9625 104.651 59.6964 105.293 59.6964 105.963L59.6926 105.965Z" fill="#211715"/>
<path d="M97.1221 106.129C97.0727 107.779 97.1335 109.43 97.3039 111.071C97.3872 112.712 97.8836 114.306 98.747 115.705C100.767 118.428 103.884 120.316 106.72 122.079C107.3 122.411 107.986 122.502 108.632 122.333C109.278 122.164 109.832 121.748 110.174 121.174C110.499 120.593 110.586 119.909 110.417 119.265C110.248 118.621 109.837 118.067 109.269 117.72C107.889 116.861 106.548 115.952 105.229 115.008C104.85 114.74 105.307 115.078 105.103 114.913C104.988 114.821 104.872 114.73 104.757 114.637C104.488 114.418 104.224 114.195 103.966 113.962C103.757 113.774 103.552 113.584 103.355 113.379C103.219 113.239 102.977 112.844 102.806 112.763C102.893 112.803 103.102 113.216 102.944 112.925C102.893 112.834 102.831 112.734 102.773 112.646C102.556 112.312 102.924 112.729 102.823 112.783C102.823 112.783 102.696 112.404 102.684 112.375C102.575 112.023 102.484 111.664 102.413 111.302C102.383 111.153 102.359 111.004 102.333 110.855C102.206 110.144 102.343 111.143 102.314 110.729C102.208 109.194 102.163 107.675 102.174 106.134C102.174 105.465 101.908 104.823 101.434 104.349C100.96 103.875 100.318 103.609 99.6484 103.609C98.9787 103.609 98.3365 103.875 97.8629 104.349C97.3894 104.823 97.1233 105.465 97.1233 106.134L97.1221 106.129Z" fill="#211715"/>
<path d="M163.232 175.572C159.021 164.327 156.802 152.281 151.935 141.291C149.438 135.651 144.837 132.05 139.392 129.477C134.954 127.378 130.427 125.457 125.923 123.519C120.834 121.331 115.721 119.191 110.694 116.866C110.111 116.547 109.428 116.463 108.785 116.632C108.143 116.801 107.589 117.209 107.238 117.773C106.905 118.352 106.814 119.039 106.984 119.686C107.153 120.332 107.57 120.886 108.145 121.227C116.875 125.267 125.82 128.803 134.58 132.79C136.717 133.706 138.797 134.75 140.809 135.916C143.181 137.378 145.152 139.406 146.544 141.82C148.007 144.643 149.175 147.61 150.03 150.674C150.905 153.286 151.71 155.921 152.486 158.565C154.297 164.736 156.105 170.887 158.363 176.914C158.555 177.55 158.985 178.088 159.563 178.417C160.141 178.746 160.823 178.841 161.469 178.681C162.112 178.499 162.658 178.072 162.989 177.491C163.32 176.909 163.409 176.221 163.236 175.575L163.232 175.572Z" fill="#211715"/>
<path d="M51.3512 118.726C44.1293 122.085 36.8179 125.252 29.5594 128.532C21.9841 131.956 13.5439 135.35 9.45068 143.096C6.40791 148.858 5.67184 155.859 4.81835 162.225C3.6669 170.81 2.93335 179.448 2.29324 188.084C1.36021 200.628 0.665799 213.189 0.00421855 225.749C-0.166227 228.997 4.884 228.987 5.05445 225.749C6.09732 205.953 7.0152 186.077 9.34715 166.381C9.88209 160.595 10.8977 154.863 12.3836 149.245C13.5461 145.154 16.1371 141.615 19.6862 139.271C22.9184 137.183 26.3308 135.389 29.8827 133.909C37.8734 130.267 45.9424 126.796 53.9041 123.092C54.4781 122.75 54.8948 122.196 55.0641 121.55C55.2335 120.904 55.142 120.217 54.8093 119.637C54.4611 119.07 53.9075 118.66 53.264 118.491C52.6205 118.322 51.9367 118.408 51.355 118.731L51.3512 118.726Z" fill="#211715"/>
<path d="M29.8632 242.251C30.5147 234.716 31.2874 227.189 31.8556 219.651C32.2151 215.163 32.1046 210.65 31.526 206.186C30.0463 194.776 27.674 183.534 25.7953 172.191C24.4986 164.363 23.4747 156.47 21.9382 148.679C21.3069 145.493 16.441 146.842 17.0672 150.022C18.403 156.793 19.331 163.644 20.4244 170.456C21.3574 176.264 22.476 182.042 23.5202 187.833C24.5517 193.549 25.5226 199.279 26.3192 205.038C26.9587 209.168 27.1703 213.353 26.9505 217.526C26.4127 225.78 25.52 234.012 24.8042 242.254C24.5239 245.492 29.5766 245.473 29.8544 242.254L29.8632 242.251Z" fill="#211715"/>
<path d="M82.0151 123.549H79.726C79.2781 123.16 78.7569 122.865 78.1933 122.681C70.3074 119.509 63.7282 114.67 60.8458 110.797C58.943 112.541 57.3969 114.638 56.293 116.971C58.4128 145.141 70.2745 168.14 79.9685 190.212C83.5324 183.804 86.7466 177.207 89.5967 170.451C93.3844 161.451 98.9472 145.705 100.644 141.084C103.315 133.126 105.251 124.939 106.43 116.627C105.354 114.428 103.872 112.452 102.062 110.803C99.1808 114.677 92.6016 119.515 84.7157 122.688C84.1517 122.872 83.6301 123.167 83.1817 123.555L82.0151 123.549Z" fill="#5394CF"/>
<path d="M139.557 150.254C137.801 163.999 135.672 177.644 133.244 191.288C132.192 197.194 131.148 203.119 130.466 209.082C130.096 213.619 130.177 218.182 130.709 222.704C131.374 230.664 132.191 238.612 132.815 246.576C133.067 249.794 138.117 249.822 137.865 246.576C137.308 239.476 136.602 232.389 135.981 225.295C135.565 220.532 134.908 215.652 135.332 210.87C136.33 199.649 138.994 188.592 140.79 177.485C142.254 168.438 143.442 159.35 144.607 150.259C144.604 149.591 144.337 148.95 143.864 148.478C143.391 148.005 142.751 147.738 142.082 147.734C141.417 147.751 140.785 148.022 140.315 148.492C139.845 148.962 139.573 149.595 139.557 150.259V150.254Z" fill="#211715"/>
<path d="M103.872 116.815C102.46 126.105 100.119 135.23 96.8834 144.053C93.674 152.942 90.5453 161.9 86.8094 170.585C84.1139 176.853 81.0635 182.947 77.7809 188.926C76.2166 191.777 80.5749 194.329 82.1417 191.475C87.5074 181.594 92.1694 171.346 96.093 160.808C99.1838 152.63 102.543 144.387 104.92 135.965C106.573 130.118 107.849 124.172 108.741 118.163C108.897 117.517 108.801 116.836 108.473 116.259C108.145 115.681 107.608 115.251 106.974 115.055C106.328 114.882 105.639 114.971 105.058 115.302C104.477 115.632 104.049 116.179 103.868 116.823L103.872 116.815Z" fill="#211715"/>
<path d="M53.7728 117.143C55.4142 137.888 62.5539 157.22 70.9133 176.097C73.1354 181.114 75.4143 186.106 77.6263 191.127C77.9674 191.702 78.5211 192.12 79.1676 192.289C79.814 192.459 80.5013 192.367 81.0807 192.034C81.6467 191.685 82.0565 191.131 82.2253 190.488C82.3941 189.844 82.3088 189.161 81.9872 188.578C74.225 170.958 65.805 153.542 61.5161 134.66C60.198 128.893 59.2979 123.039 58.8231 117.143C58.5706 113.925 53.5203 113.897 53.7728 117.143Z" fill="#211715"/>
<path d="M113.891 180.832C112.953 180.659 112.063 180.284 111.285 179.732C107.876 177.297 107.574 172.392 108.471 168.615C108.707 167.553 109.164 166.552 109.813 165.679C110.461 164.805 111.286 164.077 112.235 163.543C113.183 163.01 114.233 162.682 115.317 162.58C116.4 162.479 117.493 162.607 118.523 162.957C123.057 164.198 124.433 169.242 123.634 173.423C122.778 177.918 119.269 181.851 113.891 180.832Z" fill="white"/>
<path d="M114.563 178.404C114.127 178.331 113.702 178.2 113.301 178.014C113.132 177.921 112.971 177.821 112.805 177.724C112.13 177.332 112.981 177.964 112.504 177.5C112.335 177.335 112.17 177.161 111.999 176.995C111.678 176.691 111.864 176.856 111.947 176.963C111.617 176.527 111.34 176.053 111.122 175.552C111.298 175.945 111.136 175.581 111.112 175.502C111.041 175.276 110.96 175.054 110.896 174.825C110.791 174.44 110.707 174.05 110.643 173.656C110.735 174.2 110.622 173.421 110.617 173.367C110.596 173.126 110.583 172.884 110.578 172.64C110.564 172.154 110.575 171.669 110.61 171.185C110.627 170.945 110.65 170.707 110.677 170.467C110.665 170.575 110.595 170.928 110.686 170.431C110.761 170.025 110.826 169.617 110.939 169.217C110.977 169.072 111.018 168.928 111.065 168.786C111.098 168.686 111.137 168.589 111.17 168.49C111.29 168.131 111.394 168.443 111.091 168.661C111.355 168.471 111.61 167.641 111.802 167.344C111.928 167.145 112.445 166.611 111.944 167.111C112.196 166.858 112.401 166.578 112.654 166.334C112.755 166.237 112.867 166.15 112.965 166.052C113.368 165.65 112.502 166.325 112.995 166.024C113.248 165.868 113.488 165.699 113.753 165.559C113.872 165.496 114.43 165.279 113.822 165.505C113.973 165.449 114.122 165.392 114.273 165.344C114.425 165.296 114.589 165.251 114.749 165.218C114.887 165.185 115.728 165.105 115.103 165.14C115.479 165.113 115.856 165.104 116.233 165.115C116.269 165.115 117.054 165.185 116.541 165.115C116.758 165.142 116.975 165.188 117.19 165.233C117.655 165.324 118.111 165.455 118.554 165.624C118.13 165.454 118.59 165.649 118.689 165.709C118.915 165.844 119.141 165.973 119.361 166.121C118.915 165.82 119.475 166.226 119.534 166.281C119.64 166.38 119.744 166.483 119.843 166.588C119.896 166.644 120.336 167.198 120.004 166.746C120.13 166.921 120.256 167.103 120.366 167.29C120.453 167.435 120.899 168.351 120.698 167.866C120.867 168.28 121.004 168.706 121.109 169.141C121.163 169.361 121.201 169.583 121.249 169.804C121.407 170.512 121.235 169.306 121.283 170.034C121.307 170.412 121.336 170.791 121.336 171.17C121.336 171.549 121.304 171.927 121.282 172.306C121.237 173.036 121.398 171.82 121.252 172.532C121.191 172.833 121.136 173.134 121.061 173.434C120.945 173.882 120.804 174.323 120.638 174.754C120.806 174.315 120.626 174.78 120.572 174.888C120.446 175.126 120.333 175.364 120.193 175.594C120.08 175.791 119.96 175.983 119.833 176.17C119.801 176.219 119.356 176.771 119.689 176.378C119.377 176.745 119.04 177.09 118.679 177.409C118.369 177.686 119.16 177.114 118.577 177.49C118.325 177.651 118.082 177.813 117.82 177.954C117.835 177.946 117.177 178.252 117.512 178.113C117.753 178.012 117.037 178.263 116.953 178.287C116.727 178.349 116.5 178.398 116.27 178.442C116.782 178.344 116.042 178.456 115.981 178.46C115.729 178.473 115.476 178.473 115.224 178.46C115.05 178.452 114.875 178.44 114.702 178.422C114.931 178.457 114.885 178.449 114.568 178.394C113.923 178.236 113.241 178.331 112.663 178.66C112.085 178.988 111.655 179.526 111.461 180.162C111.289 180.808 111.378 181.496 111.709 182.077C112.039 182.659 112.585 183.087 113.229 183.269C115.797 183.821 118.479 183.402 120.758 182.095C122.721 180.861 124.259 179.054 125.164 176.918C127.058 172.547 126.846 167.094 123.701 163.343C122.071 161.61 119.901 160.48 117.546 160.139C115.191 159.799 112.791 160.267 110.737 161.468C109.398 162.348 108.263 163.504 107.409 164.859C106.554 166.214 106 167.736 105.782 169.323C105.281 171.985 105.499 174.733 106.414 177.283C106.963 178.77 107.873 180.096 109.064 181.142C110.254 182.187 111.687 182.92 113.231 183.273C113.877 183.435 114.56 183.341 115.139 183.012C115.717 182.683 116.147 182.143 116.337 181.505C116.506 180.859 116.415 180.172 116.084 179.593C115.752 179.013 115.206 178.586 114.563 178.404Z" fill="#211715"/>
<path d="M120.677 161.797C121.855 153.348 122.109 144.797 121.434 136.293C120.744 129.234 119.217 121.198 113.84 116.092C111.483 113.856 107.906 117.422 110.269 119.664C114.941 124.101 116.025 131.532 116.504 137.647C117.013 145.702 116.721 153.789 115.631 161.787C115.635 162.455 115.903 163.095 116.375 163.568C116.848 164.041 117.488 164.308 118.157 164.312C118.821 164.296 119.455 164.025 119.925 163.555C120.395 163.085 120.666 162.451 120.682 161.787L120.677 161.797Z" fill="#211715"/>
<path d="M47.625 154.07C47.3081 147.312 46.6945 140.473 47.2955 133.715C47.7563 128.532 49.3345 123.595 53.1879 119.953C55.5526 117.713 51.9771 114.145 49.6174 116.381C39.5788 125.884 41.994 141.674 42.5748 154.075C42.7263 157.311 47.7778 157.33 47.625 154.075V154.07Z" fill="#211715"/>
<path d="M214.306 127.301C211.236 128.594 208.257 130.107 205.216 131.457C203.806 132.088 202.4 132.72 200.993 133.351C200.31 133.655 199.625 133.959 198.94 134.259C198.62 134.399 198.298 134.536 197.978 134.675C197.69 134.802 197.888 134.711 198.061 134.641C197.903 134.704 197.748 134.767 197.591 134.834C196.956 135.029 196.419 135.459 196.091 136.036C195.762 136.614 195.667 137.295 195.824 137.94C196.004 138.585 196.432 139.132 197.013 139.463C197.595 139.793 198.284 139.882 198.93 139.708C201.767 138.549 204.547 137.257 207.346 136.011C208.717 135.401 210.096 134.815 211.452 134.174C212.251 133.795 213.048 133.408 213.851 133.026C214.239 132.841 214.628 132.655 215.021 132.473L215.457 132.274C215.513 132.249 216.214 131.946 215.656 132.18C216.29 131.984 216.826 131.553 217.154 130.976C217.482 130.399 217.579 129.719 217.424 129.073C217.243 128.429 216.815 127.882 216.233 127.551C215.651 127.22 214.963 127.132 214.316 127.306L214.306 127.301Z" fill="#211715"/>
<path d="M194.427 137.731C197.396 140.201 200.24 142.81 202.959 145.559C203.192 145.8 203.471 145.992 203.779 146.125C204.087 146.257 204.418 146.327 204.754 146.33C205.089 146.333 205.421 146.269 205.732 146.142C206.042 146.015 206.324 145.827 206.561 145.59C206.798 145.353 206.986 145.071 207.113 144.761C207.24 144.45 207.303 144.118 207.3 143.783C207.298 143.447 207.228 143.116 207.096 142.808C206.963 142.5 206.771 142.221 206.53 141.988C203.814 139.241 200.969 136.632 197.997 134.16C197.513 133.703 196.878 133.44 196.212 133.422C195.713 133.422 195.225 133.57 194.809 133.848C194.394 134.125 194.071 134.519 193.88 134.981C193.689 135.442 193.639 135.95 193.736 136.439C193.833 136.929 194.074 137.379 194.427 137.732V137.731Z" fill="#211715"/>
<path d="M154.998 194.711C159.009 182.652 161.874 172.687 165.148 161.445C172.772 163.987 187.383 168.74 193.025 170.23C190.534 182.573 188.125 195.822 184.108 208.342C181.316 217.038 177.117 225.312 168.571 228.543C165.375 229.808 161.933 230.326 158.507 230.058C155.081 229.79 151.761 228.743 148.801 226.996C143.694 224.02 137.736 217.538 134.016 213.727" fill="white"/>
<path d="M157.432 195.385C161.086 184.378 164.339 173.252 167.582 162.119L164.476 163.886C173.702 166.961 182.951 170.169 192.353 172.67L190.585 169.564C189.092 176.974 187.682 184.401 185.973 191.765C184.53 198.768 182.531 205.644 179.995 212.33C177.902 217.457 174.781 222.47 169.806 225.208C166.909 226.756 163.679 227.575 160.394 227.593C157.109 227.611 153.87 226.828 150.956 225.311C145.015 222.179 140.418 216.69 135.795 211.944C133.523 209.613 129.955 213.186 132.225 215.516C136.813 220.227 141.341 225.344 146.97 228.848C150.183 230.828 153.798 232.067 157.55 232.472C161.302 232.878 165.098 232.44 168.66 231.192C182.431 226.341 186.448 210.739 189.647 198.068C191.914 189.088 193.627 179.985 195.455 170.911C195.619 170.265 195.527 169.581 195.197 169.002C194.868 168.422 194.327 167.993 193.688 167.804C184.285 165.303 175.037 162.094 165.81 159.021C165.164 158.852 164.478 158.942 163.898 159.272C163.317 159.603 162.889 160.147 162.704 160.788C159.461 171.92 156.208 183.047 152.555 194.053C151.528 197.145 156.403 198.472 157.424 195.396L157.432 195.385Z" fill="#211715"/>
<path d="M45.4694 192.435C45.27 192.377 45.0907 191.803 45.1185 192.217C45.0869 191.791 46.2219 191.215 46.1651 191.596C46.1651 191.609 45.6601 190.827 45.6816 190.863C45.2866 189.788 45.0192 188.67 44.8849 187.532C44.3672 185.007 43.8748 182.482 43.4405 179.942C42.4383 174.8 42.0295 169.561 42.2221 164.326C42.3484 162.155 42.6199 159.305 44.4506 157.852C45.1883 157.274 46.0877 156.94 47.0239 156.896C47.9601 156.853 48.8867 157.101 49.675 157.608C51.7595 158.745 52.6736 160.765 53.5107 162.911C54.5225 165.579 55.3617 168.31 56.0232 171.086C56.7807 174.126 57.3741 177.203 57.8791 180.295C58.1493 181.954 58.3942 183.618 58.624 185.285C58.7212 185.984 58.8437 186.689 58.8866 187.396C58.857 187.718 58.857 188.043 58.8866 188.365L58.9056 188.464C60.2237 188.074 60.6155 188.401 60.081 189.444C62.9407 187.897 60.3941 183.535 57.5319 185.083C53.1698 187.441 56.0964 194.696 60.8499 193.076C65.6476 191.442 63.6061 184.576 63.0619 180.981C62.4144 176.459 61.4979 171.979 60.3171 167.566C59.22 163.595 57.9852 158.912 55.2909 155.698C54.0602 154.241 52.4653 153.137 50.6687 152.498C48.8721 151.859 46.9382 151.708 45.0642 152.061C41.024 153.024 38.5797 156.334 37.7136 160.233C35.903 168.374 37.7792 177.404 39.3309 185.443C40.0165 188.997 40.3409 195.417 44.8041 196.373C50.4969 197.593 52.1875 189.146 46.8128 187.567C43.688 186.65 42.3535 191.522 45.4707 192.437L45.4694 192.435Z" fill="#211715"/>
<path d="M77.438 201.423C77.6173 211.194 77.3623 220.968 77.5403 230.739C77.5996 233.985 82.6511 233.997 82.5905 230.739C82.4125 220.968 82.6675 211.194 82.4882 201.423C82.4289 198.177 77.3787 198.167 77.438 201.423Z" fill="#211715"/>
<path d="M96.8967 138.514C100.706 134.047 104.031 129.188 106.814 124.018C107.493 122.735 108.14 121.436 108.756 120.121C109.274 119.34 109.546 118.421 109.535 117.483C109.343 116.709 109.022 115.973 108.585 115.305C107.363 112.958 105.76 110.83 103.842 109.008C103.565 108.743 103.232 108.544 102.868 108.425C102.504 108.306 102.117 108.269 101.737 108.318C101.357 108.367 100.993 108.5 100.671 108.708C100.349 108.916 100.078 109.193 99.8764 109.519C97.892 111.857 95.5618 113.878 92.9664 115.511C91.2594 116.636 89.4889 117.66 87.6636 118.581C85.7913 119.336 83.9594 120.187 82.1753 121.132C78.3447 123.613 82.4632 126.983 84.3709 128.969C87.3821 132.105 90.5208 135.196 93.3351 138.514C93.8112 138.982 94.4524 139.245 95.1203 139.245C95.7883 139.245 96.4295 138.982 96.9056 138.514C97.3667 138.034 97.6243 137.394 97.6243 136.728C97.6243 136.062 97.3667 135.422 96.9056 134.942C94.633 132.258 92.0712 129.837 89.68 127.262C88.6699 126.174 87.6599 125.09 86.6107 124.044C86.314 123.749 86.0211 123.453 85.7269 123.16C85.6259 123.06 85.5375 122.949 85.439 122.847C85.9541 123.386 85.5653 123.015 85.3393 122.608L85.684 123.882L85.7143 123.545L84.9757 125.33C84.7989 125.514 85.6158 125.028 85.8304 124.934C86.4617 124.657 87.093 124.405 87.7243 124.127C88.7065 123.692 89.6745 123.229 90.6281 122.738C92.5552 121.748 94.4186 120.638 96.2074 119.415C99.2639 117.416 101.978 114.936 104.245 112.072L100.279 112.583C102.184 114.468 103.741 116.672 104.881 119.097V116.544C101.868 123.163 97.9849 129.351 93.3338 134.942C92.8764 135.424 92.6213 136.063 92.6213 136.728C92.6213 137.392 92.8776 138.032 93.3351 138.514C93.8108 138.98 94.4491 139.241 95.1153 139.241C95.7814 139.241 96.421 138.98 96.8967 138.514Z" fill="#211715"/>
<path d="M69.5727 134.942C64.9212 129.351 61.0373 123.163 58.0241 116.544V119.093C59.1643 116.669 60.722 114.464 62.6261 112.58L58.6604 112.068C60.9277 114.932 63.6421 117.412 66.6991 119.411C68.4877 120.634 70.3506 121.744 72.2771 122.734C73.2324 123.227 74.2004 123.69 75.181 124.123C75.8123 124.401 76.4435 124.653 77.0748 124.93C77.2895 125.025 78.1063 125.511 77.9308 125.326L77.2011 123.545L77.2326 123.882L77.5773 122.608C77.4107 122.907 76.8198 123.483 77.4763 122.847C77.3753 122.944 77.2907 123.061 77.1897 123.16C76.9233 123.412 76.6658 123.683 76.4031 123.944C75.3161 125.022 74.2732 126.138 73.2316 127.262C70.8416 129.837 68.2799 132.259 66.006 134.942C65.5485 135.424 65.2935 136.063 65.2935 136.728C65.2935 137.392 65.5485 138.032 66.006 138.514C66.4823 138.982 67.1237 139.245 67.7919 139.245C68.46 139.245 69.1014 138.982 69.5778 138.514C72.3882 135.196 75.5257 132.106 78.5419 128.969C80.4496 126.983 84.5782 123.619 80.7375 121.132C78.9515 120.186 77.117 119.334 75.2416 118.581C73.4158 117.661 71.6452 116.637 69.9388 115.511C67.343 113.878 65.0123 111.857 63.0276 109.519C62.8264 109.193 62.555 108.916 62.233 108.708C61.911 108.5 61.5467 108.367 61.1667 108.318C60.7866 108.269 60.4004 108.306 60.0363 108.425C59.6721 108.544 59.3392 108.743 59.0619 109.008C57.1871 110.784 55.6155 112.854 54.4094 115.138C54.006 115.769 53.6728 116.443 53.4158 117.148C53.2754 118.117 53.5004 119.104 54.047 119.918C54.6952 121.3 55.374 122.667 56.0835 124.018C58.8673 129.187 62.1917 134.046 66.0009 138.514C66.4773 138.982 67.1187 139.245 67.7868 139.245C68.455 139.245 69.0964 138.982 69.5727 138.514C70.0333 138.033 70.2905 137.393 70.2905 136.728C70.2905 136.062 70.0333 135.422 69.5727 134.942Z" fill="#211715"/>
<path d="M96.0122 195.595L106.733 184.429C107.206 183.955 107.472 183.313 107.472 182.643C107.472 181.973 107.206 181.331 106.733 180.857C106.259 180.383 105.617 180.117 104.947 180.117C104.277 180.117 103.634 180.383 103.161 180.857L92.4405 192.024C91.967 192.498 91.7011 193.14 91.7012 193.81C91.7013 194.48 91.9674 195.122 92.4411 195.595C92.9147 196.069 93.5571 196.335 94.2268 196.335C94.8965 196.335 95.5388 196.068 96.0122 195.595Z" fill="#211715"/>
<path d="M114.434 78.7713C114.088 80.7268 113.492 82.6296 112.66 84.4326C112.449 84.9377 112.25 85.4427 112.056 85.9578C111.921 86.3126 112.309 85.4351 111.992 86.0904C111.91 86.2608 111.832 86.4325 111.748 86.603C110.575 88.9554 109.209 91.2074 107.667 93.3362C104.165 98.2602 99.3867 103.615 93.2734 105.051C90.117 105.794 91.4502 110.665 94.6167 109.921C101.852 108.222 107.425 102.212 111.64 96.432C113.321 94.1678 114.803 91.7625 116.07 89.243C117.611 86.3839 118.703 83.3053 119.31 80.1147C119.465 79.4693 119.369 78.7889 119.041 78.212C118.712 77.635 118.177 77.2048 117.542 77.0088C116.896 76.8353 116.208 76.9236 115.626 77.2545C115.045 77.5854 114.617 78.1323 114.436 78.7764L114.434 78.7713Z" fill="#211715"/>
<path d="M42.1213 78.3385C43.5822 85.8879 46.9071 92.9522 51.7938 98.8892C56.7632 104.929 63.5356 110.113 71.443 111.323C72.0884 111.479 72.7692 111.383 73.3464 111.055C73.9236 110.726 74.3537 110.19 74.5489 109.555C74.7217 108.909 74.6331 108.221 74.3023 107.639C73.9715 107.058 73.4251 106.63 72.7813 106.448C65.6289 105.355 59.854 100.774 55.358 95.3149C51.088 89.9981 48.2105 83.7009 46.986 76.9926C46.3749 73.8047 41.5065 75.1543 42.115 78.3347L42.1213 78.3385Z" fill="#211715"/>
<path d="M106.665 7.48306C99.9909 3.28672 92.3986 0.770863 84.539 0.150998C76.6793 -0.468866 68.7865 0.825735 61.5366 3.92391C55.6815 6.51899 50.4217 10.2889 46.0831 14.9999C41.7445 19.7109 38.4197 25.2627 36.3145 31.3113C33.3385 40.3661 33.0795 50.0943 35.5696 59.2946C36.3776 62.4397 41.2511 61.1064 40.4393 57.9513C37.0026 44.5757 39.5656 30.1043 48.7646 19.5695C55.5523 11.8904 64.8621 6.8914 75.0127 5.47511C85.1634 4.05882 95.4859 6.31863 104.116 11.8465C106.862 13.6027 109.399 9.23296 106.665 7.48558V7.48306Z" fill="#211715"/>
<path d="M126.134 59.2967C128.498 50.3308 128.33 40.8852 125.65 32.009C123.425 24.9721 119.497 18.5933 114.215 13.4393C111.889 11.1667 108.315 14.7334 110.644 17.0111C115.319 21.5383 118.802 27.1523 120.78 33.3524C123.223 41.3472 123.391 49.8646 121.265 57.9495C120.487 61.1059 125.355 62.4518 126.134 59.2929V59.2967Z" fill="#211715"/>
<path d="M119.708 62.7987C120.018 62.5546 120.375 62.3777 120.757 62.2792C121.139 62.1807 121.538 62.1629 121.927 62.2268C122.316 62.2907 122.688 62.4349 123.019 62.6503C123.349 62.8657 123.631 63.1476 123.847 63.478C124.24 64.4469 124.41 65.4923 124.342 66.5359C124.378 67.7697 124.29 69.004 124.079 70.2201C123.657 72.6613 122.773 74.9994 121.473 77.1086C120.926 78.0189 120.232 78.8321 119.419 79.515C119.172 79.7877 118.851 79.9827 118.495 80.0764C118.139 80.1701 117.763 80.1584 117.414 80.0428C114.27 79.2044 112.929 84.0754 116.072 84.9137C120.087 85.9843 123.232 83.3986 125.421 80.2801C127.526 77.117 128.83 73.4901 129.223 69.7112C129.652 66.195 129.642 61.7395 126.796 59.1828C125.317 57.8937 123.42 57.1872 121.458 57.1954C119.497 57.2035 117.605 57.9257 116.138 59.227C115.669 59.7031 115.406 60.3446 115.406 61.0129C115.406 61.6811 115.669 62.3226 116.138 62.7987C116.618 63.259 117.257 63.5159 117.923 63.5159C118.588 63.5159 119.228 63.259 119.708 62.7987Z" fill="#211715"/>
<path d="M45.4839 59.2319C44.0152 57.9324 42.1241 57.2113 40.163 57.2032C38.202 57.1951 36.3049 57.9004 34.8254 59.1877C31.9026 61.8138 31.9721 66.4145 32.4367 70.004C32.866 73.8078 34.2349 77.445 36.42 80.588C38.6813 83.6901 42.0536 86.3226 46.0875 85.4337C46.4072 85.3455 46.7064 85.1952 46.9681 84.9913C47.2297 84.7875 47.4487 84.5341 47.6124 84.2456C47.7761 83.9572 47.8814 83.6393 47.9223 83.3101C47.9632 82.9809 47.9388 82.6469 47.8506 82.3272C47.7624 82.0074 47.6121 81.7082 47.4082 81.4465C47.2044 81.1849 46.951 80.966 46.6625 80.8022C46.374 80.6385 46.0562 80.5332 45.727 80.4923C45.3978 80.4515 45.0638 80.4758 44.7441 80.564C43.0232 80.9428 41.1837 78.679 40.3516 77.4266C38.9736 75.2977 38.032 72.9163 37.5816 70.4206C37.3592 69.2252 37.2572 68.0104 37.2773 66.7946C37.1852 65.6664 37.3582 64.5323 37.7823 63.4829C37.9978 63.1525 38.2798 62.8707 38.6102 62.6553C38.9406 62.4399 39.3122 62.2956 39.7014 62.2317C40.0906 62.1678 40.4888 62.1857 40.8708 62.2842C41.2527 62.3826 41.6099 62.5595 41.9197 62.8036C42.4021 63.2605 43.0412 63.5151 43.7056 63.5151C44.37 63.5151 45.0092 63.2605 45.4915 62.8036C45.9598 62.3271 46.2222 61.6858 46.2222 61.0177C46.2222 60.3497 45.9598 59.7083 45.4915 59.2319H45.4839Z" fill="#211715"/>
<path d="M74.4751 91.4116C76.7804 92.608 79.3489 93.207 81.9456 93.154C84.6899 93.2583 87.3902 92.4419 89.6169 90.8346C89.8515 90.6002 90.0376 90.3217 90.1646 90.0153C90.2915 89.7089 90.3569 89.3804 90.3569 89.0488C90.3569 88.7171 90.2915 88.3886 90.1646 88.0822C90.0376 87.7758 89.8515 87.4974 89.6169 87.2629C89.1336 86.808 88.4948 86.5547 87.831 86.5547C87.1673 86.5547 86.5285 86.808 86.0452 87.2629C86.9163 86.5849 85.9985 87.2629 85.722 87.403C85.5086 87.5154 84.9316 87.6934 85.722 87.4283C85.5174 87.4977 85.3192 87.5836 85.1134 87.6492C84.8609 87.7325 84.592 87.8032 84.3268 87.8651C84.0175 87.8978 83.7114 87.9556 83.4115 88.0381C83.664 87.927 83.8117 87.9901 83.4291 88.028C83.2612 88.0444 83.0946 88.0583 82.9241 88.0696C82.5214 88.0962 82.1186 88.1063 81.7146 88.1037C81.3535 88.1037 80.9924 88.0907 80.6313 88.0646C80.463 88.0536 80.2976 88.0398 80.1351 88.0229C80.0417 88.0141 79.947 88.004 79.8536 87.9914C79.6554 87.9674 79.7273 87.9775 80.0745 88.0217C79.9306 88.0911 79.4205 87.9055 79.2602 87.8689C79.0001 87.8125 78.7417 87.7456 78.485 87.6681C78.2628 87.6012 78.0456 87.5217 77.8259 87.4472C77.254 87.2502 78.3499 87.6997 77.8259 87.4535C77.5532 87.3247 77.2839 87.1905 77.0179 87.0508C76.4409 86.7366 75.7643 86.6596 75.1316 86.8362C74.4988 87.0128 73.9598 87.429 73.6289 87.9965C73.298 88.5639 73.2013 89.238 73.3593 89.8757C73.5173 90.5133 73.9175 91.0643 74.4751 91.4116Z" fill="#211715"/>
<path d="M80.356 74.2131C80.6845 75.3984 80.9476 76.6009 81.1438 77.8152L81.0504 77.1447C81.074 77.3095 81.0786 77.4764 81.0643 77.6422L81.1552 76.9705C81.1435 77.0465 81.1249 77.1213 81.0996 77.194L81.3521 76.5905C81.3309 76.6412 81.3042 76.6895 81.2726 76.7344L81.6678 76.2231C81.6331 76.2661 81.5938 76.3051 81.5504 76.3392L82.0617 75.9453C81.9698 76.0013 81.8745 76.0515 81.7764 76.0956L82.3786 75.843C82.2242 75.9082 82.0628 75.9552 81.8976 75.9832L82.5692 75.8923C82.4195 75.91 82.2682 75.91 82.1185 75.8923L82.7889 75.9819C82.6185 75.9579 82.4518 75.9163 82.2839 75.8935C81.9573 75.7883 81.6084 75.773 81.2739 75.8494C80.9397 75.8639 80.6155 75.9672 80.3345 76.1486C79.7564 76.4866 79.3362 77.0405 79.1665 77.6883C78.9967 78.3361 79.0912 79.0248 79.4293 79.6029C79.5889 79.8886 79.8049 80.1388 80.0643 80.3382C80.3237 80.5377 80.621 80.6823 80.938 80.7632C81.385 80.8238 81.8218 80.9362 82.2751 80.9564C82.988 80.9588 83.6909 80.7876 84.3229 80.4577C84.7341 80.2635 85.0974 79.9811 85.3872 79.6307C85.677 79.2802 85.886 78.8703 85.9996 78.43C86.1501 77.7346 86.1441 77.0144 85.9819 76.3216C85.7862 75.16 85.5186 74.0098 85.2244 72.871C85.0436 72.2372 84.6289 71.6957 84.0641 71.3559C83.4743 71.0182 82.7749 70.9275 82.1185 71.1034C81.4834 71.2812 80.9421 71.6986 80.6085 72.2675C80.2786 72.8599 80.1883 73.5561 80.356 74.2131Z" fill="#211715"/>
<path d="M62.1385 63.9168C61.5653 65.7803 61.939 70.068 65.4691 70.4328C70.1406 70.4038 70.3843 65.221 68.8136 62.7843C67.5271 60.7894 63.7457 59.9599 62.1385 63.9168Z" fill="#211715"/>
<path d="M100.982 63.9168C101.556 65.7803 101.183 70.068 97.6525 70.4328C92.981 70.4038 92.7373 65.221 94.308 62.7843C95.5932 60.7894 99.3759 59.9599 100.982 63.9168Z" fill="#211715"/>
<path d="M78.9544 65.6959C79.4681 65.5688 79.9881 65.4694 80.5124 65.3979L79.8407 65.4888C81.0198 65.3407 82.2129 65.3441 83.3911 65.4989L82.7206 65.408C83.3758 65.4998 84.0238 65.6369 84.6599 65.8184C84.9797 65.9066 85.3137 65.9309 85.6428 65.8901C85.972 65.8492 86.2899 65.7439 86.5784 65.5802C86.8668 65.4165 87.1202 65.1975 87.3241 64.9359C87.5279 64.6742 87.6782 64.375 87.7665 64.0552C87.8547 63.7355 87.879 63.4015 87.8381 63.0723C87.7973 62.7431 87.692 62.4253 87.5283 62.1368C87.3645 61.8483 87.1456 61.5949 86.8839 61.3911C86.6223 61.1872 86.323 61.0369 86.0033 60.9487C83.265 60.177 80.3726 60.1334 77.6123 60.8224C76.9695 61.0053 76.4241 61.4332 76.0936 62.014C75.763 62.5949 75.6737 63.2823 75.8447 63.9283C76.0335 64.5673 76.4624 65.1084 77.0415 65.438C77.6206 65.7675 78.3048 65.86 78.9506 65.6959H78.9544Z" fill="#211715"/>
<path d="M53.8014 60.0857C52.5906 59.806 51.3495 59.6787 50.1071 59.707C49.4398 59.7183 48.8017 59.9828 48.3219 60.4468C47.8711 60.9352 47.6088 61.568 47.582 62.2321C47.582 62.9018 47.8481 63.5441 48.3216 64.0176C48.7952 64.4912 49.4374 64.7572 50.1071 64.7572C50.7708 64.7367 51.4349 64.7701 52.0931 64.8569L51.4215 64.7673C51.7699 64.8153 52.1155 64.8776 52.458 64.9542C52.7847 65.0592 53.1335 65.0745 53.4681 64.9984C53.8018 64.9839 54.1257 64.8806 54.4062 64.6991C54.6939 64.5464 54.9377 64.3226 55.1144 64.0489C55.3371 63.8068 55.4929 63.5109 55.5664 63.1904C55.6546 62.8704 55.6787 62.5361 55.6376 62.2068C55.5964 61.8774 55.4907 61.5594 55.3266 61.271C55.1624 60.9825 54.943 60.7292 54.6808 60.5256C54.4187 60.3221 54.119 60.1721 53.7989 60.0845L53.8014 60.0857Z" fill="#211715"/>
<path d="M110.747 64.9568C111.089 64.8802 111.434 64.818 111.784 64.77L111.112 64.8596C111.77 64.7728 112.434 64.7394 113.098 64.7599C113.436 64.7748 113.772 64.6999 114.071 64.5427C114.522 64.3447 114.908 64.0226 115.182 63.6139C115.457 63.2053 115.61 62.727 115.623 62.2348C115.621 61.5656 115.355 60.9243 114.883 60.4495C114.401 59.9901 113.764 59.7264 113.098 59.7096C112.581 59.6926 112.064 59.709 111.549 59.7589C110.827 59.824 110.111 59.9337 109.403 60.0872C109.082 60.1607 108.786 60.3165 108.544 60.5391C108.27 60.7159 108.046 60.9597 107.894 61.2474C107.712 61.5279 107.609 61.8518 107.595 62.1855C107.518 62.5201 107.534 62.8689 107.639 63.1956C107.815 63.8318 108.232 64.3748 108.8 64.7106L109.403 64.9632C109.842 65.0831 110.306 65.0831 110.746 64.9632L110.747 64.9568Z" fill="#211715"/>
<path d="M97.4144 72.842C95.5616 72.8665 93.7311 72.4355 92.0839 71.587C91.9462 71.505 91.1029 70.8825 91.4425 71.1704C91.0949 70.8752 90.7708 70.5535 90.4728 70.2083C90.4135 70.1414 90.1938 69.8295 90.4476 70.1856C90.3154 70.0004 90.1892 69.8106 90.0688 69.6162C89.9691 69.452 89.8757 69.2841 89.7873 69.1111C89.7406 69.0228 89.4186 68.2993 89.6029 68.7564C88.8988 67.1359 88.6106 65.3652 88.7646 63.6051C88.7343 64.042 88.7507 63.6645 88.7646 63.566C88.8113 63.3349 88.8719 63.1102 88.9388 62.8842C89.1434 62.1936 88.7091 63.263 89.0361 62.6317C89.1055 62.4941 89.18 62.3565 89.2595 62.2239C89.6377 61.6645 90.1153 61.1793 90.6685 60.7922C92.37 59.7827 94.2983 59.2182 96.2756 59.1508C98.5761 58.9469 100.893 59.2672 103.052 60.0876C103.671 60.3858 104.256 60.7507 104.795 61.176C104.947 61.3136 105.592 62.0295 105.355 61.7189C105.637 62.0916 105.875 62.4953 106.065 62.9221C105.877 62.5029 106.078 62.9739 106.11 63.0875C106.163 63.2794 106.225 63.4662 106.27 63.6632C106.28 63.7061 106.403 64.4851 106.342 63.9624C106.362 64.1304 106.372 64.3008 106.38 64.4675C106.399 65.0151 106.382 65.5634 106.328 66.1088C106.328 66.153 106.267 66.605 106.319 66.2489C106.269 66.5974 106.193 66.9459 106.113 67.288C105.997 67.7867 105.84 68.2752 105.645 68.7488C105.797 68.3927 105.622 68.774 105.595 68.8283C105.447 69.12 105.289 69.4078 105.113 69.6843C105.143 69.6389 104.692 70.2942 104.891 70.0265C104.99 69.9002 104.539 70.433 104.461 70.5151C104.292 70.6931 104.114 70.8598 103.932 71.0201C103.553 71.356 104.119 70.9217 103.663 71.2398C101.808 72.4422 99.6092 73.0008 97.4056 72.8294C94.1545 72.7852 94.1532 77.8354 97.4056 77.8796C103.079 77.9566 108.344 75.5767 110.515 70.0858C112.458 65.1758 111.398 59.4614 106.881 56.4414C104.391 54.9455 101.55 54.1361 98.6454 54.0955C95.4887 53.8719 92.3251 54.4214 89.4287 55.6965C87.0215 56.7668 85.1362 58.7469 84.1853 61.2037C83.4819 63.6578 83.513 66.2643 84.275 68.7008C84.932 71.3902 86.5102 73.7645 88.7356 75.4113C91.3141 77.0807 94.3344 77.9404 97.4056 77.8796C100.665 77.9907 100.662 72.9405 97.4144 72.842Z" fill="#211715"/>
<path d="M65.5962 77.878C68.3844 77.8556 71.12 77.1165 73.5402 75.7317C75.6155 74.3901 77.2014 72.4136 78.0614 70.0969C78.9987 67.6645 79.2952 65.0321 78.9225 62.4521C78.6825 61.2082 78.1874 60.0274 77.4683 58.9844C76.7493 57.9413 75.8219 57.0586 74.7447 56.3918C72.2046 54.8625 69.2934 54.0598 66.3285 54.0713C63.2116 53.9167 60.1021 54.4985 57.2519 55.7694C54.851 56.8707 52.9658 58.8535 51.9871 61.307C51.1646 63.737 51.1178 66.3627 51.8532 68.8205C52.5577 71.564 54.2132 73.9684 56.5247 75.6054C59.2219 77.3217 62.402 78.119 65.5899 77.878C68.8296 77.7644 68.846 72.7142 65.5899 72.8278C64.5469 72.8862 63.5007 72.8299 62.4701 72.6599C62.0103 72.5687 61.5563 72.4506 61.1103 72.3064C60.7288 72.2019 60.3638 72.0447 60.0258 71.8392C59.3259 71.5185 58.71 71.0396 58.2266 70.4403C58.1193 70.3229 58.012 70.2017 57.9122 70.078C58.2254 70.4656 57.7582 69.8406 57.7405 69.8141C57.4743 69.4067 57.2413 68.9786 57.0436 68.5339C57.2431 68.9871 56.9413 68.2271 56.935 68.2094C56.882 68.049 56.8315 67.8874 56.7848 67.7246C56.6379 67.2225 56.5265 66.7108 56.4515 66.1931C56.4691 66.313 56.4906 66.587 56.4439 66.058C56.4186 65.7815 56.3984 65.5037 56.3909 65.226C56.3909 65.0101 56.3833 64.7942 56.3909 64.577C56.3909 64.4659 56.507 63.6452 56.4186 64.1326C56.4979 63.46 56.7281 62.814 57.0921 62.243C57.4562 61.6719 57.9445 61.1905 58.5208 60.8348C60.2141 59.8015 62.1464 59.2251 64.1291 59.1619C66.4535 58.9099 68.8045 59.219 70.9848 60.0634C70.7323 59.951 71.1388 60.1479 71.1489 60.153C71.3901 60.2729 71.6274 60.4055 71.8585 60.5419C72.0821 60.6739 72.2983 60.818 72.5062 60.9737C72.414 60.9017 72.2259 60.7287 72.5819 61.0519C72.7637 61.2161 72.9329 61.389 73.1033 61.5645C73.6185 62.0961 72.9771 61.3512 73.2296 61.7009C73.3435 61.8591 73.4493 62.023 73.5465 62.192C73.6235 62.3271 73.6967 62.4635 73.7637 62.6036C73.6669 62.3511 73.6698 62.3654 73.7725 62.6465C73.823 62.7943 73.8685 62.9432 73.9076 63.0948C73.9227 63.1554 74.0427 63.9053 73.9833 63.3612C74.0214 63.794 74.0273 64.2291 74.001 64.6628C74.0079 65.5377 73.8927 66.4093 73.6589 67.2524C73.537 67.7627 73.3783 68.2636 73.1841 68.751C73.2246 68.6513 73.3735 68.3546 73.1564 68.7902C73.02 69.0654 72.8773 69.3356 72.717 69.5969C72.6375 69.7232 72.5541 69.8494 72.4645 69.9757C72.2928 70.2118 72.289 70.2282 72.4506 70.0085C72.3559 70.1247 72.2562 70.2396 72.1552 70.3507C72.0289 70.4896 71.8938 70.6259 71.7549 70.7572C71.6842 70.8254 71.082 71.3228 71.4696 71.0312C69.738 72.2188 67.6831 72.8451 65.5835 72.8253C64.9182 72.8391 64.2839 73.1096 63.8134 73.5802C63.3428 74.0508 63.0723 74.685 63.0584 75.3504C63.0641 76.0208 63.3336 76.6619 63.8086 77.135C64.2835 77.6081 64.9258 77.8751 65.5962 77.878Z" fill="#211715"/>
<path d="M46.3742 62.1852C46.5446 59.3785 46.3616 55.88 47.5421 53.2589C48.9195 50.1997 52.5191 49.3071 54.9141 47.2681C57.7789 44.8276 59.1462 41.0512 61.5451 38.2206C63.4516 35.9682 67.1231 36.4997 69.652 37.155C73.0306 38.0312 76.0544 39.8884 79.3989 40.877C83.2548 42.0133 87.2685 41.7494 91.2354 41.6914C95.0824 41.6345 98.937 41.5929 102.785 41.6813C104.257 41.6749 105.727 41.7859 107.182 42.0133C107.787 42.1093 108.383 42.258 108.963 42.4577C109.616 42.7027 108.971 42.4262 109.52 42.7102C109.598 42.7506 110.198 43.1787 109.853 42.9211C110.388 43.3201 110.409 43.6786 110.661 44.4084C111.2 45.9563 111.718 47.5118 112.176 49.0874C113.253 52.8284 114.123 56.5744 114.917 60.3835C115.58 63.5639 120.448 62.218 119.787 59.0414C119.009 55.3131 118.157 51.6517 117.115 47.9877C116.435 45.5889 115.788 42.5764 114.359 40.4705C112.609 37.8911 109.529 37.2206 106.621 36.8646C102.754 36.538 98.8711 36.4537 94.994 36.6121C90.7013 36.631 86.0223 37.2838 81.8117 36.2965C78.0455 35.4127 74.7338 33.2663 70.9991 32.2904C67.5902 31.4066 63.55 31.1073 60.3318 32.8067C56.7739 34.6829 55.0821 39.0943 52.7754 42.1749C51.5027 43.8743 49.7452 44.6508 47.989 45.7492C46.0884 46.857 44.5049 48.4354 43.3908 50.3323C41.4704 53.8182 41.5588 58.3155 41.324 62.1852C41.127 65.4312 46.1785 65.4199 46.3742 62.1852Z" fill="#211715"/>
</svg>
