<svg width="231" height="249" viewBox="0 0 231 249" fill="none" xmlns="http://www.w3.org/2000/svg">
<path d="M179.858 103.215C188.672 101.565 196.663 97.3271 198.867 85.1781C199.71 80.5266 198.412 74.3934 198.328 63.5014C198.715 53.2593 199.278 45.6585 197.682 38.4552C195.733 29.6955 191.203 21.6857 184.651 15.4143C175.468 7.31357 163.612 2.71028 151.247 2.44383C143.964 2.33183 136.736 3.70724 130.028 6.48211L129.813 6.56793L123.398 10.2655C120.525 11.9212 119.5 13.3409 116.544 16.1298C111.879 20.8533 108.362 26.5428 106.252 32.7764C102.947 41.889 102.639 54.1957 104.176 62.6243C104.024 73.1807 102.111 80.6199 102.932 85.1781C105.136 97.3271 113.127 101.565 121.941 103.215H179.858Z" fill="#85807F"/>
<path d="M106.779 61.8159C106.729 66.947 106.191 72.0264 105.67 77.1273C105.083 80.7079 105.277 84.3695 106.24 87.8716C107.272 91.4993 109.503 94.6907 112.585 96.9477C115.615 98.9125 119.04 100.219 122.63 100.778C125.887 101.409 124.508 106.269 121.258 105.645C114.692 104.383 108.586 101.535 104.617 96.1047C102.409 92.958 100.967 89.3586 100.402 85.5824C100.059 82.6318 100.109 79.6502 100.551 76.7121C101.067 71.7513 101.568 66.8069 101.617 61.8209C101.649 58.5739 106.811 58.5663 106.779 61.8209V61.8159Z" fill="#211715"/>
<path d="M200.908 63.3522C200.945 67.5861 201.197 71.8073 201.482 76.0286C201.77 78.7999 201.8 81.5911 201.571 84.3676C201.254 87.9178 200.114 91.3506 198.237 94.4058C196.361 97.461 193.798 100.058 190.743 102.001C187.592 103.797 184.14 105.032 180.547 105.647C177.303 106.269 175.913 101.405 179.176 100.779C182.766 100.22 186.191 98.9143 189.22 96.9494C192.241 94.7443 194.444 91.6358 195.495 88.0955C196.477 84.8143 196.8 81.3785 196.449 77.9771C196.164 73.0996 195.792 68.2398 195.749 63.3522C195.72 60.1026 200.882 60.1001 200.912 63.3522H200.908Z" fill="#211715"/>
<path d="M129.342 4.04267C136.631 1.09975 144.484 -0.264925 152.364 0.0424525C160.243 0.34983 167.96 2.32197 174.986 5.8233C181.345 8.99029 186.903 13.5011 191.259 19.0288C195.614 24.5565 198.657 30.9625 200.167 37.7825C202.031 46.2251 201.235 54.9944 200.907 63.5468C200.778 66.785 195.616 66.8001 195.745 63.5468C196.021 56.3384 196.738 48.9194 195.675 41.7426C194.591 34.7463 191.783 28.1129 187.493 22.4143C179.929 12.2581 166.781 5.88009 154.073 5.05855C146.088 4.58305 138.097 5.90185 130.714 8.91385C130.053 9.08689 129.35 8.99848 128.756 8.66778C128.161 8.33708 127.724 7.79072 127.539 7.1471C127.374 6.50157 127.47 5.81879 127.807 5.24049C128.143 4.66219 128.694 4.23278 129.346 4.04141L129.342 4.04267Z" fill="#211715"/>
<path d="M101.477 62.065C100.023 52.3908 100.361 41.885 103.598 32.5654C106.712 23.2303 112.636 15.0318 120.593 9.04236C121.186 8.70881 121.888 8.61675 122.549 8.78609C123.211 8.95544 123.777 9.37257 124.126 9.94718C124.455 10.5289 124.543 11.2125 124.371 11.8558C124.198 12.4991 123.778 13.0526 123.199 13.4012C121.71 14.6092 120.308 15.9163 119.003 17.3133C117.387 18.8178 115.915 20.4631 114.604 22.2286C111.94 25.957 109.857 30.0512 108.423 34.3775C105.745 42.9042 105.075 51.9126 106.462 60.7286C106.621 61.3737 106.523 62.054 106.187 62.6309C105.851 63.2077 105.303 63.6377 104.655 63.833C103.994 64.0061 103.291 63.9177 102.696 63.587C102.102 63.2563 101.665 62.7099 101.48 62.0663L101.477 62.065Z" fill="#211715"/>
<path d="M3.04369 128.14C3.14531 127.993 3.20664 127.824 3.22179 127.647C3.20395 127.474 3.14852 127.307 3.05919 127.157C2.78435 126.612 2.62777 126.019 2.59934 125.412C2.57091 124.806 2.67123 124.201 2.89399 123.634C3.25922 122.612 3.79739 121.892 5.64937 121.201C7.20581 120.623 8.56868 120.599 11.0698 121.782C11.7151 120.06 14.9519 118.822 16.7845 119.084C18.5333 119.467 20.2012 120.144 21.7145 121.083C28.2965 124.49 40.6358 130.212 46.7918 131.022C45.7319 127.653 45.1878 124.149 45.1773 120.625C45.1833 120.119 45.2935 119.62 45.5013 119.157C45.7091 118.694 46.0102 118.277 46.3866 117.93C46.7655 117.554 47.2419 117.286 47.7648 117.154C48.2877 117.023 48.8374 117.033 49.3549 117.183C50.4205 117.693 51.3081 118.5 51.9064 119.501C54.5763 124.281 56.9693 129.203 59.0743 134.245C61.3715 139.825 60.8321 145.687 59.6744 151.581C59.7325 152.262 59.8035 153.14 59.8035 153.14C59.9325 154.598 61.307 159.671 62.0762 162.447C55.4942 164.561 46.9893 167.243 41.4669 168.829C40.6293 165.896 39.3594 161.093 38.647 159.185C38.4647 158.556 38.1341 157.978 37.6816 157.497C37.2416 157.144 36.7345 156.88 36.1897 156.719C26.4626 153.053 9.43852 143.342 4.67369 138.05C4.24102 137.569 3.97653 136.966 3.91874 136.328C3.86094 135.69 4.01285 135.051 4.35235 134.504C3.46849 133.718 2.86472 132.677 2.62928 131.532C2.39383 130.387 2.53903 129.198 3.04369 128.14Z" fill="white"/>
<path d="M77.0616 194.211C72.9614 182.158 70.0331 172.196 66.6866 160.961C58.8928 163.501 43.9582 168.253 38.1906 169.742C40.7369 182.079 43.1993 195.322 47.3059 207.834C50.1594 216.528 54.4519 224.796 63.1878 228.025C66.454 229.29 69.9726 229.808 73.4749 229.541C76.9771 229.273 80.3705 228.226 83.3958 226.48C88.6162 223.506 94.7064 217.026 98.5098 213.216" fill="white"/>
<path d="M166.264 50.1644C167.498 49.6615 168.633 48.9527 169.619 48.0695C173.456 50.5935 177.648 52.5599 182.062 53.9074L188.257 60.6273C188.865 60.1117 189.579 59.7303 190.352 59.5092C191.124 59.2882 191.936 59.2327 192.732 59.3464C193.514 59.4544 194.261 59.7323 194.918 60.1597C195.575 60.5871 196.126 61.1531 196.531 61.8161C196.999 62.7309 197.266 63.7318 197.313 64.7539C197.655 68.7508 196.867 72.7628 195.035 76.3514C194.17 78.1653 192.915 79.7755 191.357 81.0724C190.739 81.6958 189.973 82.1592 189.127 82.4207C188.28 82.6822 187.381 82.7337 186.509 82.5703L186.034 82.4441C184.325 87.7179 181.591 92.6194 177.982 96.8797C174.896 100.63 171.077 103.741 166.747 106.031C166.567 108.444 166.85 110.869 167.583 113.179C168.278 114.884 171.625 117.411 175.091 119.699C174.542 124.875 173.667 130.014 172.472 135.086C171.843 135.324 171.482 135.464 171.482 135.464C165.274 137.877 156.233 138.86 149.879 138.845C143.149 138.666 136.463 137.726 129.953 136.045L128.405 135.638C126.877 130.388 125.637 125.061 124.69 119.681C128.489 117.409 132.111 114.885 132.808 113.178C133.54 110.818 133.824 108.347 133.646 105.888C124.498 101.668 117.177 89.3761 115.885 85.9486C115.627 85.1851 114.852 83.6115 114.25 81.8598C113.453 82.2297 112.561 82.3528 111.691 82.2125C110.821 82.0722 110.016 81.6752 109.384 81.0749C107.825 79.7784 106.57 78.1681 105.706 76.3539C103.868 72.766 103.075 68.7531 103.413 64.7539C103.46 63.7318 103.726 62.7309 104.195 61.8161C104.599 61.1531 105.15 60.5871 105.807 60.1597C106.464 59.7323 107.211 59.4544 107.993 59.3464C108.789 59.2327 109.602 59.2883 110.374 59.5093C111.147 59.7304 111.862 60.1117 112.47 60.6273L118.125 54.6608C119.212 55.0083 120.359 55.1419 121.499 55.054C122.639 54.9661 123.75 54.6583 124.768 54.1484C126.796 53.12 128.675 51.8319 130.356 50.3183L136.733 45.0547C138.801 46.9493 141.47 48.095 144.296 48.3016C147.122 48.5082 149.935 47.7632 152.269 46.1905C153.778 48.3265 155.994 49.8882 158.543 50.6122C161.093 51.3361 163.82 51.1779 166.264 50.1644Z" fill="white"/>
<path d="M78.5251 152.919L78.5509 152.841C79.5175 149.824 80.6416 146.574 82.1219 142.797C83.1494 140.285 84.6704 137.995 86.599 136.055C88.5927 134.191 90.9046 132.683 93.43 131.599C101.001 128.021 116.486 120.909 124.275 117.844C125.494 125.682 127.406 133.402 129.99 140.917C131.723 145.536 137.409 161.274 141.281 170.271C144.196 177.026 147.483 183.621 151.129 190.027C160.844 168.382 172.704 145.844 175.16 118.404C184.394 122.755 199.489 129.393 206.53 132.735C209.361 134.091 211.941 135.9 214.164 138.086C216.889 140.656 218.919 143.846 220.075 147.371C223.801 159.567 225.827 189.199 227.768 225.497C227.936 225.378 227.7 225.55 227.7 225.55L202.733 243.746L201.609 243.779L97.0591 246.892C97.9974 234.852 100.163 215.56 99.7939 212.213C96.2215 215.628 89.2292 223.445 83.3428 226.792C80.3173 228.538 76.9238 229.585 73.4213 229.853C69.9188 230.121 66.4 229.602 63.1336 228.337C54.3977 225.113 50.1052 216.845 47.2517 208.146C43.1451 195.634 40.6827 182.391 38.1363 170.054C43.9039 168.565 58.8399 163.813 66.6324 161.273C68.1385 166.321 69.5594 171.124 71.0462 175.969C74.6611 166.625 76.0975 160.506 78.5251 152.919Z" fill="white"/>
<path d="M59.5906 163.115C58.9802 160.923 58.38 158.727 57.8548 156.513C57.3873 154.907 57.1327 153.249 57.0972 151.579C57.1553 150.019 57.6663 148.433 57.8444 146.876C58.0048 145.521 58.0854 144.159 58.0858 142.796C58.064 139.806 57.4386 136.85 56.2454 134.097C55.2671 131.766 54.196 129.474 53.0551 127.215C52.0469 124.953 50.8917 122.755 49.5963 120.637C49.3885 120.334 48.8465 119.485 48.4206 119.571C47.5869 119.738 47.7611 121.129 47.7753 121.625C47.8804 124.585 48.3828 127.518 49.2698 130.35C49.9074 132.378 47.9186 133.713 46.0937 133.455C40.0112 132.593 34.05 129.715 28.534 127.202C25.7911 125.951 23.0809 124.636 20.4034 123.255C19.0547 122.558 17.3731 121.352 15.7573 121.595C15.2585 121.633 14.7758 121.785 14.3482 122.039C13.9207 122.293 13.5603 122.642 13.2961 123.057C12.9417 123.626 12.3758 124.037 11.7173 124.206C11.0588 124.375 10.359 124.287 9.7651 123.962C8.18543 123.248 4.86089 122.931 5.18354 125.492C5.29581 126.375 5.86755 127.043 5.75527 127.987C5.67784 128.648 5.25582 129.192 5.13838 129.839C5.04633 130.365 5.0928 130.906 5.27343 131.41C5.45406 131.913 5.76289 132.364 6.17083 132.719C6.56455 133.119 6.81635 133.632 6.88908 134.183C6.96181 134.734 6.85162 135.293 6.57479 135.778C5.98241 136.93 10.5691 139.816 11.3874 140.392C14.3067 142.47 17.3653 144.362 20.4718 146.16C23.8105 148.092 27.2215 149.912 30.7035 151.587C32.2264 152.317 33.7622 153.028 35.3251 153.674C36.9151 154.331 38.6612 154.757 39.8331 156.072C41.1817 157.593 41.6399 159.947 42.1819 161.845C42.7872 163.944 43.3538 166.054 43.9526 168.155C44.8457 171.288 39.8666 172.626 38.9748 169.496C38.438 167.615 37.9282 165.726 37.3926 163.844C37.1345 162.961 36.888 162.077 36.6182 161.204C36.4259 160.594 36.2801 159.657 35.7729 159.247C35.1683 158.921 34.525 158.669 33.8577 158.496C33.0025 158.147 32.1507 157.787 31.3023 157.416C29.5588 156.647 27.8397 155.828 26.14 154.975C19.1608 151.598 12.5335 147.567 6.35153 142.937C5.18739 142.079 4.09824 141.128 3.09538 140.094C2.20124 139.203 1.62412 138.054 1.44934 136.817C1.27457 135.58 1.51142 134.321 2.12486 133.226L2.52624 136.293C1.29552 135.103 0.465149 133.575 0.146004 131.912C-0.173149 130.248 0.0341034 128.53 0.74007 126.985V128.326C-0.332405 125.181 -0.142693 121.612 3.00375 119.661C6.07146 117.76 9.24114 118.189 12.3785 119.608L8.84622 120.513C10.2659 117.397 14.8139 116.043 17.9939 116.745C19.9795 117.33 21.8791 118.164 23.6453 119.227C25.1639 120.003 26.6941 120.757 28.2359 121.49C34.2423 124.352 40.7855 127.643 47.4656 128.591L44.2907 131.695C43.4618 129.011 42.9355 126.246 42.7214 123.45C42.5214 121.02 42.4168 118.749 44.0481 116.745C44.8344 115.728 45.9588 115.011 47.2277 114.717C48.4965 114.424 49.8303 114.572 50.9992 115.137C52.7677 116.248 54.1449 117.863 54.9445 119.764C57.2482 124.11 59.4499 128.484 61.3277 133.024C63.5385 138.374 63.5036 143.981 62.6286 149.604C62.386 150.753 62.3018 151.928 62.3782 153.098C62.3369 152.703 62.4105 153.278 62.4712 153.58C62.5628 154.05 62.6712 154.516 62.7796 154.981C63.3139 157.26 63.9334 159.524 64.5619 161.777C65.4343 164.915 60.4566 166.254 59.5841 163.118L59.5906 163.115Z" fill="#211715"/>
<path d="M116.04 78.3496C116.392 80.3013 116.999 82.2006 117.847 84.0006C118.062 84.5054 118.266 85.0102 118.464 85.5226C118.6 85.8784 118.206 85.0001 118.528 85.6551C118.613 85.8242 118.692 85.9971 118.777 86.1674C119.976 88.5156 121.37 90.7636 122.945 92.8887C126.519 97.8103 131.398 103.15 137.646 104.585C140.872 105.327 139.509 110.195 136.272 109.452C128.884 107.755 123.192 101.754 118.89 95.983C117.176 93.7221 115.664 91.321 114.373 88.8062C112.799 85.9513 111.684 82.8771 111.065 79.691C110.906 79.0459 111.004 78.3657 111.34 77.789C111.675 77.2122 112.223 76.7822 112.872 76.5866C113.532 76.4136 114.236 76.502 114.83 76.8327C115.424 77.1634 115.861 77.7097 116.046 78.3534L116.04 78.3496Z" fill="#211715"/>
<path d="M189.874 77.9197C188.382 85.4563 184.988 92.5087 179.998 98.4355C174.924 104.465 168.004 109.642 159.935 110.848C159.275 111.005 158.579 110.91 157.989 110.581C157.399 110.253 156.959 109.716 156.76 109.081C156.583 108.436 156.674 107.748 157.012 107.166C157.35 106.585 157.909 106.158 158.567 105.977C165.87 104.884 171.766 100.313 176.354 94.8616C180.71 89.5555 183.646 83.2719 184.896 76.5782C185.521 73.3905 190.497 74.7408 189.874 77.9197Z" fill="#211715"/>
<path d="M110.649 62.4146C110.333 62.1715 109.969 61.9953 109.579 61.8973C109.189 61.7993 108.783 61.7816 108.386 61.8453C107.99 61.9091 107.611 62.0528 107.274 62.2675C106.937 62.4822 106.649 62.763 106.429 63.0923C106.026 64.0593 105.854 65.1031 105.924 66.1449C105.887 67.3764 105.977 68.6084 106.191 69.8223C106.622 72.2593 107.526 74.5933 108.853 76.6987C109.411 77.6059 110.119 78.4162 110.949 79.0965C111.2 79.3687 111.528 79.5636 111.891 79.6572C112.253 79.7509 112.636 79.7393 112.993 79.624C116.206 78.786 117.577 83.6534 114.366 84.4914C110.265 85.5603 107.052 82.9833 104.816 79.8637C102.667 76.7053 101.335 73.0834 100.935 69.3099C100.496 65.7992 100.506 61.3507 103.413 58.7978C104.923 57.5102 106.861 56.8044 108.865 56.8126C110.869 56.8207 112.801 57.5421 114.3 58.842C114.779 59.3177 115.048 59.9586 115.048 60.6264C115.048 61.2941 114.779 61.9351 114.3 62.4108C113.809 62.8712 113.155 63.1282 112.475 63.1282C111.794 63.1282 111.14 62.8712 110.649 62.4108V62.4146Z" fill="#211715"/>
<path d="M186.435 58.8407C187.935 57.5416 189.867 56.8207 191.87 56.8126C193.874 56.8044 195.812 57.5097 197.322 58.7965C200.308 61.4189 200.235 66.0124 199.762 69.5977C199.323 73.3951 197.927 77.0265 195.698 80.1654C193.386 83.2635 189.943 85.8922 185.823 85.005C185.163 84.8271 184.602 84.4 184.263 83.8175C183.925 83.2351 183.837 82.5451 184.019 81.8993C184.201 81.2535 184.638 80.7048 185.233 80.374C185.829 80.0431 186.535 79.9572 187.195 80.1351C188.95 80.5137 190.828 78.2535 191.677 77.0041C193.084 74.8788 194.046 72.5016 194.506 70.0103C194.733 68.8166 194.836 67.6037 194.816 66.3898C194.91 65.2638 194.733 64.132 194.3 63.0847C194.08 62.7555 193.792 62.4746 193.455 62.2599C193.118 62.0453 192.739 61.9015 192.342 61.8378C191.945 61.7741 191.539 61.7917 191.15 61.8897C190.76 61.9877 190.396 62.1639 190.08 62.407C189.587 62.8642 188.933 63.1191 188.254 63.1191C187.575 63.1191 186.921 62.8642 186.429 62.407C185.95 61.931 185.682 61.2901 185.682 60.6226C185.682 59.9551 185.95 59.3142 186.429 58.8382L186.435 58.8407Z" fill="#211715"/>
<path d="M156.844 90.9797C154.489 92.1743 151.867 92.7726 149.215 92.7199C146.412 92.8246 143.654 92.009 141.38 90.403C140.896 89.9297 140.624 89.2878 140.624 88.6186C140.624 87.9493 140.896 87.3074 141.38 86.8341C141.873 86.3787 142.526 86.125 143.205 86.125C143.883 86.125 144.536 86.3787 145.03 86.8341C144.14 86.1565 145.077 86.8341 145.36 86.973C145.578 87.0853 146.168 87.2632 145.36 86.9982C145.569 87.0663 145.772 87.1534 145.981 87.219C146.239 87.3023 146.514 87.373 146.785 87.4348C147.1 87.4676 147.413 87.525 147.719 87.6065C147.461 87.4954 147.311 87.5585 147.701 87.5964C147.871 87.6128 148.042 87.6267 148.217 87.638C148.628 87.6645 149.041 87.6746 149.452 87.6721C149.822 87.6721 150.19 87.659 150.558 87.633C150.728 87.6216 150.897 87.609 151.064 87.5913C151.161 87.5825 151.257 87.5724 151.353 87.561C151.555 87.5371 151.482 87.5459 151.126 87.5901C151.268 87.6595 151.797 87.4727 151.957 87.4386C152.223 87.3806 152.487 87.3137 152.75 87.238C152.977 87.1711 153.199 87.0916 153.422 87.0159C154.007 86.8203 152.887 87.2683 153.416 87.0234C153.695 86.8947 153.97 86.7605 154.242 86.6209C154.832 86.2983 155.528 86.2152 156.181 86.3893C156.833 86.5634 157.389 86.9808 157.73 87.5519C158.071 88.1229 158.169 88.8019 158.003 89.4429C157.837 90.0839 157.421 90.6357 156.844 90.9797Z" fill="#211715"/>
<path d="M150.835 73.8069C150.499 74.9904 150.231 76.1911 150.03 77.4035L150.122 76.7334C150.098 76.8977 150.094 77.0641 150.109 77.2294L150.016 76.5593C150.028 76.6349 150.047 76.7092 150.073 76.7814L149.815 76.1794C149.837 76.2296 149.864 76.2777 149.895 76.3233L149.492 75.8122C149.528 75.8549 149.568 75.8938 149.612 75.9283L149.09 75.5333C149.183 75.5898 149.281 75.64 149.381 75.6835L148.764 75.4311C148.921 75.4971 149.086 75.5442 149.255 75.5711L148.57 75.4803C148.723 75.4979 148.877 75.4979 149.03 75.4803L148.344 75.5699C148.518 75.5459 148.688 75.5055 148.86 75.4815C149.194 75.3764 149.55 75.3611 149.892 75.4374C150.234 75.4518 150.565 75.555 150.853 75.7365C151.444 76.0743 151.873 76.6279 152.047 77.2754C152.22 77.9229 152.123 78.6113 151.778 79.1892C151.615 79.4747 151.394 79.7248 151.129 79.9241C150.864 80.1235 150.56 80.268 150.236 80.3489C149.779 80.4095 149.332 80.5218 148.869 80.542C148.141 80.5442 147.423 80.3732 146.777 80.0435C146.357 79.8493 145.986 79.5671 145.69 79.2168C145.394 78.8665 145.18 78.4568 145.064 78.0168C144.91 77.3222 144.916 76.6028 145.081 75.9106C145.281 74.7521 145.556 73.6025 145.855 72.4667C145.945 72.1467 146.098 71.8472 146.306 71.5852C146.515 71.3231 146.773 71.1038 147.068 70.9397C147.363 70.7756 147.688 70.67 148.025 70.6289C148.362 70.5877 148.703 70.6119 149.03 70.7C149.68 70.8761 150.236 71.2918 150.579 71.8597C150.916 72.4518 151.009 73.1477 150.837 73.8044L150.835 73.8069Z" fill="#211715"/>
<path d="M169.619 63.4407C170.234 65.393 169.833 69.8767 166.051 70.2654C161.052 70.2364 160.786 64.8074 162.469 62.2545C163.843 60.1647 167.894 59.2952 169.619 63.4407Z" fill="#211715"/>
<path d="M129.586 63.4407C128.972 65.393 129.373 69.8767 133.155 70.2654C138.153 70.2364 138.419 64.8062 136.737 62.2545C135.359 60.1647 131.308 59.2952 129.586 63.4407Z" fill="#211715"/>
<path d="M181.382 56.3367C176.761 54.909 172.366 52.8588 168.323 50.2452L171.451 49.8464C169.937 51.179 168.151 52.1819 166.21 52.7888C164.27 53.3957 162.22 53.5928 160.196 53.367C158.172 53.1411 156.22 52.4975 154.469 51.4788C152.718 50.46 151.209 49.0894 150.041 47.4575L153.573 48.3623C150.742 50.2044 147.356 51.0566 143.967 50.7806C140.578 50.5045 137.384 49.1164 134.903 46.8416H138.554C134.941 49.8173 131.407 53.3231 127.326 55.6754C125.47 56.7787 123.373 57.4381 121.206 57.5999C119.271 57.7172 116.291 57.3816 115.399 55.4129C115.127 54.9268 115.019 54.369 115.092 53.8194C115.164 53.2698 115.412 52.7568 115.801 52.3539C116.174 51.9917 116.636 51.7311 117.144 51.5983C117.651 51.4654 118.185 51.4649 118.692 51.5967C119.129 51.7036 119.528 51.9244 119.846 52.2355C120.164 52.5467 120.39 52.9366 120.499 53.3635L120.525 53.5212C120.685 54.1664 120.587 54.847 120.252 55.424C119.916 56.001 119.367 56.4308 118.718 56.6256C118.058 56.799 117.354 56.7108 116.76 56.38C116.165 56.0493 115.728 55.5027 115.543 54.8589L115.518 54.6999L117.324 56.4666L117.1 56.43L119.611 55.7801L119.458 55.9253L119.86 52.8663L120.006 53.1868L119.081 52.282C121.47 53.6361 124.972 51.3153 126.77 49.9562C129.567 47.8411 132.21 45.5027 134.912 43.2678C135.405 42.81 136.058 42.5547 136.738 42.5547C137.417 42.5547 138.071 42.81 138.563 43.2678C140.235 44.7574 142.378 45.6427 144.635 45.7765C146.893 45.9104 149.129 45.2847 150.972 44.0035C151.567 43.6796 152.266 43.593 152.924 43.7619C153.583 43.9308 154.148 44.342 154.503 44.9096C155.256 45.8933 156.208 46.7143 157.3 47.3211C158.392 47.9279 159.6 48.3074 160.85 48.4357C162.099 48.5641 163.362 48.4385 164.559 48.0669C165.756 47.6953 166.862 47.0856 167.807 46.2763C168.216 45.8909 168.74 45.6445 169.304 45.5736C169.867 45.5027 170.439 45.611 170.934 45.8825C174.59 48.2732 178.571 50.1524 182.759 51.4655C185.914 52.4473 184.566 57.3235 181.388 56.3329L181.382 56.3367Z" fill="#211715"/>
<path d="M147.164 138.77C141.35 138.399 135.586 137.488 129.95 136.05L128.392 135.644C128.919 137.417 129.47 139.098 130.035 140.601C131.768 145.221 137.457 160.955 141.33 169.949C144.242 176.706 147.53 183.302 151.177 189.709C158.815 172.713 167.764 155.166 172.459 135.125L171.481 135.47C165.273 137.882 156.233 138.865 149.878 138.85C149.013 138.848 148.104 138.823 147.164 138.77Z" fill="#F4B3B3"/>
<path d="M130.644 133.613C143.509 136.93 158.169 137.828 170.8 133.032C171.46 132.859 172.164 132.947 172.758 133.278C173.352 133.609 173.789 134.155 173.975 134.798C174.141 135.444 174.046 136.127 173.709 136.706C173.372 137.285 172.82 137.714 172.168 137.904C165.369 140.258 158.201 141.43 150.988 141.367C143.648 141.368 136.342 140.398 129.268 138.485C126.058 137.657 127.42 132.787 130.64 133.617L130.644 133.613Z" fill="#211715"/>
<path d="M169.325 106.04C169.311 107.473 169.344 108.892 169.475 110.32C169.512 110.733 169.362 109.735 169.494 110.434C169.522 110.58 169.547 110.725 169.578 110.872C169.644 111.19 169.725 111.503 169.822 111.818C169.857 111.93 169.897 112.236 169.995 112.317C169.964 112.291 169.737 111.86 169.915 112.131C170.062 112.316 170.189 112.515 170.294 112.725C170.303 112.652 169.932 112.306 170.194 112.599C170.292 112.708 170.387 112.819 170.487 112.926C170.683 113.137 170.888 113.34 171.097 113.538C171.576 113.99 172.079 114.422 172.594 114.828C172.749 114.954 172.906 115.08 173.064 115.198C173.121 115.242 173.554 115.562 173.229 115.324C173.539 115.55 173.847 115.777 174.16 115.999C174.841 116.484 175.533 116.953 176.224 117.417C176.531 117.577 176.802 117.796 177.02 118.061C177.238 118.325 177.399 118.63 177.494 118.957C177.589 119.284 177.615 119.626 177.571 119.964C177.527 120.301 177.414 120.626 177.239 120.919C177.063 121.213 176.829 121.468 176.55 121.671C176.271 121.874 175.953 122.019 175.615 122.099C175.277 122.178 174.926 122.19 174.583 122.134C174.241 122.078 173.913 121.954 173.62 121.771C170.845 119.926 167.812 117.978 165.833 115.273C165.059 114.084 164.583 112.733 164.444 111.33C164.209 109.576 164.114 107.807 164.159 106.04C164.159 105.37 164.431 104.728 164.915 104.255C165.399 103.782 166.055 103.516 166.74 103.516C167.425 103.516 168.081 103.782 168.565 104.255C169.049 104.728 169.321 105.37 169.321 106.04H169.325Z" fill="#211715"/>
<path d="M136.222 105.88C136.261 107.679 136.166 109.478 135.939 111.264C135.812 112.717 135.31 114.114 134.481 115.325C132.416 117.992 129.281 119.853 126.414 121.599C125.821 121.93 125.119 122.022 124.458 121.852C123.798 121.683 123.231 121.267 122.881 120.694C122.55 120.113 122.461 119.429 122.634 118.785C122.806 118.141 123.227 117.588 123.808 117.241C125.186 116.401 126.55 115.534 127.856 114.591C127.904 114.557 128.404 114.185 128.149 114.378C127.931 114.543 128.293 114.264 128.33 114.235C128.602 114.02 128.871 113.8 129.133 113.572C129.347 113.387 129.557 113.194 129.759 112.997C129.834 112.924 130.23 112.394 130.329 112.389C130.266 112.389 130.007 112.857 130.2 112.552C130.261 112.458 130.329 112.37 130.385 112.274C130.428 112.182 130.476 112.093 130.529 112.006C130.44 112.02 130.33 112.552 130.466 112.106C130.574 111.754 130.684 111.408 130.765 111.049C130.798 110.902 130.827 110.754 130.856 110.606C130.856 110.614 130.958 109.941 130.915 110.261C130.873 110.582 130.945 109.963 130.95 109.901C130.968 109.706 130.984 109.509 130.996 109.313C131.021 108.956 131.036 108.6 131.047 108.243C131.07 107.457 131.065 106.67 131.061 105.883C131.061 105.214 131.333 104.572 131.817 104.099C132.301 103.625 132.958 103.359 133.642 103.359C134.327 103.359 134.983 103.625 135.467 104.099C135.951 104.572 136.223 105.214 136.223 105.883L136.222 105.88Z" fill="#211715"/>
<path d="M199.971 243.599C199.326 235.972 198.526 228.359 197.906 220.73C197.441 216.185 197.452 211.605 197.94 207.062C199.385 195.355 201.908 183.834 203.888 172.213C205.25 164.216 206.313 156.157 207.917 148.201C208.563 145.017 213.537 146.365 212.896 149.543C211.496 156.484 210.531 163.503 209.38 170.482C208.413 176.343 207.248 182.164 206.178 188.006C205.125 193.759 204.113 199.529 203.327 205.324C202.708 209.756 202.568 214.24 202.909 218.701C203.535 227.01 204.43 235.297 205.14 243.599C205.417 246.836 200.254 246.819 199.978 243.599H199.971Z" fill="#211715"/>
<path d="M92.8437 149.77C94.6505 163.635 96.8677 177.4 99.3676 191.163C100.435 197.043 101.5 202.943 102.172 208.882C102.525 213.56 102.409 218.26 101.825 222.916C101.14 230.805 100.315 238.679 99.6941 246.573C99.4359 249.791 94.2736 249.817 94.5317 246.573C95.0957 239.402 95.8223 232.246 96.4676 225.083C96.8961 220.319 97.593 215.416 97.1839 210.63C96.2172 199.322 93.4296 188.174 91.5802 176.987C90.0844 167.944 88.87 158.859 87.6788 149.774C87.6818 149.105 87.9547 148.465 88.4381 147.993C88.9215 147.52 89.5763 147.253 90.2599 147.25C90.9392 147.266 91.5861 147.537 92.0666 148.007C92.5471 148.477 92.8244 149.11 92.8411 149.774L92.8437 149.77Z" fill="#211715"/>
<path d="M126.739 116.356C128.183 125.641 130.576 134.761 133.882 143.578C137.163 152.463 140.361 161.416 144.18 170.098C146.935 176.362 150.053 182.454 153.409 188.431C155.008 191.28 150.553 193.829 148.951 190.979C143.467 181.101 138.701 170.858 134.69 160.325C131.531 152.15 128.097 143.911 125.668 135.493C123.978 129.649 122.673 123.706 121.761 117.699C121.602 117.054 121.7 116.373 122.036 115.797C122.371 115.22 122.919 114.79 123.568 114.594C124.229 114.421 124.932 114.51 125.526 114.84C126.121 115.171 126.558 115.718 126.743 116.361L126.739 116.356Z" fill="#211715"/>
<path d="M177.95 116.681C176.272 137.416 168.974 156.739 160.429 175.607C158.157 180.622 155.828 185.611 153.567 190.631C153.218 191.205 152.652 191.622 151.991 191.791C151.33 191.96 150.628 191.869 150.036 191.535C149.457 191.186 149.038 190.633 148.866 189.99C148.693 189.348 148.78 188.664 149.109 188.083C157.043 170.471 165.65 153.063 170.034 134.189C171.382 128.426 172.302 122.574 172.787 116.681C173.045 113.464 178.208 113.436 177.95 116.681Z" fill="#211715"/>
<path d="M16.2449 133.697C18.3227 134.686 20.3386 135.791 22.3919 136.825C23.3844 137.329 24.3885 137.8 25.4106 138.238C24.8944 138.016 25.5022 138.273 25.6158 138.318C25.8911 138.426 26.1682 138.53 26.4469 138.629C27.0096 138.83 27.5788 139.008 28.1531 139.174C28.8132 139.352 29.374 139.779 29.7121 140.362C30.0502 140.944 30.1379 141.633 29.956 142.279C29.7741 142.924 29.3374 143.473 28.742 143.803C28.1466 144.134 27.4413 144.22 26.7812 144.042C22.1067 142.708 17.9859 140.123 13.6392 138.056C13.051 137.716 12.624 137.162 12.4508 136.515C12.2775 135.869 12.3721 135.181 12.7139 134.602C13.0712 134.037 13.637 133.628 14.2944 133.46C14.9517 133.291 15.65 133.376 16.2449 133.697Z" fill="#211715"/>
<path d="M16.4341 126.832C19.5728 128.124 22.6173 129.636 25.7263 130.986C27.1679 131.617 28.6043 132.248 30.0433 132.879C30.7415 133.183 31.441 133.487 32.1418 133.787C32.4683 133.927 32.7974 134.064 33.1252 134.202C33.4194 134.328 33.2168 134.238 33.04 134.168L33.5201 134.362C34.1693 134.557 34.718 134.986 35.0539 135.563C35.3897 136.141 35.4874 136.821 35.3269 137.466C35.142 138.11 34.705 138.657 34.1107 138.988C33.5163 139.318 32.8126 139.407 32.1521 139.233C29.2522 138.075 26.4103 136.782 23.5491 135.538C22.1475 134.929 20.7382 134.343 19.3521 133.702C18.5352 133.323 17.7208 132.936 16.9 132.555C16.5025 132.368 16.105 132.176 15.7036 132.002L15.2584 131.803C15.2003 131.778 14.484 131.475 15.0545 131.708C14.4063 131.512 13.8588 131.082 13.5232 130.505C13.1876 129.929 13.0891 129.249 13.2476 128.604C13.4328 127.96 13.8701 127.413 14.4646 127.082C15.0592 126.752 15.7631 126.663 16.4238 126.837L16.4341 126.832Z" fill="#211715"/>
<path d="M36.756 137.254C33.7205 139.723 30.8133 142.331 28.0342 145.078C27.7961 145.319 27.5113 145.511 27.1964 145.643C26.8815 145.776 26.5428 145.845 26.2001 145.848C25.8573 145.851 25.5175 145.787 25.2002 145.66C24.883 145.534 24.5948 145.346 24.3525 145.109C24.1101 144.872 23.9185 144.59 23.7887 144.28C23.6589 143.97 23.5936 143.638 23.5966 143.302C23.5995 142.967 23.6708 142.636 23.806 142.328C23.9413 142.02 24.1379 141.742 24.3845 141.509C27.1609 138.763 30.0682 136.155 33.1062 133.685C33.6009 133.227 34.2506 132.964 34.9311 132.945C35.4415 132.945 35.9405 133.094 36.3648 133.371C36.7892 133.648 37.12 134.042 37.3153 134.503C37.5106 134.965 37.5617 135.472 37.4621 135.961C37.3626 136.451 37.1169 136.901 36.756 137.254Z" fill="#211715"/>
<path d="M74.5725 194.884C70.8376 183.882 67.5118 172.76 64.1976 161.633L67.3724 163.4C57.9408 166.472 48.4873 169.68 38.8763 172.18L40.6832 169.075C42.2099 176.48 43.6515 183.904 45.3976 191.265C46.8729 198.265 48.9164 205.138 51.5086 211.82C53.6483 216.945 56.8387 221.956 61.9236 224.692C64.8847 226.24 68.1871 227.058 71.5446 227.076C74.9022 227.094 78.2136 226.312 81.1919 224.796C87.2654 221.664 91.9644 216.179 96.6892 211.435C99.0123 209.105 102.659 212.675 100.339 215.004C95.649 219.714 91.021 224.827 85.2663 228.329C81.9824 230.31 78.2877 231.548 74.4519 231.953C70.6161 232.359 66.7362 231.921 63.0954 230.673C49.019 225.826 44.9124 210.229 41.6421 197.565C39.3255 188.59 37.5742 179.491 35.7054 170.42C35.5377 169.775 35.6322 169.091 35.969 168.512C36.3059 167.933 36.859 167.505 37.5122 167.316C47.1232 164.816 56.5767 161.608 66.0082 158.536C66.6686 158.367 67.3703 158.458 67.9635 158.788C68.5567 159.118 68.9944 159.662 69.1831 160.303C72.4986 171.431 75.8231 182.553 79.5581 193.553C80.6073 196.644 75.6244 197.97 74.5803 194.896L74.5725 194.884Z" fill="#211715"/>
<path d="M153.761 200.921C153.578 210.689 153.839 220.459 153.657 230.225C153.596 233.47 148.432 233.48 148.494 230.225C148.676 220.459 148.416 210.689 148.599 200.921C148.66 197.678 153.822 197.666 153.761 200.921Z" fill="#211715"/>
<path d="M68.6431 175.072C72.9484 163.834 75.216 151.794 80.1912 140.808C82.7568 135.143 87.4597 131.608 93.0221 128.99C97.5942 126.838 102.184 124.724 106.793 122.647C112.143 120.232 117.512 117.839 122.965 115.65C123.625 115.476 124.329 115.564 124.924 115.895C125.518 116.226 125.955 116.772 126.14 117.416C126.305 118.062 126.209 118.745 125.873 119.323C125.536 119.901 124.985 120.33 124.333 120.521C115.223 124.181 106.309 128.355 97.4256 132.509C95.2568 133.451 93.1489 134.52 91.1134 135.712C88.7364 137.241 86.7875 139.325 85.4438 141.777C84.0475 144.559 82.9115 147.459 82.0496 150.441C81.1617 153.043 80.3473 155.668 79.5575 158.3C77.7313 164.394 75.8974 170.468 73.6208 176.42C73.4237 177.056 72.9845 177.593 72.3938 177.922C71.8031 178.251 71.1059 178.345 70.446 178.186C69.7878 178.005 69.2293 177.577 68.8912 176.996C68.553 176.415 68.4625 175.727 68.6392 175.081L68.6431 175.072Z" fill="#211715"/>
<path d="M177.477 116.694C185.752 120.561 194.113 124.247 202.422 128.042C206.223 129.575 209.83 131.533 213.171 133.877C216.956 136.69 219.935 140.411 221.818 144.679C224.186 150.294 224.808 156.779 225.594 162.748C226.712 171.251 227.432 179.804 228.069 188.352C228.986 200.634 229.676 212.932 230.336 225.228C230.51 228.475 225.346 228.465 225.173 225.228C224.127 205.69 223.182 186.086 220.914 166.639C220.358 160.819 219.373 155.046 217.968 149.364C217.012 145.755 215.067 142.47 212.341 139.864C209.264 137.113 205.721 134.906 201.87 133.342C192.891 129.205 183.829 125.238 174.873 121.053C171.877 119.652 174.492 115.298 177.477 116.694Z" fill="#211715"/>
<path d="M115.812 177.9C116.258 177.826 116.692 177.695 117.103 177.51C117.276 177.417 117.439 177.316 117.61 177.22C118.299 176.828 117.429 177.459 117.917 176.995C118.09 176.831 118.259 176.657 118.433 176.49C118.761 176.186 118.571 176.351 118.486 176.457C118.823 176.022 119.107 175.549 119.33 175.048C119.149 175.44 119.316 175.077 119.34 174.997C119.413 174.771 119.495 174.549 119.561 174.32C119.668 173.935 119.754 173.546 119.819 173.152C119.725 173.696 119.841 172.916 119.846 172.863C119.867 172.621 119.88 172.379 119.886 172.136C119.9 171.652 119.889 171.166 119.853 170.683C119.836 170.443 119.814 170.204 119.784 169.965C119.797 170.073 119.868 170.425 119.775 169.929C119.699 169.523 119.632 169.114 119.517 168.714C119.479 168.57 119.436 168.426 119.388 168.285C119.355 168.185 119.315 168.088 119.281 167.988C119.159 167.629 119.051 167.94 119.361 168.16C119.091 167.969 118.831 167.14 118.635 166.844C118.505 166.644 117.978 166.109 118.49 166.61C118.232 166.358 118.023 166.078 117.763 165.833C117.66 165.737 117.547 165.65 117.446 165.552C117.034 165.15 117.92 165.825 117.415 165.524C117.157 165.369 116.912 165.199 116.641 165.059C116.519 164.996 115.949 164.779 116.57 165.004C116.416 164.948 116.264 164.893 116.109 164.845C115.954 164.797 115.786 164.75 115.622 164.719C115.482 164.686 114.622 164.604 115.261 164.64C114.877 164.613 114.491 164.605 114.106 164.615C114.068 164.615 113.266 164.686 113.791 164.615C113.569 164.642 113.347 164.687 113.128 164.733C112.652 164.824 112.185 164.955 111.733 165.124C112.166 164.953 111.696 165.149 111.594 165.208C111.363 165.345 111.132 165.473 110.908 165.621C111.363 165.321 110.792 165.726 110.731 165.781C110.623 165.88 110.517 165.982 110.415 166.088C110.361 166.143 109.911 166.697 110.251 166.246C110.122 166.421 109.993 166.603 109.881 166.79C109.791 166.933 109.336 167.85 109.541 167.365C109.368 167.779 109.228 168.205 109.122 168.64C109.066 168.859 109.027 169.081 108.978 169.302C108.817 170.01 108.993 168.805 108.944 169.531C108.919 169.909 108.889 170.288 108.889 170.666C108.889 171.045 108.922 171.423 108.945 171.802C108.99 172.53 108.826 171.316 108.975 172.027C109.038 172.328 109.093 172.63 109.171 172.928C109.289 173.376 109.433 173.817 109.603 174.249C109.431 173.809 109.615 174.274 109.67 174.383C109.799 174.62 109.914 174.857 110.057 175.088C110.173 175.284 110.296 175.477 110.425 175.664C110.459 175.713 110.913 176.264 110.572 175.872C110.891 176.239 111.236 176.583 111.605 176.903C111.922 177.178 111.113 176.608 111.709 176.982C111.967 177.144 112.215 177.307 112.484 177.447C112.468 177.438 113.141 177.743 112.799 177.605C112.552 177.505 113.284 177.756 113.369 177.779C113.6 177.842 113.832 177.89 114.067 177.934C113.544 177.835 114.301 177.949 114.363 177.952C114.621 177.965 114.879 177.965 115.137 177.952C115.315 177.944 115.493 177.931 115.67 177.914C115.436 177.948 115.483 177.939 115.807 177.886C116.467 177.727 117.164 177.822 117.755 178.151C118.346 178.479 118.785 179.017 118.983 179.653C119.159 180.299 119.069 180.986 118.73 181.567C118.392 182.148 117.834 182.576 117.176 182.757C114.551 183.309 111.81 182.891 109.48 181.585C107.473 180.351 105.901 178.545 104.976 176.411C103.04 172.042 103.257 166.591 106.472 162.842C108.138 161.109 110.356 159.98 112.763 159.639C115.17 159.299 117.624 159.767 119.724 160.968C121.092 161.847 122.252 163.003 123.126 164.357C123.999 165.711 124.566 167.232 124.788 168.819C125.3 171.48 125.077 174.226 124.143 176.775C123.582 178.261 122.651 179.587 121.434 180.632C120.217 181.677 118.753 182.409 117.174 182.761C116.514 182.923 115.815 182.83 115.224 182.501C114.632 182.171 114.193 181.632 113.999 180.994C113.827 180.349 113.921 179.664 114.26 179.085C114.599 178.507 115.156 178.081 115.812 177.9Z" fill="#211715"/>
<path d="M109.561 161.306C108.357 152.862 108.098 144.314 108.787 135.815C109.493 128.759 111.053 120.727 116.55 115.623C118.96 113.388 122.616 116.951 120.2 119.192C115.425 123.628 114.316 131.061 113.827 137.168C113.306 145.219 113.605 153.302 114.719 161.296C114.715 161.964 114.441 162.604 113.958 163.077C113.475 163.549 112.821 163.816 112.137 163.82C111.458 163.804 110.811 163.534 110.33 163.064C109.849 162.594 109.572 161.961 109.556 161.296L109.561 161.306Z" fill="#211715"/>
<path d="M184.236 153.591C184.56 146.835 185.187 140 184.573 133.245C184.102 128.064 182.489 123.131 178.55 119.49C176.133 117.251 179.788 113.685 182.2 115.92C192.461 125.417 189.992 141.201 189.399 153.596C189.244 156.83 184.08 156.848 184.236 153.596V153.591Z" fill="#211715"/>
<path d="M186.439 191.926C186.643 191.868 186.826 191.295 186.798 191.707C186.83 191.281 185.67 190.707 185.728 191.088C185.728 191.1 186.244 190.319 186.222 190.355C186.626 189.28 186.899 188.163 187.036 187.026C187.566 184.502 188.069 181.978 188.513 179.437C189.537 174.298 189.955 169.061 189.758 163.829C189.629 161.66 189.352 158.812 187.48 157.359C186.726 156.781 185.807 156.446 184.85 156.402C183.892 156.359 182.945 156.607 182.139 157.114C180.008 158.25 179.074 160.269 178.218 162.415C177.184 165.081 176.326 167.81 175.65 170.585C174.875 173.623 174.269 176.7 173.752 179.789C173.476 181.449 173.226 183.112 172.991 184.777C172.892 185.477 172.766 186.181 172.723 186.888C172.753 187.21 172.753 187.535 172.723 187.857L172.703 187.954C171.356 187.564 170.955 187.89 171.502 188.934C168.579 187.389 171.182 183.029 174.107 184.576C178.566 186.933 175.575 194.183 170.716 192.566C165.812 190.933 167.898 184.07 168.455 180.475C169.117 175.955 170.053 171.478 171.26 167.068C172.382 163.097 173.644 158.418 176.398 155.205C177.656 153.749 179.286 152.645 181.123 152.006C182.959 151.367 184.936 151.216 186.852 151.568C190.982 152.532 193.48 155.841 194.366 159.737C196.216 167.875 194.299 176.9 192.712 184.934C192.012 188.488 191.68 194.904 187.118 195.861C181.299 197.081 179.57 188.637 185.064 187.06C188.259 186.142 189.623 191.012 186.436 191.927L186.439 191.926Z" fill="#211715"/>
</svg>
