<svg width="94" height="94" viewBox="0 0 94 94" fill="none" xmlns="http://www.w3.org/2000/svg">
<g clip-path="url(#clip0_4162_3813)">
<path d="M43.1339 65.2008C45.4095 67.0533 48.5938 67.0612 50.8654 65.2008C55.3774 61.5347 63.9158 52.6909 63.9158 45.4294C63.9158 39.8129 59.6819 35.2461 54.4805 35.2461C51.402 35.2461 48.7152 36.6992 47.0036 38.9982C45.292 36.6992 42.6013 35.2461 39.5267 35.2461C34.3214 35.2461 30.0914 39.8129 30.0914 45.4294C30.0914 52.6909 38.6259 61.5347 43.1379 65.2008H43.1339ZM39.5228 39.1667C42.6679 39.1667 45.0414 41.6929 45.0414 45.0417C45.0414 46.1227 45.9187 47 46.9997 47C48.0807 47 48.958 46.1227 48.958 45.0417C48.958 41.6929 51.3315 39.1667 54.4766 39.1667C57.5199 39.1667 59.9952 41.9788 59.9952 45.4333C59.9952 50.478 53.2115 58.2526 48.394 62.1653C47.5715 62.8273 46.4278 62.8312 45.6014 62.1653C40.7878 58.2526 34.0042 50.478 34.0042 45.4333C34.0042 41.9788 36.4795 39.1667 39.5228 39.1667ZM93.9997 48.9583C93.9997 50.0393 93.1224 50.9167 92.0414 50.9167H88.1325C82.1283 50.9167 76.3473 48.3826 72.2818 43.9646L61.2642 31.9874C58.1504 28.6308 57.9233 23.171 60.7002 19.5833H33.2953C27.8981 19.5833 23.5036 15.1927 23.5036 9.79167C23.5036 4.39058 27.8942 0 33.2914 0H76.5353C82.3084 0 88.0072 1.51183 93.0166 4.36317C93.9566 4.89975 94.2856 6.09433 93.749 7.03825C93.2085 7.97433 92.0139 8.29158 91.0779 7.77067C86.6599 5.24833 81.6309 3.92058 76.5392 3.92058H33.2914C30.0523 3.92058 27.4164 6.5565 27.4164 9.79558C27.4164 13.0347 30.0523 15.6706 33.2914 15.6706C33.6869 15.7176 68.4356 15.5844 68.7646 15.7137C70.9227 15.7646 73.069 16.4892 74.8119 17.9579L87.3688 30.0957C88.1443 30.8477 88.1678 32.0892 87.4158 32.8647C86.6677 33.6442 85.43 33.6637 84.6467 32.9118L72.1956 20.868C66.8729 16.356 59.3529 24.2677 64.1664 29.3593L75.1684 41.3169C78.4975 44.9359 83.2249 47.0078 88.1404 47.0078H92.0492C93.1302 47.0078 94.0075 47.8852 94.0075 48.9662L93.9997 48.9583ZM70.6603 84.2083C70.6603 89.6094 66.2658 94 60.8686 94H17.6247C11.8515 94 6.15277 92.4882 1.14727 89.6368C0.20727 89.1003 -0.12173 87.9057 0.414854 86.9617C0.951437 86.0257 2.14602 85.7045 3.08602 86.2293C7.50402 88.7517 12.533 90.0794 17.6247 90.0794H60.8686C64.1077 90.0794 66.7436 87.4435 66.7436 84.2044C66.7436 80.9653 64.1077 78.3294 60.8686 78.3294C60.7198 78.302 25.6069 78.3843 25.4776 78.302C23.2921 78.2707 21.1144 77.5265 19.348 76.0421L6.79119 63.9043C6.01569 63.1523 5.99219 61.9108 6.74419 61.1353C7.49619 60.3598 8.73385 60.3402 9.51327 61.0883L21.9644 73.132C27.2871 77.644 34.8071 69.7323 29.9935 64.6407L18.9916 52.6831C15.6624 49.0641 10.935 46.9922 6.0196 46.9922H2.1186C1.0376 46.9922 0.16027 46.1148 0.16027 45.0338C0.16027 43.9528 1.0376 43.0755 2.1186 43.0755H6.02744C12.0317 43.0755 17.8127 45.6096 21.8782 50.0276L32.8958 62.0048C36.0095 65.3613 36.2367 70.8212 33.4598 74.4088H60.8647C66.2618 74.4088 70.6564 78.7994 70.6564 84.2005L70.6603 84.2083Z" fill="#155DFC"/>
</g>
<defs>
<clipPath id="clip0_4162_3813">
<rect width="94" height="94" fill="white"/>
</clipPath>
</defs>
</svg>
