<svg width="92" height="92" viewBox="0 0 92 92" fill="none" xmlns="http://www.w3.org/2000/svg">
<g clip-path="url(#clip0_4162_3819)">
<path d="M89.2929 22.1682L77.2026 5.83433C74.5921 2.18117 70.3486 0 65.8598 0H38.0489C38.0489 0 38.0183 0 38.0029 0H26.1426C21.6499 0 17.4103 2.18117 14.8228 5.80367L2.55611 22.172C-1.03956 27.255 -0.809556 34.1818 3.04294 38.9198L38.2176 88.2395C40.1113 90.6277 42.9479 91.9962 45.9954 91.9962H45.9993C49.0468 91.9962 51.8834 90.6238 53.8346 88.1628L88.8674 39.2073C92.8618 34.2892 93.0381 27.2857 89.2891 22.1682H89.2929ZM74.1053 8.09217L86.2071 24.4452C86.7553 25.1927 87.1846 25.9977 87.5028 26.8333H64.6178L56.7019 3.83333H65.8598C69.1181 3.83333 72.1925 5.4165 74.1053 8.09217ZM31.4364 26.8333L39.3523 3.83333H52.6501L60.5659 26.8333H31.4364ZM60.7193 30.6667L45.9993 83.0032L31.2793 30.6667H60.7193ZM17.9124 8.06533C19.8061 5.4165 22.8804 3.83333 26.1388 3.83333H35.2966L27.3808 26.8333H4.41144C4.71044 25.99 5.12444 25.1812 5.65344 24.4298L17.9124 8.06533ZM41.2804 85.9357L6.09044 36.6007C4.68744 34.8757 3.93611 32.7827 3.84028 30.6667H27.2926L43.2661 87.4613C42.4956 87.1125 41.8056 86.6027 41.2766 85.9395L41.2804 85.9357ZM50.7794 85.8552C50.2236 86.5528 49.5183 87.078 48.7363 87.4383L64.7059 30.659H88.1506C88.0893 32.8555 87.3149 35.0443 85.8276 36.8767L50.7833 85.8513L50.7794 85.8552Z" fill="#155DFC"/>
</g>
<defs>
<clipPath id="clip0_4162_3819">
<rect width="92" height="92" fill="white"/>
</clipPath>
</defs>
</svg>
