<svg width="92" height="92" viewBox="0 0 92 92" fill="none" xmlns="http://www.w3.org/2000/svg">
<g clip-path="url(#clip0_4162_3832)">
<path d="M74.1099 11.2726L78.9783 12.9938L80.5997 17.8583C80.8604 18.6403 81.5964 19.1693 82.4206 19.1693C83.2448 19.1693 83.9769 18.6403 84.2414 17.8583L85.8552 13.0168L90.6968 11.403C91.4788 11.1423 92.0078 10.4101 92.0078 9.58596C92.0078 8.76179 91.4788 8.02963 90.6968 7.76896L85.8552 6.15513L84.2414 1.31363C83.7163 -0.250375 81.1288 -0.250375 80.6036 1.31363L78.9974 6.13213L74.1827 7.63863C73.3969 7.88396 72.8526 8.60463 72.8372 9.43263C72.8219 10.2606 73.3318 11.0005 74.1099 11.2726Z" fill="#155DFC"/>
<path d="M90.7968 72.9735L80.6078 68.8987L76.5329 58.7097C75.9579 57.253 73.5544 57.253 72.9756 58.7097L68.9046 68.8795L58.7424 72.7244C58.0103 73.0042 57.5196 73.698 57.5043 74.48C57.4889 75.262 57.9528 75.9789 58.6773 76.2817L68.8931 80.5865L72.9756 90.7947C73.2631 91.523 73.9723 91.9984 74.7543 91.9984C75.5363 91.9984 76.2454 91.5192 76.5329 90.7947L80.6078 80.6057L90.7968 76.5309C91.5251 76.2395 92.0004 75.5342 92.0004 74.7522C92.0004 73.9702 91.5251 73.2649 90.7968 72.9735ZM78.4189 77.355C77.9321 77.5505 77.5449 77.9377 77.3533 78.4245L74.7504 84.9259L72.1476 78.4245C71.9598 77.9492 71.5879 77.5697 71.1126 77.3704L64.5768 74.6142L71.0474 72.1647C71.5496 71.973 71.9483 71.582 72.1476 71.0837L74.7504 64.5824L77.3533 71.0837C77.5488 71.5705 77.9321 71.9577 78.4189 72.1532L84.9203 74.756L78.4189 77.355Z" fill="#155DFC"/>
<path d="M72.5837 47.7583C75.0639 46.9648 76.6662 44.7683 76.6662 42.1654C76.6662 39.5626 75.0639 37.3661 72.5377 36.5573L50.4309 30.0713L43.9986 7.9951C43.2396 5.50344 41.0622 3.87044 38.4594 3.83594C35.9064 3.94327 33.6409 5.37694 32.7899 7.91077L26.2387 30.0674L4.15875 36.5036C1.66708 37.2626 0.0340787 39.4399 -0.000421294 42.0428C-0.0349213 44.6456 1.54058 46.8613 4.07441 47.7123L26.2387 54.2634L32.7401 76.4201C33.5336 78.9003 35.7301 80.5026 38.3329 80.5026C40.9357 80.5026 43.1322 78.9003 43.9411 76.3741L50.4309 54.2673L72.5377 47.7813L72.5837 47.7659V47.7583ZM71.4337 44.1013L48.3494 50.8786C47.7207 51.0626 47.2339 51.5533 47.0499 52.1781L40.2802 75.2471C39.8586 76.5619 38.6856 76.6654 38.3367 76.6654C37.9879 76.6654 36.8149 76.5619 36.4086 75.2931L29.6236 52.1819C29.4396 51.5571 28.9527 51.0664 28.3279 50.8824L5.23208 44.0553C3.92108 43.6183 3.83675 42.4414 3.84058 42.0926C3.84441 41.7438 3.96325 40.5708 5.26275 40.1759L28.3279 33.4561C28.9566 33.2759 29.4472 32.7853 29.6312 32.1604L36.4584 9.0646C36.8877 7.78427 38.0186 7.6731 38.3942 7.6731H38.4172C38.7661 7.67694 39.9391 7.79577 40.3339 9.09527L47.0537 32.1566C47.2377 32.7853 47.7246 33.2759 48.3532 33.4599L71.4222 40.2296C72.7409 40.6513 72.8406 41.8243 72.8406 42.1731C72.8406 42.5219 72.7409 43.6834 71.4414 44.1089L71.4337 44.1013Z" fill="#155DFC"/>
</g>
<defs>
<clipPath id="clip0_4162_3832">
<rect width="92" height="92" fill="white"/>
</clipPath>
</defs>
</svg>
