<svg width="94" height="94" viewBox="0 0 94 94" fill="none" xmlns="http://www.w3.org/2000/svg">
<g clip-path="url(#clip0_4162_3825)">
<g clip-path="url(#clip1_4162_3825)">
<path d="M35.25 47C48.2103 47 58.75 36.4603 58.75 23.5C58.75 10.5398 48.2103 0 35.25 0C22.2898 0 11.75 10.5398 11.75 23.5C11.75 36.4603 22.2898 47 35.25 47ZM35.25 3.91667C46.0483 3.91667 54.8333 12.7018 54.8333 23.5C54.8333 34.2983 46.0483 43.0833 35.25 43.0833C24.4517 43.0833 15.6667 34.2983 15.6667 23.5C15.6667 12.7018 24.4517 3.91667 35.25 3.91667ZM48.1515 61.523C44.086 59.6861 39.7463 58.75 35.25 58.75C17.9736 58.75 3.91667 72.8069 3.91667 90.0833V92.0417C3.91667 93.1227 3.03933 94 1.95833 94C0.877333 94 0 93.1227 0 92.0417V90.0833C0 70.6488 15.8155 54.8333 35.25 54.8333C40.3064 54.8333 45.1905 55.883 49.7652 57.951C50.7483 58.3975 51.1869 59.5568 50.7443 60.5438C50.2978 61.5269 49.1385 61.9695 48.1515 61.523ZM94 76.375C94 77.456 93.1227 78.3333 92.0417 78.3333H84.6705C84.0321 78.3333 83.3623 78.9796 82.9981 79.9392L78.8934 90.8393C78.1532 92.8015 76.5826 94 74.7653 94C74.7065 94 74.6478 94 74.589 94C72.6777 93.9178 71.0562 92.4882 70.453 90.3536L62.8586 63.4657C62.6862 62.8547 62.3494 62.6706 62.322 62.6706C62.2554 62.6706 62.0322 62.8155 61.8481 63.2972L57.7434 74.1973C56.7956 76.7158 54.7002 78.3412 52.4089 78.3412H45.0378C43.9567 78.3412 43.0794 77.4638 43.0794 76.3828C43.0794 75.3018 43.9567 74.4245 45.0378 74.4245H52.4089C53.0473 74.4245 53.7171 73.7782 54.0813 72.8187L58.186 61.9186C58.9498 59.8898 60.6026 58.6482 62.4904 58.7618C64.4017 58.844 66.0232 60.2736 66.6264 62.4082L74.2208 89.2961C74.3932 89.9071 74.7418 90.0794 74.7574 90.0912C74.824 90.0912 75.0472 89.9463 75.2313 89.4645L79.336 78.5644C80.2838 76.046 82.3792 74.4206 84.6705 74.4206H92.0417C93.1227 74.4206 94 75.294 94 76.375Z" fill="#155DFC"/>
</g>
</g>
<defs>
<clipPath id="clip0_4162_3825">
<rect width="94" height="94" fill="white"/>
</clipPath>
<clipPath id="clip1_4162_3825">
<rect width="94" height="94" fill="white"/>
</clipPath>
</defs>
</svg>
