<svg width="100" height="100" viewBox="0 0 100 100" fill="none" xmlns="http://www.w3.org/2000/svg">
<rect width="100" height="100" rx="50" fill="#F2F6FF"/>
<path d="M71.4362 33.61L42.6491 62.2494C42.4555 62.4428 42.2255 62.5962 41.9722 62.7008C41.719 62.8055 41.4474 62.8594 41.1732 62.8594C40.8989 62.8594 40.6273 62.8055 40.3741 62.7008C40.1208 62.5962 39.8908 62.4428 39.6972 62.2494L28.5649 51.163C28.3713 50.9697 28.1413 50.8163 27.888 50.7116C27.6348 50.6069 27.3632 50.553 27.089 50.553C26.8147 50.553 26.5432 50.6069 26.2899 50.7116C26.0366 50.8163 25.8066 50.9697 25.613 51.163C25.4187 51.3556 25.2646 51.5844 25.1594 51.8364C25.0542 52.0884 25 52.3586 25 52.6314C25 52.9043 25.0542 53.1745 25.1594 53.4265C25.2646 53.6785 25.4187 53.9073 25.613 54.0999L36.7496 65.1781C37.9244 66.3447 39.5164 67 41.1763 67C42.8361 67 44.4282 66.3447 45.603 65.1781L74.388 36.5448C74.582 36.3523 74.7359 36.1235 74.8409 35.8717C74.9459 35.6199 75 35.35 75 35.0774C75 34.8047 74.9459 34.5348 74.8409 34.283C74.7359 34.0312 74.582 33.8025 74.388 33.61C74.1945 33.4166 73.9644 33.2632 73.7112 33.1586C73.4579 33.0539 73.1863 33 72.9121 33C72.6378 33 72.3663 33.0539 72.113 33.1586C71.8597 33.2632 71.6297 33.4166 71.4362 33.61Z" fill="#155DFC"/>
</svg>
